<?xml version="1.0" encoding="utf-8"?>
<svg viewBox="0 0 1001.3333 668" height="668" width="1001.3333" id="svg2" version="1.1" xmlns="http://www.w3.org/2000/svg">
  <g transform="matrix(1.3333333,0,0,-1.3333333,0,668)" id="g10">
    <g transform="scale(0.1)" id="g12">
      <path id="path14" style="fill-opacity: 1; fill-rule: nonzero; stroke: none; fill: rgb(107, 122, 143);" d="M 0,10 H 7500 V 5010 H 0 Z"/>
      <path id="path16" style="fill-opacity: 1; fill-rule: nonzero; stroke: none; fill: rgb(107, 122, 143);" d="M 4150,0 H 780 V 2400 H 4150 V 0"/>
      <path id="path18" style="fill-opacity: 1; fill-rule: nonzero; stroke: none; fill: rgb(50, 79, 170);" d="M 341.212 5010 C 223.184 4825.809 138.098 4620.543 77.135 4412.615 C -84.538 3860.565 -86.553 3245.302 198.268 2739.6 C 482.965 2233.899 1095.043 1873.514 1693.657 1967.492 C 2097.72 2030.95 2440.217 2280.236 2735.495 2548.18 C 2961.514 2753.39 3171.289 2974.752 3362.43 3209.535 C 3603.689 3505.883 3820.516 3829.075 4134.297 4057.22 C 4448.091 4285.354 4895.848 4399.783 5243.501 4220.716 C 5395.364 4142.533 5514.231 4016.464 5663.81 3934.593 C 6018.397 3740.321 6493.979 3837.753 6805.253 4089.534 C 7093.44 4322.769 7260.686 4661.946 7358.058 5010 L 341.212 5010"/>
      <g id="g20">
        <g clip-path="url(#clipPath26)" id="g22">
          <path id="path28" style="fill:#f4ede5;fill-opacity:1;fill-rule:nonzero;stroke:none" d="m 2328.97,5164.2 c -36.47,-100.68 -54.58,-207.65 -54.58,-314.63 0,-126.59 25.37,-253.21 75.84,-369.44 39.69,-91.38 101.28,-178.72 177.85,-243.58 76.52,-64.8 168.35,-107.21 267.9,-107.22 9.3,0 18.66,0.37 28.08,1.13 100.84,8.11 186.41,56.61 263.96,119.58 77.59,63.02 147.63,140.75 217.75,208.96 94.15,91.64 203.98,172.8 322.3,230.95 118.34,58.16 245.1,93.3 373.32,93.3 36.86,0 73.84,-2.9 110.81,-9 126.65,-20.82 247.51,-78.01 369.17,-130.5 121.65,-52.4 244.29,-100.2 375.07,-100.25 14.46,0 29.01,0.59 43.66,1.82 122.31,10.32 235.15,72.27 317.49,161.98 82.33,89.73 134.42,207.48 134.44,330.13 0,1.3 0,2.6 -0.01,3.89 -0.05,5.61 -4.63,10.12 -10.24,10.07 -5.61,-0.04 -10.12,-4.62 -10.08,-10.23 0.01,-1.25 0.02,-2.5 0.02,-3.73 0.02,-116.81 -49.81,-230.01 -129.1,-316.39 -79.27,-86.4 -187.75,-145.7 -304.22,-155.47 -14.07,-1.18 -28.05,-1.75 -41.96,-1.75 -125.68,-0.05 -245.78,46.28 -367.03,98.59 -121.23,52.22 -243.43,110.34 -373.9,131.89 -38.1,6.28 -76.2,9.26 -114.12,9.26 -131.97,0 -261.72,-36.13 -382.28,-95.38 -120.56,-59.26 -231.99,-141.66 -327.51,-234.62 -70.74,-68.87 -140.46,-146.13 -216.39,-207.75 -75.97,-61.67 -157.69,-107.47 -252.78,-115.1 -8.87,-0.71 -17.69,-1.06 -26.45,-1.06 -93.62,-0.01 -180.92,39.89 -254.77,102.41 -73.82,62.47 -133.86,147.47 -172.35,236.16 -49.31,113.56 -74.16,237.47 -74.16,361.35 0,104.69 17.74,209.34 53.38,307.71 1.91,5.27 -0.82,11.1 -6.1,13.01 -5.27,1.91 -11.09,-0.82 -13.01,-6.09"/>
        </g>
      </g>
      <path id="path30" style="fill:#a0acde;fill-opacity:1;fill-rule:nonzero;stroke:none" d="M 1708.21,837.211 C 1690.19,1198.23 1544.69,1562.1 1277.2,1775.16 1032.45,1970.1 707.949,2021.79 409.934,1962.41 269.707,1934.47 134.848,1883.69 5.94141,1817.4 V 10 H 1571.99 c 93.75,264.66 150.3,545.09 136.22,827.211"/>
      <path id="path32" style="fill:#a0acde;fill-opacity:1;fill-rule:nonzero;stroke:none" d="m 7500,1706.42 c -98.34,-37.37 -188.96,-94.97 -262.98,-169.79 C 7071.28,1369.1 6995.75,1135.15 6878.94,930.469 6762.14,725.801 6564.38,531.082 6329.35,548.34 5980.62,573.949 5842.2,1004.43 5589.43,1246.05 5212.84,1606.03 4558.35,1499.57 4173.72,1148.18 3849.69,852.172 3674.65,435.43 3549.17,10 H 7500 v 1696.42"/>
      <g id="g34">
        <g clip-path="url(#clipPath40)" id="g36">
          <path id="path42" style="fill:#f4ede5;fill-opacity:1;fill-rule:nonzero;stroke:none" d="m 4328.81,-113.059 c -20.23,65.1996 -30.11,133.391 -30.11,201.6684 -0.01,152.1796 49.1,304.7816 141.44,425.6916 129.19,169.301 340.66,273.097 553.51,273.039 7.45,0 14.91,-0.121 22.37,-0.379 134.41,-4.609 261.72,-47.652 380.44,-112.84 118.7,-65.18 228.7,-152.492 328.14,-245.133 99.84,-92.976 204.24,-197.379 317.57,-278.867 C 6155.45,68.6797 6278.1,9.89844 6414.09,9.87891 c 16.17,0 32.51,0.83199 49.03,2.55079 98.29,10.25 187.11,52.1289 265.62,110.7893 78.52,58.672 146.89,134.152 204.73,212.351 115.42,156.219 205.5,331.149 343.19,463.309 101.87,97.973 242.64,169.641 378.41,169.519 47.04,0 93.51,-8.519 137.88,-27.378 5.17,-2.2 11.13,0.21 13.33,5.371 2.19,5.16 -0.21,11.129 -5.38,13.32 -47.06,20.019 -96.34,29.008 -145.83,29.008 C 7512.11,988.602 7367.6,914.32 7262.59,813.531 7121.76,678.09 7031.38,501.98 6917.14,347.652 6860.15,270.57 6792.94,196.531 6716.58,139.492 6640.19,82.4297 6554.81,42.4219 6461.02,32.6406 c -15.82,-1.6484 -31.46,-2.4414 -46.93,-2.4414 -129.9,-0.0273 -248.53,56.2305 -360.06,136.4098 -111.49,80.133 -215.42,183.922 -315.58,277.25 -100.26,93.383 -211.46,181.743 -332.22,248.063 -120.74,66.308 -251.16,110.598 -389.51,115.34 -7.69,0.269 -15.39,0.398 -23.07,0.398 C 4774.23,807.602 4557.33,701.148 4424,526.629 4328.78,401.898 4278.4,245.141 4278.39,88.6094 c 0,-70.2383 10.15,-140.4492 31.01,-207.6874 1.67,-5.36 7.36,-8.352 12.72,-6.692 5.35,1.661 8.35,7.352 6.69,12.711"/>
        </g>
      </g>
      <path id="path44" style="fill:#f7e7e2;fill-opacity:1;fill-rule:nonzero;stroke:none" d="m 6243.15,1416.57 c -49.36,0 -98.85,17.92 -137.88,54.16 l -128.53,119.32 c -97.8,90.81 -103.47,243.7 -12.67,341.51 l 181.74,195.74 454.17,-421.66 -208.22,-224.28 c -39.94,-43.02 -94.2,-64.79 -148.61,-64.79"/>
      <path id="path46" style="fill:#fcfeff;fill-opacity:1;fill-rule:nonzero;stroke:none" d="m 6381.19,1909.47 -451.51,-16.76 c -9.73,-39.65 -28.93,-77.51 -44.68,-116 0.34,-2.77 0.76,-5.53 1.12,-8.3 l 622.14,23.09 -127.07,117.97"/>
      <path id="path48" style="fill:#fcfeff;fill-opacity:1;fill-rule:nonzero;stroke:none" d="m 6610.6,1696.48 -25.52,23.7 -675.65,-25.08 c 7.73,-24.12 14.51,-48.48 20.13,-73.17 l 633.65,23.52 47.39,51.03"/>
      <path id="path50" style="fill:#282e68;fill-opacity:1;fill-rule:nonzero;stroke:none" d="m 6105.27,1470.73 17.9,19.29 -128.52,119.32 c -45.74,42.49 -68.79,99.97 -68.82,157.86 0.03,52.51 18.98,104.92 57.53,146.45 l 163.83,176.46 415.6,-385.85 -190.32,-204.99 c -34.81,-37.49 -81.88,-56.35 -129.32,-56.38 -43.03,0.02 -85.94,15.54 -119.98,47.13 l -17.9,-19.29 -17.91,-19.28 c 44.03,-40.89 100.1,-61.22 155.79,-61.19 61.38,-0.03 122.83,24.64 167.89,73.2 l 208.23,224.27 c 4.71,5.08 7.27,11.96 7.01,18.88 -0.26,6.93 -3.32,13.6 -8.39,18.31 l -454.18,421.67 c -10.65,9.89 -27.3,9.27 -37.18,-1.38 l -181.74,-195.75 c -47.85,-51.52 -71.62,-117.09 -71.59,-182.26 -0.03,-71.83 28.83,-143.7 85.64,-196.43 l 128.52,-119.32 17.91,19.28"/>
      <path id="path52" style="fill:#282e68;fill-opacity:1;fill-rule:nonzero;stroke:none" d="m 6105.27,1470.73 17.9,19.29 -128.52,119.32 c -45.74,42.49 -68.79,99.97 -68.82,157.86 0.03,52.51 18.98,104.92 57.53,146.45 l 163.83,176.46 415.6,-385.85 -190.32,-204.99 c -34.81,-37.49 -81.88,-56.35 -129.32,-56.38 -43.03,0.02 -85.94,15.54 -119.98,47.13 l -17.9,-19.29 -17.91,-19.28 c 44.03,-40.89 100.1,-61.22 155.79,-61.19 61.38,-0.03 122.83,24.64 167.89,73.2 l 208.23,224.27 c 4.71,5.08 7.27,11.96 7.01,18.88 -0.26,6.93 -3.32,13.6 -8.39,18.31 l -454.18,421.67 c -10.65,9.89 -27.3,9.27 -37.18,-1.38 l -181.74,-195.75 c -47.85,-51.52 -71.62,-117.09 -71.59,-182.26 -0.03,-71.83 28.83,-143.7 85.64,-196.43 l 128.52,-119.32 17.91,19.28"/>
      <path id="path54" style="fill:#282e68;fill-opacity:1;fill-rule:nonzero;stroke:none" d="m 6551.15,1683.12 -464.37,431.14 c -21.49,19.96 -22.75,53.87 -2.79,75.37 l 3.06,3.3 c 19.95,21.49 53.87,22.75 75.37,2.79 l 464.37,-431.13 c 21.49,-19.96 22.75,-53.88 2.79,-75.37 l -3.06,-3.3 c -19.96,-21.5 -53.87,-22.76 -75.37,-2.8"/>
      <path id="path56" style="fill:#f7e7e2;fill-opacity:1;fill-rule:nonzero;stroke:none" d="m 6812.48,827.82 c -29.31,10.719 -57.03,27.332 -81.34,49.899 l -128.52,119.32 c -82.05,76.181 -86.81,204.451 -10.63,286.491 l 208.22,224.28 252.82,-234.73 c -59.82,-112.67 -110.92,-231.93 -174.09,-342.611 -19.88,-34.84 -42.1,-69.379 -66.46,-102.649"/>
      <path id="path58" style="fill:#bdc8ea;fill-opacity:1;fill-rule:nonzero;stroke:none" d="m 6895.5,813.16 c -28.09,0 -56.23,4.871 -83.02,14.66 24.36,33.27 46.58,67.809 66.46,102.649 63.17,110.681 114.27,229.941 174.09,342.611 L 7254.38,1086.14 7072.64,890.391 C 7025.03,839.109 6960.36,813.148 6895.5,813.16"/>
      <path id="path60" style="fill:#fcfeff;fill-opacity:1;fill-rule:nonzero;stroke:none" d="m 7019.7,1304.73 16.76,-451.519 c -38.83,-12.641 -75.16,-34.59 -112.38,-53.152 -2.79,0.132 -5.57,0.351 -8.35,0.5 l -23.09,622.141 127.06,-117.97"/>
      <path id="path62" style="fill:#fcfeff;fill-opacity:1;fill-rule:nonzero;stroke:none" d="m 6790.3,1517.71 25.52,-23.69 25.07,-675.649 c -24.63,5.93 -49.42,10.879 -74.46,14.649 l -23.52,633.65 47.39,51.04"/>
      <path id="path64" style="fill:#282e68;fill-opacity:1;fill-rule:nonzero;stroke:none" d="m 6602.62,997.039 -17.91,-19.277 128.53,-119.332 c 51.52,-47.848 117.09,-71.61 182.26,-71.578 71.82,-0.043 143.7,28.82 196.43,85.636 l 181.74,195.742 c 4.71,5.08 7.27,11.96 7.01,18.88 -0.26,6.93 -3.32,13.6 -8.39,18.31 l -454.17,421.67 c -10.66,9.89 -27.31,9.27 -37.19,-1.38 L 6572.7,1301.44 c -40.89,-44.03 -61.21,-100.1 -61.19,-155.79 -0.03,-61.38 24.65,-122.83 73.2,-167.888 l 17.91,19.277 17.9,19.291 c -37.48,34.81 -56.34,81.88 -56.38,129.32 0.03,43.03 15.55,85.94 47.13,119.98 l 190.32,204.99 415.6,-385.86 -163.83,-176.471 c -42.49,-45.738 -99.97,-68.777 -157.86,-68.82 -52.51,0.031 -104.92,18.992 -146.45,57.531 l -128.53,119.33 -17.9,-19.291"/>
      <path id="path66" style="fill:#282e68;fill-opacity:1;fill-rule:nonzero;stroke:none" d="m 6602.62,997.039 -17.91,-19.277 128.53,-119.332 c 51.52,-47.848 117.09,-71.61 182.26,-71.578 71.82,-0.043 143.7,28.82 196.43,85.636 l 181.74,195.742 c 4.71,5.08 7.27,11.96 7.01,18.88 -0.26,6.93 -3.32,13.6 -8.39,18.31 l -454.17,421.67 c -10.66,9.89 -27.31,9.27 -37.19,-1.38 L 6572.7,1301.44 c -40.89,-44.03 -61.21,-100.1 -61.19,-155.79 -0.03,-61.38 24.65,-122.83 73.2,-167.888 l 17.91,19.277 17.9,19.291 c -37.48,34.81 -56.34,81.88 -56.38,129.32 0.03,43.03 15.55,85.94 47.13,119.98 l 190.32,204.99 415.6,-385.86 -163.83,-176.471 c -42.49,-45.738 -99.97,-68.777 -157.86,-68.82 -52.51,0.031 -104.92,18.992 -146.45,57.531 l -128.53,119.33 -17.9,-19.291"/>
      <path id="path68" style="fill:#282e68;fill-opacity:1;fill-rule:nonzero;stroke:none" d="m 6781.38,1457.44 464.37,-431.14 c 21.49,-19.95 55.41,-18.7 75.37,2.8 l 3.06,3.3 c 19.96,21.49 18.7,55.41 -2.8,75.37 l -464.36,431.14 c -21.5,19.96 -55.42,18.7 -75.38,-2.8 l -3.06,-3.3 c -19.96,-21.49 -18.7,-55.41 2.8,-75.37"/>
      <path id="path70" style="fill:#282e68;fill-opacity:1;fill-rule:nonzero;stroke:none" d="m 6539.02,1566.28 c 7.58,1.7 15.4,2.54 23.29,2.54 30.84,0.09 62.46,-13.14 83.08,-35.33 19.1,-20.28 30.09,-49.31 30.02,-77.82 0.01,-10.4 -1.43,-20.7 -4.3,-30.48 -4.1,-13.94 3.87,-28.57 17.82,-32.67 13.94,-4.1 28.57,3.87 32.67,17.82 4.36,14.84 6.44,30.12 6.44,45.33 -0.06,41.57 -15.34,82.82 -44.23,113.79 -31.54,33.53 -76.2,51.89 -121.5,51.98 -11.62,0 -23.29,-1.23 -34.79,-3.8 -14.18,-3.18 -23.1,-17.25 -19.92,-31.43 3.17,-14.18 17.24,-23.11 31.42,-19.93"/>
      <path id="path74" style="fill:#5870c0;fill-opacity:1;fill-rule:nonzero;stroke:none" d="M 6899.953 3418.697 L 5772.403 4044.707 C 5638.993 4118.777 5590.443 4288.517 5664.513 4421.927 C 5738.583 4555.337 5908.323 4603.877 6041.733 4529.817 L 7169.283 3903.807 C 7302.683 3829.737 7351.233 3659.997 7277.163 3526.587 C 7203.103 3393.187 7033.353 3344.637 6899.953 3418.697"/>
      <path id="path76" style="fill:#2b3990;fill-opacity:1;fill-rule:nonzero;stroke:none" d="M 7169.283 3903.807 L 6989.403 4003.677 C 7011.393 3805.627 6865.163 3592.617 6669.913 3546.407 L 6899.953 3418.697 C 7033.353 3344.637 7203.103 3393.187 7277.163 3526.587 C 7351.233 3659.987 7302.683 3829.737 7169.283 3903.807"/>
      <path id="path78" style="fill:#6a84cb;fill-opacity:1;fill-rule:nonzero;stroke:none" d="M 6093.533 4175.157 C 6017.153 4037.577 5843.703 3987.967 5706.123 4064.357 C 5568.543 4140.737 5518.933 4314.187 5595.323 4451.767 C 5671.703 4589.347 5845.153 4638.957 5982.733 4562.577 C 6120.313 4486.187 6169.923 4312.737 6093.533 4175.157"/>
      <path id="path80" style="fill:#444faa;fill-opacity:1;fill-rule:nonzero;stroke:none" d="M 5974.823 4258.217 C 5937.073 4190.217 5851.353 4165.697 5783.353 4203.457 C 5715.353 4241.207 5690.833 4326.927 5728.583 4394.927 C 5766.343 4462.927 5852.063 4487.447 5920.063 4449.697 C 5988.063 4411.947 6012.583 4326.217 5974.823 4258.217"/>
      <path id="path82" style="fill:#2b3990;fill-opacity:1;fill-rule:nonzero;stroke:none" d="M 5918.093 4289.717 C 5897.733 4253.057 5851.513 4239.827 5814.853 4260.187 C 5778.183 4280.537 5764.963 4326.767 5785.323 4363.427 C 5805.673 4400.097 5851.903 4413.317 5888.563 4392.967 C 5925.233 4372.607 5938.453 4326.377 5918.093 4289.717"/>
      <path id="path84" style="fill:#161632;fill-opacity:1;fill-rule:nonzero;stroke:none" d="M 7361.643 3539.717 L 7289.533 3579.757 L 7245.853 3501.087 L 7317.963 3461.057 C 7401.113 3414.897 7431.193 3309.707 7385.033 3226.567 C 7338.883 3143.437 7233.693 3113.347 7150.543 3159.497 L 5472.343 4091.237 C 5389.203 4137.397 5359.113 4242.587 5405.273 4325.727 C 5451.433 4408.857 5556.623 4438.947 5639.763 4392.787 L 5842.983 4279.967 L 5886.653 4358.627 L 5683.433 4471.457 C 5556.923 4541.697 5396.843 4495.917 5326.603 4369.397 C 5256.363 4242.887 5302.153 4082.807 5428.663 4012.567 L 7106.873 3080.837 C 7233.383 3010.597 7393.463 3056.377 7463.703 3182.897 C 7533.943 3309.407 7488.153 3469.477 7361.643 3539.717"/>
      <path id="path86" style="fill:#161632;fill-opacity:1;fill-rule:nonzero;stroke:none" d="M 6896.513 2451.067 C 6877.473 2449.847 6859.013 2460.927 6851.723 2479.657 L 6477.123 3442.337 C 6468.123 3465.497 6479.583 3491.567 6502.733 3500.577 C 6525.893 3509.597 6551.963 3498.127 6560.973 3474.967 L 6935.573 2512.287 C 6944.573 2489.127 6933.113 2463.057 6909.963 2454.047 C 6905.543 2452.327 6901.003 2451.347 6896.513 2451.067"/>
      <path id="path88" style="fill:#f8a31a;fill-opacity:1;fill-rule:nonzero;stroke:none" d="M 6978.803 2352.177 C 6901.303 2318.097 6810.023 2353.617 6775.943 2431.117 L 6536.073 2976.537 C 6501.993 3054.027 6537.513 3145.317 6615.013 3179.397 C 6692.503 3213.477 6783.793 3177.957 6817.873 3100.467 L 7057.733 2555.037 C 7091.813 2477.547 7056.293 2386.257 6978.803 2352.177"/>
      <path id="path90" style="fill:#0e101f;fill-opacity:1;fill-rule:nonzero;stroke:none" d="M 6855.498 2362.615 L 6859.018 2368.975 C 6818.048 2391.705 6794.838 2434.555 6794.828 2478.585 C 6794.828 2499.055 6799.848 2519.755 6810.438 2538.835 C 6833.178 2579.815 6876.018 2603.025 6920.048 2603.025 C 6940.528 2603.025 6961.218 2598.015 6980.308 2587.415 C 7021.278 2564.685 7044.488 2521.845 7044.498 2477.805 C 7044.488 2457.335 7039.478 2436.635 7028.888 2417.555 C 7006.148 2376.575 6963.308 2353.365 6919.278 2353.365 C 6898.798 2353.365 6878.108 2358.375 6859.018 2368.975 L 6855.498 2362.615 L 6851.968 2356.265 C 6873.258 2344.445 6896.428 2338.835 6919.278 2338.835 C 6968.358 2338.825 7016.158 2364.715 7041.588 2410.505 C 7053.408 2431.795 7059.028 2454.965 7059.028 2477.805 C 7059.028 2526.895 7033.138 2574.685 6987.358 2600.125 C 6966.068 2611.945 6942.898 2617.555 6920.048 2617.555 C 6870.968 2617.565 6823.168 2591.675 6797.738 2545.885 C 6785.918 2524.595 6780.298 2501.425 6780.298 2478.585 C 6780.298 2429.495 6806.188 2381.705 6851.968 2356.265 L 6855.498 2362.615"/>
      <path id="path92" style="fill:#dd7b1a;fill-opacity:1;fill-rule:nonzero;stroke:none" d="m 4972.87,482.301 -960.05,826.619 c -41.23,35.32 -83.99,60.76 -119.66,73.28 -14.4,5.06 -27.65,8.01 -39.17,8.66 -17.02,0.96 -30.28,-3.12 -37.96,-12.84 -5.81,-7.37 -7.94,-17.37 -6.82,-29.26 3.81,-40.81 46.05,-103.84 109.92,-158.56 l 945.91,-812.438 107.83,104.539"/>
      <path id="path94" style="fill:#f6b01e;fill-opacity:1;fill-rule:nonzero;stroke:none" d="M 4922.11,475.551 3853.99,1390.86 c -17.02,0.96 -30.28,-3.12 -37.96,-12.84 -5.81,-7.37 -7.94,-17.37 -6.82,-29.26 l 1080.36,-925.908 32.54,52.699"/>
      <path id="path96" style="fill:#f2b79d;fill-opacity:1;fill-rule:nonzero;stroke:none" d="m 3704.57,1475.82 145.46,-213.74 81.98,103.87 c 0,0 -237.69,113.46 -227.44,109.87"/>
      <path id="path98" style="fill:#282e68;fill-opacity:1;fill-rule:nonzero;stroke:none" d="m 3791.43,1433.29 c -43.76,21.06 -81.95,39.55 -86.68,42.26 l 55.58,-81.67 31.1,39.41"/>
      <path id="path100" style="fill:#f35e43;fill-opacity:1;fill-rule:nonzero;stroke:none" d="m 4885.24,358.93 33.87,-29.098 c 29.81,-25.402 68.24,-31.242 96.19,-17.461 8.15,4.008 15.39,9.68 21.28,17.02 7.79,9.699 12.35,21.269 13.9,33.589 3.66,29.012 -9.38,62.2 -36.41,85.219 l -33.86,29.102 -94.97,-118.371"/>
      <path id="path102" style="fill:#d8d6d4;fill-opacity:1;fill-rule:nonzero;stroke:none" d="m 4919.31,531.23 -92.47,-117.171 c -6.19,-7.84 -25.78,-1.809 -43.53,13.39 l -1.04,0.903 c -17.75,15.207 -27.21,34.07 -21.02,41.91 l 92.46,117.16 c 6.19,7.848 25.78,1.82 43.53,-13.391 l 1.05,-0.89 c 17.75,-15.211 27.21,-34.071 21.02,-41.911"/>
      <path id="path104" style="fill:#ffffff;fill-opacity:1;fill-rule:nonzero;stroke:none" d="m 4981.4,477.219 -93.81,-118.867 c -5.82,-7.372 -25.34,-0.762 -43.38,14.687 -18.04,15.461 -28.04,34.141 -22.22,41.512 l 93.82,118.871 c 5.82,7.379 25.34,0.758 43.37,-14.692 18.04,-15.46 28.04,-34.14 22.22,-41.511"/>
      <path id="path108" style="fill: rgb(243, 94, 67); fill-opacity: 1; fill-rule: nonzero; stroke: none; transform-box: fill-box; transform-origin: 50% 50%;" d="M 4207.833 4375.4 C 4183.293 4348.39 4157.993 4316.94 4159.323 4280.48 C 4160.643 4244.17 4188.203 4213.98 4195.693 4178.42 C 4208.293 4118.66 4148.793 4055.8 4088.433 4065.1 C 4067.553 4068.32 4048.413 4078.36 4028.223 4084.57 C 3961.643 4105.05 3883.393 4078.85 3842.583 4022.4 L 4190.193 3716.65 L 4524.723 4096.97 L 4207.833 4375.4" transform="matrix(0.529919, 0.848048, -0.848048, 0.529919, -0.000179, 0.000413)"/>
      <path id="path110" style="fill: rgb(22, 22, 50); fill-opacity: 1; fill-rule: nonzero; stroke: none; transform-box: fill-box; transform-origin: 50% 50%;" d="M 4420.681 4338.162 C 4395.641 4288.882 4340.371 4263.602 4279.611 4257.122 C 4255.811 4254.592 4233.691 4243.612 4217.881 4225.632 L 4158.991 4158.672 C 4112.571 4105.902 4117.721 4025.492 4170.491 3979.072 L 4228.321 3928.212 L 4515.571 4254.782 L 4420.681 4338.162" transform="matrix(0.529919, 0.848048, -0.848048, 0.529919, -0.000064, 0.000014)"/>
      <path id="path112" style="fill: rgb(235, 243, 251); fill-opacity: 1; fill-rule: nonzero; stroke: none; transform-box: fill-box; transform-origin: 50% 50%;" d="M 3298.617 3914.652 L 2540.157 4581.793 C 2525.647 4594.553 2524.217 4616.873 2536.977 4631.383 C 2549.747 4645.893 2572.057 4647.313 2586.567 4634.553 L 3345.028 3967.422 C 3359.538 3954.652 3360.968 3932.342 3348.208 3917.832 C 3335.438 3903.322 3313.127 3901.892 3298.617 3914.652" transform="matrix(0.529919, 0.848048, -0.848048, 0.529919, 0.000239, 0.000222)"/>
      <path id="path114" style="fill: rgb(248, 156, 28); fill-opacity: 1; fill-rule: nonzero; stroke: none; transform-box: fill-box; transform-origin: 50% 50%;" d="M 3611.419 5049.403 C 3618.679 5044.003 3625.819 5038.363 3632.729 5032.283 L 4220.569 4515.223 C 4357.169 4395.073 4370.619 4185.013 4250.479 4048.423 C 4130.329 3911.833 3920.269 3898.373 3783.679 4018.523 L 3195.839 4535.583 C 3188.929 4541.663 3182.419 4548.023 3176.139 4554.543 L 3611.419 5049.403" transform="matrix(0.529919, 0.848048, -0.848048, 0.529919, 0.000218, 0.00014)"/>
      <path id="path116" style="fill: rgb(22, 22, 50); fill-opacity: 1; fill-rule: nonzero; stroke: none; transform-box: fill-box; transform-origin: 50% 50%;" d="M 4297.6 4867.836 L 4249.17 4910.436 L 3812.269 4413.736 L 3860.709 4371.136 C 3997.3 4250.985 4207.36 4264.445 4327.51 4401.036 C 4447.65 4537.626 4434.2 4747.686 4297.6 4867.836" transform="matrix(0.529919, 0.848048, -0.848048, 0.529919, -0.000281, 0.000029)"/>
      <path id="path118" style="fill: rgb(22, 22, 50); fill-opacity: 1; fill-rule: nonzero; stroke: none; transform-box: fill-box; transform-origin: 50% 50%;" d="M 3140.751 4110.868 L 3035.221 4203.688 L 3342.691 4553.239 L 3448.211 4460.418 L 3140.751 4110.868" transform="matrix(0.529919, 0.848048, -0.848048, 0.529919, -0.000133, -0.000218)"/>
      <path id="path120" style="fill: rgb(243, 94, 67); fill-opacity: 1; fill-rule: nonzero; stroke: none; transform-box: fill-box; transform-origin: 50% 50%;" d="M 3875.234 4645.106 C 3840.064 4605.126 3779.144 4601.226 3739.164 4636.396 C 3699.184 4671.566 3695.274 4732.486 3730.444 4772.466 C 3765.614 4812.446 3826.534 4816.356 3866.514 4781.186 C 3906.504 4746.016 3910.404 4685.096 3875.234 4645.106" transform="matrix(0.529919, 0.848048, -0.848048, 0.529919, -0.000182, -0.000125)"/>
      <path id="path122" style="fill: rgb(243, 94, 67); fill-opacity: 1; fill-rule: nonzero; stroke: none; transform-box: fill-box; transform-origin: 50% 50%;" d="M 3952.619 4436.564 C 3932.969 4414.214 3898.919 4412.034 3876.579 4431.694 C 3854.239 4451.344 3852.049 4485.384 3871.709 4507.734 C 3891.359 4530.074 3925.409 4532.254 3947.749 4512.604 C 3970.089 4492.954 3972.269 4458.904 3952.619 4436.564" transform="matrix(0.529919, 0.848048, -0.848048, 0.529919, -0.000025, 0.000179)"/>
      <path id="path124" style="fill: rgb(22, 22, 50); fill-opacity: 1; fill-rule: nonzero; stroke: none; transform-box: fill-box; transform-origin: 50% 50%;" d="M 3713.388 4173.029 L 3456.168 4399.279 C 3446.188 4408.049 3445.208 4423.399 3453.988 4433.369 C 3462.758 4443.349 3478.098 4444.329 3488.078 4435.549 L 3745.288 4209.309 C 3755.268 4200.529 3756.248 4185.189 3747.478 4175.209 C 3738.698 4165.239 3723.358 4164.259 3713.388 4173.029" transform="matrix(0.529919, 0.848048, -0.848048, 0.529919, -0.000217, -0.000069)"/>
      <path id="path126" style="fill: rgb(22, 22, 50); fill-opacity: 1; fill-rule: nonzero; stroke: none; transform-box: fill-box; transform-origin: 50% 50%;" d="M 3696.175 4245.814 L 3438.965 4472.064 C 3428.985 4480.834 3428.005 4496.174 3436.775 4506.154 C 3445.555 4516.134 3460.895 4517.114 3470.865 4508.334 L 3728.085 4282.084 C 3738.065 4273.314 3739.045 4257.974 3730.265 4247.994 C 3721.495 4238.024 3706.155 4237.044 3696.175 4245.814" transform="matrix(0.529919, 0.848048, -0.848048, 0.529919, 0.000073, -0.000125)"/>
      <path id="path128" style="fill: rgb(35, 20, 18); fill-opacity: 1; fill-rule: nonzero; stroke: none; transform-box: fill-box; transform-origin: 50% 50%;" d="M 2542.289 4210.804 L 2536.249 4110.834 C 2536.029 4107.204 2538.799 4104.084 2542.429 4103.864 C 2546.059 4103.644 2549.179 4106.404 2549.399 4110.044 L 2555.439 4210.004 C 2555.659 4213.634 2552.899 4216.764 2549.269 4216.974 C 2545.629 4217.204 2542.509 4214.434 2542.289 4210.804" transform="matrix(0.529919, 0.848048, -0.848048, 0.529919, -0.000056, 0.000004)"/>
      <path id="path130" style="fill: rgb(35, 20, 18); fill-opacity: 1; fill-rule: nonzero; stroke: none; transform-box: fill-box; transform-origin: 50% 50%;" d="M 2632.329 4246.924 L 2626.289 4146.964 C 2626.069 4143.324 2628.829 4140.204 2632.469 4139.984 C 2636.099 4139.764 2639.219 4142.534 2639.439 4146.164 L 2645.479 4246.134 C 2645.699 4249.764 2642.939 4252.884 2639.299 4253.104 C 2635.669 4253.324 2632.549 4250.554 2632.329 4246.924" transform="matrix(0.529919, 0.848048, -0.848048, 0.529919, 0.000097, -0.000125)"/>
      <path id="path132" style="fill: rgb(22, 22, 50); fill-opacity: 1; fill-rule: nonzero; stroke: none; transform-box: fill-box; transform-origin: 50% 50%;" d="M 4068.381 4074.077 L 3999.131 4134.987 C 3981.451 4150.537 3979.701 4177.737 3995.261 4195.417 C 4010.811 4213.097 4038.001 4214.837 4055.691 4199.287 L 4124.941 4138.377 C 4142.621 4122.827 4144.361 4095.627 4128.811 4077.947 C 4113.251 4060.267 4086.061 4058.527 4068.381 4074.077" transform="matrix(0.529919, 0.848048, -0.848048, 0.529919, 0.000028, -0.00014)"/>
      <path id="path134" style="fill: rgb(22, 22, 50); fill-opacity: 1; fill-rule: nonzero; stroke: none; transform-box: fill-box; transform-origin: 50% 50%;" d="M 4097.302 3897.076 L 4028.052 3957.986 C 4010.362 3973.536 4008.622 4000.736 4024.182 4018.416 C 4039.732 4036.096 4066.922 4037.836 4084.612 4022.286 L 4153.852 3961.376 C 4171.542 3945.826 4173.282 3918.626 4157.732 3900.946 C 4142.172 3883.266 4114.982 3881.516 4097.302 3897.076" transform="matrix(0.529919, 0.848048, -0.848048, 0.529919, 0.00002, -0.000133)"/>
      <path id="path136" style="fill: rgb(22, 22, 50); fill-opacity: 1; fill-rule: nonzero; stroke: none; transform-box: fill-box; transform-origin: 50% 50%;" d="M 4362.589 3611.4 L 4065.809 3872.44 C 4039.969 3895.17 4037.419 3934.921 4060.159 3960.761 C 4082.889 3986.601 4122.629 3989.151 4148.479 3966.421 L 4445.249 3705.38 C 4471.099 3682.65 4473.639 3642.9 4450.909 3617.06 C 4428.179 3591.21 4388.429 3588.67 4362.589 3611.4" transform="matrix(0.529919, 0.848048, -0.848048, 0.529919, -0.000014, -0.000134)"/>
      <path id="path138" style="fill: rgb(193, 211, 239); fill-opacity: 1; fill-rule: nonzero; stroke: none; transform-box: fill-box; transform-origin: 50% 50%;" d="M 3864.639 4329.917 L 4301.54 4826.617 C 4304.32 4829.777 4304.02 4834.607 4300.85 4837.387 C 4297.69 4840.167 4292.87 4839.857 4290.09 4836.697 L 3853.189 4339.997 C 3850.409 4336.827 3850.709 4332.007 3853.879 4329.227 C 3857.039 4326.447 3861.859 4326.747 3864.639 4329.917" transform="matrix(0.529919, 0.848048, -0.848048, 0.529919, 0.000225, -0.000241)"/>
      <path id="path140" style="fill-opacity: 1; fill-rule: nonzero; stroke: none; transform-box: fill-box; transform-origin: 50% 50%; fill: rgb(50, 79, 170);" d="M 4026.569 2256.859 L 4250.009 1997.099 L 3482.018 1336.469 L 3258.573 1596.239 L 4026.569 2256.859" transform="matrix(0.681998, -0.731354, 0.731354, 0.681998, 0.000001, -0.000016)"/>
      <path id="path142" style="fill-opacity: 1; fill-rule: nonzero; stroke: none; transform-box: fill-box; transform-origin: 50% 50%; fill: rgb(50, 79, 170);" d="M 2867.402 2140.496 L 3238.633 2185.976 L 3446.778 1975.026 L 3334.004 1598.056 L 2982.461 1531.616 L 2931.824 1590.486 L 3171.609 1796.756 C 3213.809 1833.046 3218.633 1897.286 3182.324 1939.496 C 3146.027 1981.696 3081.789 1986.526 3039.594 1950.226 L 2799.809 1743.966 L 2749.168 1802.836 L 2867.402 2140.496" transform="matrix(0.681998, -0.731354, 0.731354, 0.681998, -0.000008, -0.000134)"/>
      <path id="path144" style="fill-opacity: 1; fill-rule: nonzero; stroke: none; transform-box: fill-box; transform-origin: 50% 50%; fill: rgb(50, 79, 170);" d="M 4311.308 1989.832 C 4430.138 2092.052 4598.428 2099.472 4723.968 2019.032 L 4493.748 1821.002 C 4472.648 1802.852 4460.908 1777.722 4458.958 1751.852 C 4457.018 1725.982 4464.868 1699.382 4483.018 1678.272 C 4519.328 1636.062 4583.568 1631.232 4625.768 1667.532 L 4855.147 1864.852 C 4913.817 1729.372 4880.867 1566.002 4763.057 1464.662 C 4618.048 1339.922 4399.338 1356.362 4274.598 1501.372 C 4149.858 1646.382 4166.298 1865.092 4311.308 1989.832" transform="matrix(0.681998, -0.731354, 0.731354, 0.681998, -0.000267, -0.000344)"/>
      <path id="path156" style="fill:#5870c0;fill-opacity:1;fill-rule:nonzero;stroke:none" d="M 409.857 2495.916 C 331.204 2495.916 267.442 2559.676 267.442 2638.326 C 267.442 2716.986 331.204 2780.746 409.857 2780.746 C 488.509 2780.746 552.275 2716.986 552.275 2638.326 C 552.275 2559.676 488.509 2495.916 409.857 2495.916 Z M 748.582 2753.456 L 677.497 2753.456 C 672.423 2765.246 666.587 2776.636 660.056 2787.556 L 702.892 2839.316 C 706.642 2843.846 706.001 2850.626 701.47 2854.376 L 588.942 2947.506 C 584.411 2951.256 577.638 2950.616 573.884 2946.086 L 536.38 2900.766 C 521.165 2908.116 505.204 2914.186 488.653 2918.816 L 488.653 2978.146 C 488.653 2984.026 483.837 2988.836 477.958 2988.836 L 331.896 2988.836 C 326.009 2988.836 321.196 2984.026 321.196 2978.146 L 321.196 2915.866 C 304.728 2910.616 288.9 2903.926 273.845 2895.966 L 232.368 2946.086 C 228.614 2950.616 221.841 2951.256 217.31 2947.506 L 104.782 2854.386 C 100.251 2850.636 99.61 2843.856 103.36 2839.326 L 154.161 2777.936 C 149.821 2769.996 145.825 2761.826 142.228 2753.456 L 45.56 2753.456 C 39.669 2753.456 34.86 2748.646 34.86 2742.756 L 34.86 2596.696 C 34.86 2590.816 39.669 2586.006 45.56 2586.006 L 123.275 2586.006 C 128.314 2558.226 137.286 2531.826 149.607 2507.406 L 149.61 2507.396 L 91.247 2436.876 C 87.497 2432.346 88.138 2425.566 92.669 2421.816 L 205.192 2328.696 C 209.728 2324.946 216.501 2325.586 220.255 2330.116 L 265.786 2385.136 C 283.216 2375.186 301.759 2367.006 321.196 2360.806 L 321.196 2283.006 C 321.196 2277.116 326.009 2272.306 331.896 2272.306 L 477.958 2272.306 C 483.837 2272.306 488.653 2277.116 488.653 2283.006 L 488.653 2357.856 C 509.767 2363.766 529.903 2371.996 548.782 2382.266 L 591.946 2330.116 C 595.696 2325.586 602.474 2324.946 607.005 2328.696 L 719.532 2421.816 C 724.062 2425.566 724.702 2432.346 720.952 2436.876 L 667.216 2501.806 C 681.036 2527.786 691.025 2556.096 696.446 2586.006 L 748.582 2586.006 C 754.462 2586.006 759.282 2590.816 759.282 2596.696 L 759.282 2742.756 C 759.282 2748.646 754.462 2753.456 748.582 2753.456"/>
      <path id="path158" style="fill:#2a262e;fill-opacity:1;fill-rule:nonzero;stroke:none" d="M 643.544 2631.796 L 631.286 2631.796 C 631.282 2570.836 606.614 2515.766 566.677 2475.806 C 526.716 2435.866 471.646 2411.206 410.692 2411.196 C 349.735 2411.206 294.665 2435.866 254.704 2475.806 C 214.767 2515.766 190.099 2570.836 190.095 2631.796 C 190.099 2692.746 214.767 2747.826 254.704 2787.776 C 294.665 2827.716 349.735 2852.386 410.692 2852.396 C 471.646 2852.386 526.716 2827.716 566.677 2787.776 C 606.614 2747.826 631.282 2692.746 631.286 2631.796 L 643.544 2631.796 L 655.798 2631.796 C 655.79 2767.166 546.064 2876.896 410.692 2876.906 C 275.317 2876.896 165.591 2767.166 165.583 2631.796 C 165.591 2496.416 275.317 2386.696 410.692 2386.686 C 546.064 2386.696 655.79 2496.416 655.798 2631.796 L 643.544 2631.796"/>
      <path id="path160" style="fill:#5870c0;fill-opacity:1;fill-rule:nonzero;stroke:none" d="m 5524.07,827.398 c -103.76,0 -187.86,84.114 -187.86,187.862 0,103.76 84.1,187.88 187.86,187.88 103.75,0 187.87,-84.12 187.87,-187.88 0,-103.748 -84.12,-187.862 -187.87,-187.862 z m 446.82,339.732 h -93.77 c -6.69,15.56 -14.39,30.57 -23.01,44.99 l 56.51,68.28 c 4.95,5.97 4.1,14.91 -1.88,19.86 l -148.43,122.85 c -5.98,4.94 -14.92,4.1 -19.87,-1.88 l -49.47,-59.78 c -20.07,9.7 -41.13,17.71 -62.96,23.81 v 78.26 c 0,7.76 -6.35,14.11 -14.11,14.11 h -192.67 c -7.77,0 -14.12,-6.35 -14.12,-14.11 v -82.15 c -21.72,-6.93 -42.6,-15.75 -62.46,-26.25 l -54.71,66.12 c -4.95,5.97 -13.89,6.82 -19.87,1.87 l -148.43,-122.84 c -5.98,-4.95 -6.83,-13.89 -1.88,-19.87 l 67.01,-80.97 v -0.01 c -5.72,-10.48 -10.99,-21.24 -15.74,-32.29 h -127.52 c -7.77,0 -14.11,-6.35 -14.11,-14.11 V 960.352 c 0,-7.762 6.34,-14.114 14.11,-14.114 h 102.52 c 6.64,-36.636 18.48,-71.468 34.73,-103.679 l 0.01,-0.008 -76.99,-93.031 c -4.95,-5.969 -4.1,-14.911 1.88,-19.86 l 148.43,-122.851 c 5.98,-4.938 14.92,-4.098 19.87,1.882 l 60.06,72.579 c 22.99,-13.122 47.45,-23.918 73.09,-32.098 V 546.539 c 0,-7.758 6.35,-14.109 14.12,-14.109 h 192.67 c 7.76,0 14.11,6.351 14.11,14.109 v 98.742 c 27.86,7.789 54.42,18.66 79.32,32.199 v 0.008 l 56.94,-68.797 c 4.95,-5.98 13.89,-6.82 19.86,-1.882 l 148.44,122.851 c 5.98,4.949 6.82,13.891 1.87,19.86 l -70.88,85.66 c 18.23,34.261 31.41,71.609 38.56,111.058 h 68.77 c 7.76,0 14.11,6.352 14.11,14.114 v 192.668 c 0,7.76 -6.35,14.11 -14.11,14.11"/>
      <path id="path162" style="fill:#2a262e;fill-opacity:1;fill-rule:nonzero;stroke:none" d="m 5832.33,1006.64 h -16.16 c -0.01,-80.402 -32.55,-153.05 -85.24,-205.761 -52.71,-52.688 -125.35,-85.219 -205.76,-85.231 -80.41,0.012 -153.06,32.543 -205.77,85.231 -52.68,52.711 -85.22,125.359 -85.23,205.761 0.01,80.41 32.55,153.06 85.23,205.77 52.71,52.69 125.36,85.22 205.77,85.23 80.41,-0.01 153.05,-32.54 205.76,-85.23 52.69,-52.71 85.23,-125.36 85.24,-205.77 h 16.16 16.17 c -0.01,178.58 -144.76,323.32 -323.33,323.33 -178.58,-0.01 -323.32,-144.75 -323.33,-323.33 0.01,-178.57 144.75,-323.308 323.33,-323.32 178.57,0.012 323.32,144.75 323.33,323.32 h -16.17"/>
      <path id="path164" style="fill-opacity: 1; fill-rule: nonzero; stroke: none; fill: rgb(88, 112, 192);" d="m 1358.47,3352.39 c 9.96,-34.49 -9.92,-70.52 -44.41,-80.48 -34.49,-9.97 -70.52,9.92 -80.48,44.4 -9.97,34.49 9.92,70.53 44.41,80.49 34.48,9.96 70.52,-9.92 80.48,-44.41"/>
      <path id="path166" style="fill-opacity: 1; fill-rule: nonzero; stroke: none; fill: rgb(88, 112, 192);" d="m 1675,3177.63 c 0,-60.75 -49.25,-110 -110,-110 -60.75,0 -110,49.25 -110,110 0,60.75 49.25,110 110,110 60.75,0 110,-49.25 110,-110"/>
      <path id="path168" style="fill:#f6dbd4;fill-opacity:1;fill-rule:nonzero;stroke:none" d="m 7265,247.629 c 0,-38.66 -31.34,-70 -70,-70 -38.66,0 -70,31.34 -70,70 0,38.66 31.34,70 70,70 38.66,0 70,-31.34 70,-70"/>
      <path id="path170" style="fill:#f6dbd4;fill-opacity:1;fill-rule:nonzero;stroke:none" d="m 755.004,357.629 c 0,-38.66 -31.344,-70 -70,-70 -38.66,0 -70,31.34 -70,70 0,38.66 31.34,70 70,70 38.656,0 70,-31.34 70,-70"/>
      <path id="path172" style="fill:#f6dbd4;fill-opacity:1;fill-rule:nonzero;stroke:none" d="m 4235,547.629 c 0,-38.66 -31.34,-70 -70,-70 -38.66,0 -70,31.34 -70,70 0,38.66 31.34,70 70,70 38.66,0 70,-31.34 70,-70"/>
      <path id="path174" style="fill-opacity: 1; fill-rule: nonzero; stroke: none; fill: rgb(88, 112, 192);" d="M 1456.749 3781.582 C 1456.749 3770.542 1447.799 3761.582 1436.749 3761.582 C 1425.709 3761.582 1416.749 3770.542 1416.749 3781.582 C 1416.749 3792.632 1425.709 3801.582 1436.749 3801.582 C 1447.799 3801.582 1456.749 3792.632 1456.749 3781.582"/>
      <path id="path176" style="fill:#f6dbd4;fill-opacity:1;fill-rule:nonzero;stroke:none" d="m 355.004,617.629 c 0,-16.57 -13.434,-30 -30,-30 -16.57,0 -30,13.43 -30,30 0,16.57 13.43,30 30,30 16.566,0 30,-13.43 30,-30"/>
      <path id="path178" style="fill:#f6dbd4;fill-opacity:1;fill-rule:nonzero;stroke:none" d="m 885.004,702.629 c 0,-35.899 -29.102,-65 -65,-65 -35.899,0 -65,29.101 -65,65 0,35.902 29.101,65 65,65 35.898,0 65,-29.098 65,-65"/>
      <path id="path180" style="fill: rgb(246, 219, 212); fill-opacity: 1; fill-rule: nonzero; stroke: none;" d="M 1224.649 4730.538 C 1224.649 4639.123 1154.279 4565.006 1067.486 4565.006 C 980.677 4565.006 910.323 4639.123 910.323 4730.538 C 910.323 4821.953 980.677 4896.069 1067.486 4896.069 C 1154.279 4896.069 1224.649 4821.953 1224.649 4730.538"/>
      <path id="path182" style="fill-opacity: 1; fill-rule: nonzero; stroke: none; fill: rgb(88, 112, 192);" d="m 2245,4127.63 c 0,-11.04 -8.95,-20 -20,-20 -11.04,0 -20,8.96 -20,20 0,11.05 8.96,20 20,20 11.05,0 20,-8.95 20,-20"/>
      <path id="path184" style="fill-opacity: 1; fill-rule: nonzero; stroke: none; fill: rgb(88, 112, 192);" d="m 2885,3692.63 c 0,-30.37 -24.62,-55 -55,-55 -30.37,0 -55,24.63 -55,55 0,30.38 24.63,55 55,55 30.38,0 55,-24.62 55,-55"/>
      <path id="path186" style="fill:#f6dbd4;fill-opacity:1;fill-rule:nonzero;stroke:none" d="m 6525,362.629 c 0,-30.367 -24.62,-55 -55,-55 -30.37,0 -55,24.633 -55,55 0,30.383 24.63,55 55,55 30.38,0 55,-24.617 55,-55"/>
      <path id="path188" style="fill:#f6dbd4;fill-opacity:1;fill-rule:nonzero;stroke:none" d="m 4635,242.629 c 0,-30.367 -24.62,-55 -55,-55 -30.37,0 -55,24.633 -55,55 0,30.383 24.63,55 55,55 30.38,0 55,-24.617 55,-55"/>
      <path id="path190" style="fill-opacity: 1; fill-rule: nonzero; stroke: none; fill: rgb(88, 112, 192);" d="M 2487.407 3963.941 C 2487.407 3944.611 2471.737 3928.941 2452.407 3928.941 C 2433.077 3928.941 2417.407 3944.611 2417.407 3963.941 C 2417.407 3983.271 2433.077 3998.941 2452.407 3998.941 C 2471.737 3998.941 2487.407 3983.271 2487.407 3963.941"/>
      <path id="path192" style="fill: rgb(246, 219, 212); fill-opacity: 1; fill-rule: nonzero; stroke: none; transform-box: fill-box; transform-origin: 50% 50%;" d="M 4117.689 4381.915 C 4117.689 4368.105 4106.499 4356.915 4092.689 4356.915 C 4078.879 4356.915 4067.689 4368.105 4067.689 4381.915 C 4067.689 4395.725 4078.879 4406.915 4092.689 4406.915 C 4106.499 4406.915 4117.689 4395.725 4117.689 4381.915" transform="matrix(0.970296, -0.241922, 0.241922, 0.970296, 0.000003, 0.000017)"/>
      <path id="path194" style="fill:#f6dbd4;fill-opacity:1;fill-rule:nonzero;stroke:none" d="m 4945,4792.63 c 0,-19.33 -15.67,-35 -35,-35 -19.33,0 -35,15.67 -35,35 0,19.33 15.67,35 35,35 19.33,0 35,-15.67 35,-35"/>
      <path id="path196" style="fill:#f6dbd4;fill-opacity:1;fill-rule:nonzero;stroke:none" d="m 5595,4652.63 c 0,-19.33 -15.67,-35 -35,-35 -19.33,0 -35,15.67 -35,35 0,19.33 15.67,35 35,35 19.33,0 35,-15.67 35,-35"/>
      <path id="path198" style="fill: rgb(246, 219, 212); fill-opacity: 1; fill-rule: nonzero; stroke: none; transform-box: fill-box; transform-origin: 50% 50%;" d="M 4268.343 4408.683 C 4268.343 4389.353 4252.673 4373.683 4233.343 4373.683 C 4214.013 4373.683 4198.343 4389.353 4198.343 4408.683 C 4198.343 4428.013 4214.013 4443.683 4233.343 4443.683 C 4252.673 4443.683 4268.343 4428.013 4268.343 4408.683" transform="matrix(0.970296, -0.241922, 0.241922, 0.970296, -0.000007, 0.000006)"/>
      <path id="path200" style="fill:#f6dbd4;fill-opacity:1;fill-rule:nonzero;stroke:none" d="m 5515,202.629 c 0,-24.848 -20.15,-45 -45,-45 -24.85,0 -45,20.152 -45,45 0,24.851 20.15,45 45,45 24.85,0 45,-20.149 45,-45"/>
      <path id="path202" style="fill:#f6dbd4;fill-opacity:1;fill-rule:nonzero;stroke:none" d="m 5885,4737.63 c 0,-27.61 -22.38,-50 -50,-50 -27.61,0 -50,22.39 -50,50 0,27.62 22.39,50 50,50 27.62,0 50,-22.38 50,-50"/>
      <g transform="scale(10)" id="g246"/>
      <g id="g258">
        <g clip-path="url(#clipPath264)" id="g260">
          <path id="path266" style="fill:#f4ede5;fill-opacity:1;fill-rule:nonzero;stroke:none" d="m -105.215,1454.33 c 171.9455,91.84 356.375,164.67 549.078,185.99 36.387,4.03 73.133,6.11 109.891,6.11 157.816,0 315.656,-38.28 446.276,-124.19 114.26,-75.12 201.42,-182.66 261.95,-305.94 60.54,-123.26 94.36,-262.21 101.96,-399.57 1.32,-23.73 1.95,-47.441 1.95,-71.128 0.02,-250.821 -71.06,-499.114 -155.71,-737.87153 -1.87,-5.28906 0.9,-11.08985 6.19,-12.96875 5.28,-1.8711 11.09,0.88672 12.96,6.179686 C 1314.22,240.492 1386.18,490.91 1386.2,745.602 c 0,24.046 -0.64,48.136 -1.97,72.25 -7.76,139.91 -42.15,281.398 -104.01,407.398 -61.86,125.98 -151.26,236.53 -269.03,313.97 -134.639,88.51 -296.389,127.52 -457.436,127.52 -37.52,0 -75.012,-2.12 -112.125,-6.23 -196.348,-21.75 -383.0977,-95.7 -556.414,-188.26 -4.949,-2.65 -6.817,-8.8 -4.176,-13.75 2.645,-4.95 8.797,-6.82 13.746,-4.17"/>
        </g>
      </g>
      <path id="path268" style="fill-opacity: 1; fill-rule: nonzero; stroke: none; fill: rgb(88, 112, 192);" d="m 2330.8,2885.36 -111.57,111.31 165.93,166.32 111.57,-111.3 -165.93,-166.33"/>
      <path id="path270" style="fill-opacity: 1; fill-rule: nonzero; stroke: none; fill: rgb(88, 112, 192);" d="M 1929.486 1640.194 L 1896.626 1672.984 C 1869.186 1700.354 1869.136 1744.794 1896.506 1772.234 L 2110.676 1986.904 C 2138.056 2014.344 2182.486 2014.404 2209.926 1987.024 L 2242.796 1954.244 C 2270.236 1926.864 2270.286 1882.424 2242.906 1854.994 L 2028.736 1640.314 C 2001.356 1612.874 1956.926 1612.824 1929.486 1640.194"/>
      <path id="path272" style="fill:#c1d3ef;fill-opacity:1;fill-rule:nonzero;stroke:none" d="M 725.346 846.244 L 638.566 932.814 L 1726.896 2023.704 L 1813.666 1937.124 L 725.346 846.244"/>
      <path id="path274" style="fill:#161632;fill-opacity:1;fill-rule:nonzero;stroke:none" d="M 1099.006 1394.334 L 638.566 932.814 L 725.346 846.244 L 1185.776 1307.764 L 1099.006 1394.334"/>
      <path id="path276" style="fill-opacity: 1; fill-rule: nonzero; stroke: none; fill: rgb(88, 112, 192);" d="M 2121.006 2174.684 L 1976.126 2319.224 C 1970.156 2325.174 1963.456 2329.944 1956.326 2333.574 L 1733.016 2556.364 C 1666.756 2622.474 1559.886 2623.764 1492.056 2559.264 L 1431.536 2501.734 L 1532.466 2399.054 C 1581.956 2432.134 1668.036 2402.334 1705.966 2328.144 C 1733.776 2273.764 1730.816 2201.174 1677.246 2130.954 L 1563.746 2017.194 C 1533.076 1986.454 1533.136 1936.674 1563.876 1906.004 L 1708.756 1761.464 C 1739.496 1730.804 1789.276 1730.864 1819.936 1761.594 L 2121.136 2063.504 C 2151.796 2094.234 2151.736 2144.014 2121.006 2174.684"/>
      <path id="path278" style="fill:#f8a31a;fill-opacity:1;fill-rule:nonzero;stroke:none" d="M -48.922 143.024 C -124.43 218.354 -124.574 340.634 -49.242 416.134 L 667.506 1134.574 C 742.836 1210.084 865.116 1210.224 940.626 1134.894 C 1016.136 1059.564 1016.276 937.284 940.946 861.784 L 224.191 143.344 C 148.863 67.834 26.586 67.694 -48.922 143.024"/>
      <path id="path280" style="fill:#f35e43;fill-opacity:1;fill-rule:nonzero;stroke:none" d="M 68.754 260.974 C 52.469 277.224 52.437 303.594 68.683 319.884 L 699.856 952.534 C 716.106 968.824 742.476 968.854 758.766 952.604 C 775.046 936.354 775.076 909.984 758.836 893.694 L 127.66 261.044 C 111.414 244.754 85.039 244.724 68.754 260.974"/>
      <path id="path282" style="fill:#f35e43;fill-opacity:1;fill-rule:nonzero;stroke:none" d="M 186.679 164.724 C 170.394 180.964 170.367 207.344 186.613 223.624 L 817.786 856.284 C 834.026 872.564 860.406 872.594 876.686 856.354 C 892.976 840.104 893.006 813.734 876.756 797.444 L 245.59 164.784 C 229.34 148.504 202.969 148.474 186.679 164.724"/>
      <path id="path284" style="fill:#f35e43;fill-opacity:1;fill-rule:nonzero;stroke:none" d="M -27.778 378.674 C -44.063 394.924 -44.094 421.294 -27.848 437.584 L 603.324 1070.234 C 619.57 1086.524 645.946 1086.554 662.226 1070.304 C 678.516 1054.064 678.546 1027.684 662.296 1011.404 L 31.129 378.744 C 14.883 362.464 -11.492 362.424 -27.778 378.674"/>
      <path id="path286" style="fill:#250f0f;fill-opacity:1;fill-rule:nonzero;stroke:none" d="M -88.699 344.414 L 158.121 98.174 C 159.765 96.534 162.437 96.534 164.082 98.184 C 165.726 99.834 165.722 102.504 164.074 104.144 L -82.746 350.384 C -84.395 352.034 -87.063 352.024 -88.707 350.384 C -90.352 348.734 -90.348 346.064 -88.699 344.414"/>
      <path id="path288" style="fill:#c1d3ef;fill-opacity:1;fill-rule:nonzero;stroke:none" d="M 1511.486 2429.584 C 1517.456 2437.994 1525.796 2444.454 1535.606 2449.304 C 1545.406 2454.144 1556.626 2457.294 1567.826 2459.034 C 1575.716 2460.254 1583.616 2460.854 1591.506 2460.854 C 1629.426 2460.864 1667.006 2447.114 1698.396 2424.074 C 1729.776 2401.064 1754.836 2368.824 1767.866 2332.424 C 1776.136 2309.374 1780.026 2285.144 1780.026 2260.734 C 1780.066 2199.634 1755.456 2137.414 1714.366 2091.164 C 1688.126 2061.534 1654.896 2036.894 1627.286 2005.194 C 1602.976 1977.134 1583.046 1941.374 1582.956 1902.954 C 1582.956 1897.694 1583.336 1892.404 1584.146 1887.104 C 1584.856 1882.384 1589.266 1879.144 1593.986 1879.854 C 1598.696 1880.574 1601.946 1884.984 1601.226 1889.694 C 1600.556 1894.114 1600.236 1898.534 1600.236 1902.954 C 1600.146 1935.094 1617.606 1967.774 1640.326 1993.864 C 1666.206 2023.734 1699.376 2048.344 1727.286 2079.694 C 1771.136 2129.134 1797.276 2195.014 1797.306 2260.734 C 1797.306 2286.984 1793.116 2313.204 1784.136 2338.254 C 1769.796 2378.204 1742.626 2413.034 1708.616 2438.004 C 1674.596 2462.964 1633.626 2478.114 1591.506 2478.124 C 1582.756 2478.124 1573.956 2477.474 1565.176 2476.104 C 1552.596 2474.154 1539.756 2470.614 1527.956 2464.794 C 1516.176 2458.984 1505.376 2450.804 1497.396 2439.594 C 1494.636 2435.704 1495.546 2430.314 1499.436 2427.544 C 1503.326 2424.784 1508.716 2425.694 1511.486 2429.584"/>
      <g id="g290">
        <g clip-path="url(#clipPath296)" id="g292">
          <path id="path298" style="fill:#324faa;fill-opacity:1;fill-rule:nonzero;stroke:none" d="M 2852.82,-918.738 1242.24,561.898 c -44.72,41.114 -47.65,110.692 -6.54,155.403 l 920.67,1001.469 c 41.12,44.72 110.69,47.65 155.41,6.53 L 3922.36,244.66 c 44.72,-41.109 47.65,-110.691 6.54,-155.3983 L 3008.22,-912.211 c -41.11,-44.719 -110.68,-47.648 -155.4,-6.527"/>
          <path id="path300" style="fill:#282e68;fill-opacity:1;fill-rule:nonzero;stroke:none" d="m 3413.77,-208.18 c -81.11,47.539 -175.96,59.942 -268.52,59.692 -174.46,-0.492 -347.79,-40.922 -522.48,-23.981 -198.32,19.25 -371.7,143.2112 -482.41,305.699 C 1912.29,467.949 1965.2,923.238 1721.8,1246.05 L 1250.23,733.102 c -49.13,-53.442 -45.64,-136.59 7.81,-185.731 L 2836.26,-903.52 c 53.86,-49.519 137.67,-46 187.19,7.872 l 517.64,563.058 c -32.96,49.84 -74.38,93.379 -127.32,124.41"/>
          <path id="path302" style="fill:#f9c617;fill-opacity:1;fill-rule:nonzero;stroke:none" d="m 2740.99,306.93 -4.74,4.359 c -30.18,-32.828 -71.33,-49.437 -112.67,-49.449 -37.02,0.012 -74.09,13.332 -103.5,40.359 -32.82,30.18 -49.44,71.332 -49.44,112.672 0,37.02 13.33,74.09 40.36,103.5 30.18,32.82 71.32,49.438 112.66,49.438 37.02,0 74.09,-13.329 103.5,-40.36 32.82,-30.179 49.44,-71.328 49.45,-112.66 -0.01,-37.027 -13.33,-74.098 -40.36,-103.5 l 4.74,-4.359 4.74,-4.36 c 29.28,31.852 43.76,72.121 43.76,112.219 0.01,44.77 -18.05,89.453 -53.61,122.141 -31.85,29.281 -72.12,43.769 -112.22,43.761 -44.77,0.008 -89.46,-18.039 -122.14,-53.609 -29.29,-31.844 -43.77,-72.113 -43.76,-112.211 -0.01,-44.769 18.04,-89.461 53.61,-122.152 31.84,-29.278 72.11,-43.77 112.21,-43.758 44.77,-0.012 89.46,18.051 122.15,53.609 l -4.74,4.36"/>
          <path id="path304" style="fill:#fcfeff;fill-opacity:1;fill-rule:nonzero;stroke:none" d="M 2175.7,1648.1 1342.54,741.82 c -17.11,-18.601 -25.58,-42.14 -25.57,-65.558 -0.01,-26.16 10.54,-52.274 31.32,-71.371 l 522.54,-480.391 5.6,6.09 -522.54,480.39 c -19.02,17.489 -28.64,41.321 -28.65,65.282 0.01,21.449 7.73,42.918 23.39,59.957 l 833.16,906.281 -6.09,5.6"/>
          <path id="path306" style="fill:#fcfeff;fill-opacity:1;fill-rule:nonzero;stroke:none" d="m 3524.25,492.652 277.67,-255.273 c 26.47,-24.34 39.88,-57.539 39.88,-90.879 0,-29.852 -10.75,-59.7578 -32.55,-83.4805 l -535.26,-582.2185 6.09,-5.602 535.26,582.2229 c 23.24,25.289 34.74,57.2501 34.74,89.0781 0,35.551 -14.33,71.02 -42.56,96.969 l -277.67,255.269 -5.6,-6.086"/>
          <path id="path308" style="fill:#f9c617;fill-opacity:1;fill-rule:nonzero;stroke:none" d="m 2828.6,569.949 c -14.89,-16.211 -40.11,-17.269 -56.31,-2.367 -16.21,14.887 -17.27,40.109 -2.37,56.309 14.9,16.211 40.11,17.269 56.32,2.371 16.2,-14.903 17.26,-40.114 2.36,-56.313"/>
        </g>
      </g>
    </g>
  </g>
</svg>