<?xml version="1.0" encoding="utf-8"?>
<svg version="1.1" viewBox="0 0 1600 792" width="520" height="520" xmlns="http://www.w3.org/2000/svg">
  <path transform="translate(642,126)" d="m0 0c18.5-1.58 35.1 6.58 50 17 2.63 2.47 4.79 5.15 7 8 1.14 1.23 2.29 2.46 3.44 3.69 6.06 6.91 10.5 15.1 14.6 23.3 1.16 1.38 1.16 1.38 4.33 1.11 1.47 0 2.95 0 4.42-0.01 0.78 0 1.55-0.01 2.35-0.01 2.49 0 4.98-0.01 7.46-0.03 1.68 0 3.37-0.01 5.05-0.01 4.13-0.01 8.26-0.03 12.4-0.05v-4c7.27-0.02 14.5-0.04 21.8-0.05 3.38-0.01 6.75-0.01 10.1-0.03 3.88-0.01 7.76-0.01 11.6-0.02 1.22 0 2.43-0.01 3.69-0.01h3.39c1.49-0.01 1.49-0.01 3-0.01 2.37 0.12 2.37 0.12 4.37 1.12 0.41 2.97 0.41 2.97 0.62 6.95 0.04 0.72 0.07 1.44 0.11 2.17 0.4 8.23 0.41 16.4 0.39 24.7v5.22c0.01 4.73 0 9.46 0 14.2-0.01 5.11-0.01 10.2-0.01 15.4v26.6c-0.01 12.8-0.02 25.6-0.02 38.4 0 20.8-0.01 41.5-0.01 62.3-0.01 20.2-0.02 40.3-0.03 60.5v3.77 18.7c-0.01 51.7-0.03 103-0.05 155-15.5 0.07-30.9 0.12-46.4 0.16-7.18 0.01-14.4 0.03-21.5 0.07-6.26 0.03-12.5 0.05-18.8 0.05-3.31 0.01-6.62 0.02-9.93 0.04-3.71 0.02-7.42 0.02-11.1 0.02-1.62 0.02-1.62 0.02-3.28 0.03-13.9-0.05-26.1-4.12-36-14-4.78-4.89-4.78-4.89-5.94-8.38l-2-2c-2.84-10.7-2.29-22-2.27-32.9-0.01-1.98-0.01-3.97-0.02-5.95-0.01-5.35-0.01-10.7-0.01-16 0-4.48-0.01-8.96-0.01-13.4-0.01-10.6-0.01-21.1-0.01-31.7 0.01-10.9 0-21.8-0.02-32.6-0.02-9.36-0.03-18.7-0.02-28.1 0-5.58 0-11.2-0.02-16.7-0.01-5.25-0.01-10.5 0-15.8 0.01-1.92 0-3.84 0-5.76-0.07-15.9 0.78-29 12.3-41 8.5-7.87 18-11.2 29.6-11.2h2.16c2.29 0 4.57 0.02 6.85 0.03 1.42 0.01 2.84 0.01 4.27 0.01 5.23 0.01 10.5 0.04 15.7 0.07 11.7 0.04 23.4 0.08 35.5 0.12l-1-102c-3.97-1.32-7.7-1.01-11.8-0.88-0.87 0.02-1.73 0.05-2.61 0.07-2.76 0.08-5.51 0.16-8.26 0.25-1.86 0.05-3.73 0.1-5.59 0.16-4.58 0.12-9.15 0.26-13.7 0.4-0.39 0.78-0.39 0.78-0.79 1.59-11 21.9-24.8 38.9-48.6 47.4-8.23 2.29-17 4-25.6 4v-3h-2v-44c-9.03-0.21-9.03-0.21-18.1-0.39-1.69-0.05-1.69-0.05-3.41-0.1-1.16-0.02-2.31-0.05-3.5-0.08-3.24-0.46-4.64-1.24-7.02-3.43 0.49-5.48 0.49-5.48 2.65-7.68 3.05-1.71 5.16-1.66 8.65-1.61 1.63 0.01 1.63 0.01 3.29 0.02 1.37 0.03 2.75 0.05 4.16 0.08 4.37 0.06 8.75 0.13 13.2 0.19v-40c-8.66 0.57-8.66 0.57-17.3 1.2-8.65 0.44-8.65 0.44-11.7-1.43-2.15-2.46-3.02-4.25-3.02-7.52 1-2.25 1-2.25 4-4.25 2.91-0.23 2.91-0.23 6.42-0.2 1.25 0.01 2.51 0.02 3.8 0.02 1.31 0.02 2.62 0.04 3.97 0.06 1.33 0.01 2.67 0.01 4 0.02 3.27 0.03 6.54 0.06 9.81 0.1 0-0.56 0-1.11-0.01-1.69-0.02-5.79-0.03-11.6-0.04-17.4-0.01-2.16-0.02-4.33-0.03-6.49-0.01-3.1-0.01-6.21-0.02-9.31 0-0.97-0.01-1.94-0.01-2.94v-2.73c-0.01-0.79-0.01-1.58-0.01-2.4 0.12-2.07 0.12-2.07 1.12-5.07zm80.1 266c-11 0.84-22.1 0.59-33.1 0.5v2c2.64 2.4 2.64 2.4 6 3v2c1.11 0.62 1.11 0.62 2.25 1.25 3.34 2.12 5.29 4.1 6.75 7.75 0.57 4.24 0.49 8.44 0.44 12.7v3.88c-0.01 3.5-0.04 7-0.07 10.5-0.03 3.68-0.03 7.36-0.04 11-0.02 6.97-0.05 14-0.1 20.9-0.06 10.2-0.1 20.4-0.14 30.6 0 0.75 0 1.5-0.01 2.28 0 1.5-0.01 3-0.01 4.5-0.02 4.36-0.04 8.73-0.07 13.1l-0.03 6.21c-0.01 2.51-0.03 5.02-0.05 7.53-0.03 6.93 0.02 13.9 1.08 20.7 1.03 1.25 1.03 1.25 3.21 1.12 0.97 0 1.95 0 2.95-0.01h3.34c1.2 0 2.39-0.01 3.63-0.01 1.22 0 2.44-0.01 3.69-0.01 3.92 0 7.83-0.01 11.7-0.03 2.65 0 5.29-0.01 7.94-0.01 6.5-0.01 13-0.03 19.5-0.05 0.02-20.7 0.04-41.4 0.05-62.1 0.01-9.62 0.01-19.2 0.03-28.8 0.01-8.38 0.01-16.8 0.01-25.1 0.01-4.44 0.01-8.88 0.02-13.3v-12.5c0-1.54 0.01-3.07 0.01-4.61v-6.26-3.55c0.18-2.54 0.18-2.54-1.12-3.61-12.6-2.2-25.1-2.49-37.9-1.5zm-19.1 150v9h1v-9h-1z" fill="#F98534"/>
  <path transform="translate(595,127)" d="m0 0c1.31 4.35 1.14 8.83 1.13 13.3v2.5c0.01 2.74 0.01 5.47 0 8.21 0 1.91 0 3.83 0.01 5.75 0 4.03 0 8.06-0.01 12.1-0.01 5.1 0 10.2 0 15.3 0.01 3.97 0.01 7.94 0 11.9 0 1.87 0 3.75 0.01 5.63 0.01 11.3-0.26 22.5-0.91 33.8-0.39 6.98-0.38 14-0.35 21-0.01 1.37-0.01 2.74-0.02 4.11 0 1.29 0.01 2.59 0.01 3.92v3.49c0.11 2.53 0.44 4.56 1.13 6.98 0.07 1.75 0.09 3.5 0.06 5.25-0.01 0.89-0.02 1.78-0.02 2.7-0.02 1.02-0.02 1.02-0.04 2.05-3.05 0.93-5.41 1.02-8.56 0.62-0.77-0.09-1.53-0.18-2.32-0.27-2.12-0.35-2.12-0.35-5.12-1.35-0.71-0.08-1.41-0.17-2.14-0.25-17-2.07-32.4-13.6-43.9-25.8-1-1.67-2-3.33-3-5-0.83-0.8-1.65-1.61-2.5-2.44-4.14-4.24-5.86-9.31-7.75-14.8-0.71-1.94-0.71-1.94-2.75-3.73-3.11-0.18-3.11-0.18-6.76 0.02-0.66 0.03-1.32 0.05-2.01 0.08-2.12 0.08-4.24 0.18-6.35 0.28-1.44 0.05-2.88 0.11-4.31 0.17-3.53 0.14-7.05 0.29-10.6 0.45l-1 7c-54.9 0.5-54.9 0.5-111 1l3 2v2c0.84 0.4 0.84 0.4 1.69 0.81 6.87 3.53 6.87 3.53 9.31 7.19 0.32 2.6 0.32 2.6 0.41 5.85 0.04 1.27 0.08 2.55 0.12 3.87 0.03 1.45 0.06 2.89 0.09 4.34 0.03 1.11 0.03 1.11 0.06 2.24 0.31 12.2 0.35 24.4 0.34 36.7v2.24c0 7.55-0.01 15.1-0.05 22.7-0.01 2.87-0.02 5.74-0.03 8.62 0 2.01-0.02 4.02-0.03 6.03 0 1.2 0 2.41-0.01 3.65-0.01 1.59-0.01 1.59-0.01 3.21-0.01 2.73-0.01 2.73 1.11 5.62 32.7 0.5 32.7 0.5 66 1l-1 3c-0.06 1.36-0.06 2.72-0.02 4.08 0.02 0.82 0.04 1.64 0.06 2.48 0.04 1.33 0.04 1.33 0.08 2.69 0.02 0.93 0.05 1.85 0.07 2.81 0.08 2.98 0.16 5.96 0.25 8.94 0.08 2.92 0.16 5.85 0.23 8.77 0.05 1.81 0.1 3.63 0.15 5.45 0.25 9.27 0.18 18.5 0.18 27.8h-83v2c0.74 0.27 1.49 0.54 2.25 0.81 5.29 2.29 10.2 6.23 12.9 11.4 1.05 3.37 1.09 6.18 1.06 9.71v2.08c-0.02 2.29-0.04 4.59-0.06 6.88-0.02 1.64-0.02 3.29-0.03 4.94-0.03 4.46-0.07 8.92-0.11 13.4-0.04 4.67-0.07 9.33-0.1 14-0.06 8.84-0.13 17.7-0.2 26.5-0.08 10.1-0.16 20.1-0.23 30.2-0.14 20.7-0.3 41.4-0.47 62.1h-56c-1.46-2.92-1.12-5.48-1.11-8.75 0-0.7 0-1.41 0.01-2.13 0-2.39 0.01-4.78 0.02-7.16 0-1.72 0.01-3.44 0.01-5.16l0.03-11.2c0.02-6.1 0.04-12.2 0.05-18.3 0.02-7.7 0.04-15.4 0.06-23.1 0.04-15.2 0.07-30.3 0.09-45.4 0-2.38 0.01-4.76 0.01-7.15 0.01-4.82 0.02-9.65 0.02-14.5 0.02-12.4 0.04-24.8 0.06-37.2 0.01-1.25 0.01-2.49 0.01-3.78 0.04-20.2 0.09-40.4 0.15-60.6 0.06-20.7 0.1-41.4 0.11-62.2 0.02-12.8 0.04-25.6 0.1-38.4 0.03-8.77 0.05-17.5 0.04-26.3 0-5.06 0.01-10.1 0.04-15.2 0.03-4.63 0.04-9.26 0.02-13.9 0-1.67 0-3.34 0.02-5.02 0.11-9.49-0.34-17-6.74-24.6-0.56-0.54-1.12-1.08-1.7-1.63-1.3-1.37-1.3-1.37-1.3-3.37 20.9-0.12 41.9-0.2 62.8-0.26 9.72-0.02 19.4-0.06 29.2-0.12 8.47-0.05 16.9-0.08 25.4-0.09 4.49-0.01 8.98-0.02 13.5-0.06 4.22-0.03 8.44-0.04 12.7-0.04 1.55 0 3.1-0.01 4.65-0.03 2.12-0.02 4.23-0.01 6.35 0 1.18-0.01 2.37-0.01 3.59-0.02 2.88 0.62 2.88 0.62 4.58 3.12 0.43 0.83 0.86 1.65 1.3 2.5 2.65 0.46 4.65 0.59 7.29 0.49 0.71-0.01 1.42-0.02 2.14-0.02 2.26-0.03 4.51-0.09 6.76-0.16 1.53-0.02 3.05-0.05 4.58-0.07 3.75-0.05 7.49-0.14 11.2-0.24 0.27-0.67 0.53-1.34 0.8-2.03 0.36-0.89 0.71-1.78 1.08-2.7 0.34-0.87 0.69-1.75 1.05-2.66 2.34-5.71 4.47-10.4 9.07-14.6 1.07-1.24 2.13-2.49 3.19-3.75 10.5-12 22.9-20.1 38.1-24.8 1.22-0.38 1.22-0.38 2.46-0.76 5.84-1.65 13.6-3.52 19.2-0.68z" fill="#FA8634"/>
  <path transform="translate(835,175)" d="m0 0c5.55-0.03 11.1-0.04 16.6-0.05l5.64-0.03c32.3-0.14 32.3-0.14 36.7 2.08 0.69 23.3 1.09 46.5 1.06 69.8v3.43c-0.01 8.1-0.04 16.2-0.06 24.3l-0.06 24.7c0 3.23-0.01 6.47-0.03 9.71 0 1.98 0 3.97-0.01 5.95-0.01 1.32-0.01 1.32-0.01 2.66 0 5.86 0.43 11.6 1.11 17.4 0.89 0.01 1.78 0.01 2.7 0.02 8.45 0.06 16.9 0.13 25.3 0.22 4.34 0.04 8.68 0.08 13 0.11 4.19 0.02 8.39 0.06 12.6 0.11 1.6 0.02 3.19 0.03 4.78 0.04 23.2 0.1 23.2 0.1 31.6 8.5 0.78 0.75 1.56 1.49 2.37 2.26 10.8 11.2 14.8 23.1 14.8 38.4v2.92c0.01 3.22 0 6.45 0 9.68v6.94c0.01 6.28 0.01 12.6 0 18.8 0 6.57 0 13.1 0.01 19.7 0 11.7-0.01 23.5-0.01 35.2-0.01 10.6 0 21.3 0 31.9 0.01 12.4 0.01 24.7 0 37.1 0 6.54 0 13.1 0.01 19.6 0 6.14 0 12.3-0.01 18.4v6.79c0.01 3.07 0 6.15 0 9.22v2.75c-0.02 6.14-0.02 6.14-1.13 7.25-1.53 0.09-3.07 0.12-4.61 0.11h-2.97c-1.07 0-2.14-0.01-3.24-0.01-1.63 0-1.63 0-3.29-0.01-3.48 0-6.97-0.01-10.4-0.03-2.36 0-4.71-0.01-7.07-0.01-5.79-0.01-11.6-0.03-17.4-0.05-1.28-3.85-1.15-7.48-1.16-11.5-0.01-1.31-0.01-1.31-0.01-2.65-0.02-2.95-0.03-5.9-0.04-8.85 0-2.1-0.01-4.21-0.03-6.32-0.02-5.74-0.04-11.5-0.06-17.2-0.03-5.99-0.05-12-0.08-18-0.05-11.3-0.09-22.7-0.14-34-0.05-12.9-0.1-25.8-0.16-38.8-0.11-26.6-0.22-53.2-0.32-79.7h-71l5 3c1.56 1.44 1.56 1.44 3 3 0.72 0.68 1.44 1.36 2.19 2.06 1.81 1.94 1.81 1.94 1.81 3.94h2c1.57 3.14 1.13 6.5 1.12 9.95v2.51c0 2.8 0 5.6-0.01 8.4v6c0 5.45 0 10.9-0.01 16.3 0 5.69-0.01 11.4-0.01 17.1 0 10.8-0.01 21.5-0.02 32.3-0.01 12.3-0.01 24.5-0.02 36.8-0.01 25.2-0.03 50.4-0.05 75.7h-49c-1.45-2.91-1.12-5.44-1.11-8.69 0-0.7-0.01-1.39-0.01-2.11 0-2.37 0.01-4.73 0.02-7.1v-5.11c0.01-4.69 0.02-9.39 0.03-14.1 0.01-5.06 0.01-10.1 0.02-15.2 0.01-8.78 0.02-17.6 0.04-26.3 0.02-13.9 0.03-27.7 0.04-41.6 0.01-4.75 0.01-9.49 0.02-14.2v-3.59c0.01-13.5 0.02-27 0.04-40.5v-3.74l0.09-60c0.03-20.5 0.05-41 0.06-61.6 0.01-12.7 0.03-25.3 0.05-38 0.02-8.68 0.03-17.4 0.03-26 0-5.01 0.01-10 0.02-15 0.02-4.59 0.02-9.18 0.01-13.8 0-1.66 0.01-3.32 0.02-4.98 0.11-15.2 0.11-15.2-7.06-28.3-3.31-3.89-3.31-3.89-3.31-6.06zm165 194 1 3z" fill="#FA8634"/>
  <path transform="translate(528 336)" d="m0 0c1.9-0 3.81-0.01 5.71-0.02 3.98 0 7.95 0 11.9 0.01 5.06 0.01 10.1-0.01 15.2-0.04 3.93-0.02 7.86-0.02 11.8-0.01 1.86 0 3.73-0.01 5.59-0.02 12.5-0.07 24.5 0.12 35.2 7.51v2c0.6 0.26 1.2 0.52 1.82 0.78 6.55 3.66 10.4 12.5 13.2 19.2 1.05 4.22 1.21 8.38 1.31 12.7 0.02 0.75 0.04 1.51 0.07 2.28 0.06 2.49 0.12 4.99 0.18 7.48 0.02 0.86 0.04 1.72 0.06 2.61 0.43 18.1 0.53 36.2 0.52 54.2-0.01 4.26 0 8.51 0 12.8 0 7.09 0 14.2-0.01 21.3v24.5c0.01 7.1 0.01 14.2 0.01 21.3-0.01 4.21-0.01 8.42 0 12.6 0 3.92 0 7.85-0.01 11.8v4.31c0.01 1.96 0 3.92 0 5.88v3.32c-0.12 2.77-0.53 5.25-1.13 7.94-0.12 1.92-0.22 3.84-0.31 5.75-0.93 11-5.78 17.7-13.7 25.2-11.6 9.76-26.5 9.62-40.8 9.57-1.9 0.01-3.8 0.01-5.7 0.02-3.97 0.01-7.93 0-11.9-0.01-5.04-0.02-10.1 0.01-15.1 0.04-3.92 0.02-7.84 0.02-11.8 0.01-1.86 0-3.72 0.01-5.58 0.02-15.2 0.11-27.5-1.73-39.1-12.6-5-5.15-5-5.15-5-8h-2c-0.43-1.11-0.43-1.11-0.87-2.25-0.98-2.63-0.98-2.63-2.16-4.37-1.47-3.6-1.45-7.25-1.58-11.1-0.04-0.95-0.08-1.9-0.12-2.87-0.55-16.1-0.43-32.1-0.44-48.2v-8.74c-0.01-10.2-0.01-20.4-0.01-30.6 0-9.46-0.01-18.9-0.03-28.4-0.01-8.18-0.02-16.4-0.02-24.5 0-4.86 0-9.72-0.01-14.6-0.01-4.56-0.01-9.13 0-13.7 0-1.66 0-3.32-0.01-4.98-0.03-8.52 0.22-17 1.07-25.4 0.07-0.74 0.13-1.48 0.2-2.24 0.79-6.94 3.52-11.8 7.98-17 0.57-0.67 1.15-1.34 1.74-2.04 12.2-13.1 27.1-13.4 43.9-13.4zm-20.6 59.4c0.76 0.44 1.53 0.87 2.31 1.32 2.31 1.44 3.8 2.79 5.69 4.68 0.66 0.23 1.32 0.46 2 0.69 3.3 2.17 4.07 5.64 5 9.31 0.4 3.9 0.37 7.77 0.33 11.7 0 1.14-0.01 2.29-0.01 3.47 0 3.79-0.03 7.57-0.06 11.4-0.01 2.65-0.02 5.3-0.02 7.95-0.02 6.27-0.04 12.5-0.08 18.8-0.06 11.2-0.1 22.4-0.13 33.5-0.01 4.53-0.04 9.05-0.06 13.6-0.07 13.9 0.19 27.7 1.03 41.6 17.7 5.91 37.3 0.36 56 0v-159c-2.84-1.42-5.26-1.13-8.44-1.14-0.66-0.01-1.32-0.01-2-0.01-2.18-0.01-4.37-0.01-6.56-0.01-1.52-0.01-3.03-0.01-4.55-0.01-3.18-0.01-6.36-0.01-9.54-0.01-4.08 0-8.17-0.02-12.2-0.03-3.13-0.01-6.27-0.02-9.4-0.02-1.5 0-3.01 0-4.51-0.01-2.11-0.01-4.21-0.01-6.31 0h-3.63c-2.95-0.05-2.95-0.05-4.81 2.24zm121 15v155h1v-155h-1z" fill="#F88534"/>
  <path transform="translate(1019,336)" d="m0 0c16.8-0.05 33.6-0.08 50.4-0.1 7.8-0.01 15.6-0.03 23.4-0.05 6.8-0.02 13.6-0.03 20.4-0.04 3.6 0 7.19-0.01 10.8-0.02 4.03-0.02 8.05-0.02 12.1-0.02 1.19 0 2.37-0.01 3.59-0.02 8.56 0.02 16.4 0.49 23.8 5.19 0.81 0.5 1.62 1.01 2.46 1.52 1.95 1.39 3.5 2.83 5.16 4.54 0.99 0.5 0.99 0.5 2 1 3 5.42 3 5.42 3 8h2c0.83 1.45 1.64 2.91 2.44 4.38 0.45 0.81 0.9 1.62 1.37 2.46 2.74 7.29 2.34 15.5 2.31 23.2v2.92c0 3.2 0 6.4-0.01 9.61v6.92c0 6.24 0 12.5-0.01 18.7 0 6.53-0.01 13.1-0.01 19.6 0 11-0.01 21.9-0.01 32.9l-0.03 33.8v2.11 10.5c-0.01 29-0.03 57.9-0.05 86.8h-49c-1.28-3.83-1.15-7.45-1.16-11.4-0.01-1.31-0.01-1.31-0.01-2.64-0.02-2.93-0.03-5.87-0.04-8.8 0-2.1-0.01-4.2-0.03-6.3l-0.06-17.1c-0.03-5.96-0.05-11.9-0.08-17.9-0.05-11.3-0.09-22.6-0.14-33.9-0.05-12.9-0.1-25.7-0.16-38.6-0.11-26.4-0.22-52.9-0.32-79.4-35.1-0.5-35.1-0.5-71-1v2c0.76 0.27 1.53 0.54 2.31 0.81 2.66 1.18 3.8 2.06 5.69 4.19 0.66 0.64 1.32 1.28 2 1.94 0.66 0.68 1.32 1.36 2 2.06 0.53 0.53 1.06 1.07 1.6 1.62 2.01 3.42 1.8 6.68 1.76 10.5 0 0.83 0.01 1.66 0.01 2.51 0 2.78-0.01 5.56-0.03 8.34v5.97c0 5.41-0.01 10.8-0.04 16.2-0.01 5.65-0.02 11.3-0.02 17-0.01 10.7-0.03 21.4-0.06 32.1-0.04 12.2-0.05 24.4-0.07 36.6-0.03 25.1-0.08 50.1-0.15 75.2-6.8 0.08-13.6 0.13-20.4 0.16-2.31 0.02-4.63 0.04-6.94 0.07-3.32 0.03-6.64 0.05-9.96 0.06-1.56 0.03-1.56 0.03-3.16 0.05h-2.91c-1.27 0.01-1.27 0.01-2.57 0.02-0.68-0.12-1.36-0.24-2.06-0.36-2.09-3.13-2.25-3.8-2.24-7.35v-2.71c0-0.98 0.01-1.97 0.02-2.98v-3.16c0-3.52 0.02-7.03 0.04-10.6 0.01-2.51 0.01-5.02 0.01-7.53 0.01-5.42 0.03-10.8 0.05-16.3 0.03-7.85 0.05-15.7 0.06-23.5 0.02-12.7 0.04-25.5 0.07-38.2 0.01-1.15 0.01-1.15 0.01-2.31 0.02-8.5 0.04-17 0.07-25.5 0.01-3.08 0.02-6.17 0.03-9.25v-2.3c0.04-12.7 0.06-25.4 0.08-38 0.01-7.82 0.03-15.6 0.07-23.5 0.02-6 0.03-12 0.03-18l0.03-7.38c0.02-3.35 0.02-6.71 0.02-10.1 0.01-0.98 0.02-1.95 0.03-2.96-0.04-7.04-1.77-11.6-6.07-17.2-2.31-3.25-2.31-3.25-2.31-5.25z" fill="#F98534"/>
  <path transform="translate(1200,338)" d="m0 0c7.64-0.05 15.3-0.09 22.9-0.11 2.6-0.01 5.19-0.02 7.79-0.04 3.73-0.03 7.46-0.04 11.2-0.05 1.17-0.01 2.34-0.02 3.54-0.03h3.27c0.96 0 1.91-0.01 2.89-0.01 2.41 0.24 2.41 0.24 5.41 2.24l-1 1c0.09 1.84 0.25 3.68 0.43 5.51 0.87 11.1 0.7 22.2 0.68 33.3v7.49 16c-0.01 7.73-0.02 15.5-0.02 23.2 0 12.5-0.01 25.1-0.01 37.6-0.01 12.2-0.02 24.4-0.03 36.5v2.27 11.3c-0.01 31.2-0.03 62.5-0.05 93.7h-48c-1.16-2.32-1.12-3.63-1.12-6.21-0.01-0.88-0.01-1.77-0.01-2.69 0-0.98 0-1.96 0.01-2.97-0.01-1.03-0.01-2.07-0.01-3.14v-10.5-7.5c-0.01-4.69-0.01-9.39-0.01-14.1 0-9.23-0.01-18.5-0.03-27.7 0-1.45 0-2.91-0.01-4.36 0-2.2 0-4.4-0.01-6.6-0.01-8.31-0.03-16.6-0.04-24.9v-2.3c-0.02-12.3-0.02-24.6-0.02-36.9 0-12.6-0.02-25.2-0.05-37.9-0.02-7.78-0.03-15.6-0.01-23.4 0.01-5.98-0.01-12-0.04-17.9 0-2.45 0-4.89 0.01-7.34 0.01-3.35 0-6.69-0.03-10 0.01-0.97 0.03-1.94 0.04-2.93-0.11-7.48-2.38-12.4-7.67-17.7v-3z" fill="#FA8534"/>
  <path d="m0 0c18.5-1.58 35.1 6.58 50 17 2.63 2.47 4.79 5.15 7 8 1.14 1.23 2.29 2.46 3.44 3.69 6.06 6.91 10.5 15.1 14.6 23.3 2.03 2.03 6.23 1.14 9.02 1.14l4.98 0.06c2.62 0.03 5.24 0.05 7.87 0.05 2.53 0 5.05 0.04 7.58 0.08 0.78-0.01 1.56-0.02 2.37-0.02 4.27 0.09 5.74 0.32 9.15 3.17 1.01 1.25 1.01 1.25 2.03 2.52l1 1c0.05 1.65 0.04 3.29 0 4.94-0.05 5.34 0.17 10.6 0.5 15.9 0.34 5.7 0.63 11.4 0.75 17.1 0.04 1.67 0.04 1.67 0.08 3.38-0.11 0.86-0.22 1.73-0.33 2.62-3.03 2.02-3.69 2.26-7.1 2.32-1.24 0.03-1.24 0.03-2.49 0.06-0.88 0.01-1.76 0.02-2.67 0.03-0.91 0.02-1.81 0.04-2.75 0.06-2.89 0.06-5.78 0.11-8.68 0.15-1.96 0.04-3.92 0.08-5.88 0.12-4.81 0.1-9.62 0.18-14.4 0.26-0.29 0.58-0.59 1.16-0.89 1.76-11 21.8-24.8 38.8-48.5 47.2-8.23 2.29-17 4-25.6 4v-3h-2v-44c-9.03-0.21-9.03-0.21-18.1-0.39-1.69-0.05-1.69-0.05-3.41-0.1-1.16-0.02-2.31-0.05-3.5-0.08-3.24-0.46-4.64-1.24-7.02-3.43 0.49-5.48 0.49-5.48 2.65-7.68 3.05-1.71 5.16-1.66 8.65-1.61 1.63 0.01 1.63 0.01 3.29 0.02 1.37 0.03 2.75 0.05 4.16 0.08 4.37 0.06 8.75 0.13 13.2 0.19v-40c-8.66 0.57-8.66 0.57-17.3 1.2-8.65 0.44-8.65 0.44-11.7-1.43-2.15-2.46-3.02-4.25-3.02-7.52 1-2.25 1-2.25 4-4.25 2.91-0.23 2.91-0.23 6.42-0.2 1.25 0.01 2.51 0.02 3.8 0.02 1.31 0.02 2.62 0.04 3.97 0.06 1.33 0.01 2.67 0.01 4 0.02 3.27 0.03 6.54 0.06 9.81 0.1 0-0.56 0-1.11-0.01-1.69-0.02-5.79-0.03-11.6-0.04-17.4-0.01-2.16-0.02-4.33-0.03-6.49-0.01-3.1-0.01-6.21-0.02-9.31 0-0.97-0.01-1.94-0.01-2.94v-2.73c-0.01-0.79-0.01-1.58-0.01-2.4 0.12-2.07 0.12-2.07 1.12-5.07z" fill="#879EB3" transform="translate(642,126)"/>
  <path transform="translate(595,127)" d="m0 0c1.31 4.35 1.14 8.83 1.13 13.3v2.5c0.01 2.74 0.01 5.47 0 8.21 0 1.91 0 3.83 0.01 5.75 0 4.03 0 8.06-0.01 12.1-0.01 5.1 0 10.2 0 15.3 0.01 3.97 0.01 7.94 0 11.9 0 1.87 0 3.75 0.01 5.63 0.01 11.3-0.26 22.5-0.91 33.8-0.39 6.98-0.38 14-0.35 21-0.01 1.37-0.01 2.74-0.02 4.11 0 1.29 0.01 2.59 0.01 3.92v3.49c0.11 2.53 0.44 4.56 1.13 6.98 0.07 1.75 0.09 3.5 0.06 5.25-0.01 0.89-0.02 1.78-0.02 2.7-0.02 0.68-0.03 1.35-0.04 2.05-3.05 0.93-5.41 1.02-8.56 0.62-1.15-0.13-1.15-0.13-2.32-0.27-2.12-0.35-2.12-0.35-5.12-1.35-0.71-0.08-1.41-0.17-2.14-0.25-17-2.07-32.4-13.6-43.9-25.8-1-1.67-2-3.33-3-5-0.83-0.8-1.65-1.61-2.5-2.44-4.14-4.24-5.86-9.31-7.75-14.8-0.71-1.94-0.71-1.94-2.75-3.73-3.11-0.28-3.11-0.28-6.76-0.2-1.21 0.01-2.42 0.01-3.67 0.02-2.33 0.03-2.33 0.03-4.69 0.06-4.91 0.04-9.82 0.08-14.9 0.12l-1-53h33l4-10c2.27-4.96 3.97-8.32 8-12 1.07-1.24 2.13-2.49 3.19-3.75 10.5-12 22.9-20.1 38.1-24.8 0.81-0.25 1.62-0.51 2.46-0.76 5.84-1.65 13.6-3.52 19.2-0.68z" fill="#879EB3"/>
  <path transform="translate(1211 255)" d="m0 0c0.85 0 1.7 0 2.58 0.01h2.91c1.57 0 1.57 0 3.17 0.01 1.06 0 2.12 0.01 3.22 0.01 3.41 0 6.83 0.02 10.2 0.03 2.31 0 4.62 0.01 6.92 0.01 5.68 0.01 11.4 0.03 17 0.05l-1 2c-0.02 2.66 0.03 5.29 0.12 7.95 0.02 0.8 0.05 1.6 0.07 2.43 0.08 2.58 0.16 5.16 0.24 7.75l0.24 7.59c0.05 1.58 0.1 3.15 0.15 4.73 0.24 7.86 0.18 15.7 0.18 23.6h-48c-1-2.99-1.13-4.97-1.13-8.1-0.01-1.04-0.01-2.07-0.01-3.14v-3.39-3.48c0-2.43 0-4.85 0.01-7.28 0-3.73 0-7.46-0.01-11.2v-7.06-3.41c0-1.03 0-2.06 0.01-3.12v-2.77c0.17-2.72 0.35-3.02 3.07-3.19z" fill="#F78434"/>
  <path transform="translate(620 174)" d="m0 0c0.66 0 1.32 0.01 2 0.01 2.11 0.01 4.22 0.03 6.33 0.06 1.43 0.01 2.87 0.02 4.3 0.03 3.5 0.02 7.01 0.06 10.5 0.1 0.5 7.42 0.5 7.42 1 15l-2-1v-2c-1.23 0.09-1.23 0.09-2.49 0.18-3.73 0.26-7.46 0.48-11.2 0.69-1.94 0.15-1.94 0.15-3.92 0.3-9.33 0.48-9.33 0.48-12.4-1.41-2.14-2.45-2.99-4.25-2.99-7.51 2.23-5.01 6.03-4.49 10.9-4.45z" fill="#6A7988"/>
  <path transform="translate(620 226)" d="m0 0c1.72-0.01 1.72-0.01 3.47-0.01 1.2 0.01 2.39 0.02 3.62 0.03 1.2-0.01 2.39-0.02 3.63-0.03 1.71 0 1.71 0 3.47 0.01 1.05 0 2.09 0.01 3.17 0.01 2.67 0.39 2.67 0.39 4.51 1.79 2.16 2.98 1.39 6.04 1.16 9.6-2.61 2.61-9.71 1.23-13.2 1.24-2.05 0.01-4.09 0.04-6.14 0.07-1.29 0.01-2.58 0.01-3.91 0.02-1.78 0.01-1.78 0.01-3.6 0.02-3.34-0.38-4.69-1.09-7.1-3.35 0.49-5.49 0.49-5.49 2.67-7.68 2.94-1.67 4.93-1.71 8.3-1.72z" fill="#728293"/>
  <path transform="translate(580,456)" d="m0 0 2 1c0.02 10.3 0.04 20.6 0.05 30.9 0.01 4.78 0.01 9.56 0.03 14.3 0.01 4.61 0.01 9.23 0.01 13.8 0.01 1.75 0.01 3.51 0.02 5.27v7.41c0.01 0.72 0.01 1.44 0.01 2.18-0.01 4.77-0.45 9.35-1.12 14.1h-1c-0.95-20.3-1.11-40.5-1.12-60.8-0.01-1.28-0.01-2.55-0.01-3.87-0.01-3.65-0.01-7.31 0-11-0.01-1.68-0.01-1.68-0.01-3.39 0-1.02 0.01-2.04 0.01-3.09v-2.72c0.13-2.16 0.13-2.16 1.13-4.16z" fill="#EB8841"/>
  <path transform="translate(334,337)" d="m0 0h1c1.01 15.2 1.16 30.4 1.12 45.7v5.96c-0.04 45.1-0.63 90.2-1.12 135h-1c-0.2-19.2-0.39-38.3-0.56-57.5-0.01-0.7-0.02-1.41-0.02-2.13-0.39-42.5-0.59-84.9 0.58-127z" fill="#EB8841"/>
  <path transform="translate(580,456)" d="m0 0 2 1c0.08 2.79 0.14 5.58 0.19 8.38 0.02 0.79 0.05 1.58 0.07 2.4 0.03 2.08-0.11 4.15-0.26 6.22l-3 2c-0.03-2.96-0.05-5.92-0.06-8.88-0.01-0.84-0.02-1.68-0.03-2.55 0-0.8 0-1.61-0.01-2.44 0-0.74-0.01-1.48-0.01-2.25 0.11-1.88 0.11-1.88 1.11-3.88z" fill="#EC873F"/>
  <path transform="translate(1200,338)" d="m0 0h2v2c0.76-0.06 1.53-0.12 2.31-0.19 2.69 0.19 2.69 0.19 4.5 1.57 1.19 1.62 1.19 1.62 1.19 3.62h-2v4h-2c-1.37-1.97-2.7-3.98-4-6l-2-2v-3z" fill="#DC7F3C"/>
  <path transform="translate(580,394)" d="m0 0 2 1c0.03 2.69 0.05 5.37 0.06 8.06 0.01 0.75 0.02 1.51 0.03 2.28 0.02 4.67-0.31 9.06-1.09 13.7h-1c-0.99-8.49-0.89-16.5 0-25z" fill="#EA8740"/>
  <path transform="translate(579,431)" d="m0 0h3v14c-2-1-2-1-3-4-0.07-1.73-0.08-3.46-0.06-5.19 0.01-0.9 0.02-1.8 0.02-2.73 0.02-0.69 0.03-1.37 0.04-2.08z" fill="#EB8841"/>
</svg>