<?xml version="1.0" encoding="utf-8"?>
<svg viewBox="0 0 4000 2666.6667" height="2666.6667" width="4000" id="svg2" version="1.1" xmlns="http://www.w3.org/2000/svg">
  <g transform="matrix(1.3333333,0,0,-1.3333333,0,2666.6667)" id="g10">
    <g transform="scale(0.1)" id="g12">
      <g transform="scale(1.84049)" id="g14"/>
      <g transform="scale(1.75067)" id="g18">
        <path id="path20" style="fill:#ebf2f9;fill-opacity:1;fill-rule:nonzero;stroke:none" d="m 13103.7,979.34 c 0,0 1451.9,34.5 2072.3,914.51 1124,1594.13 617.5,2992.11 -1383.5,2888.09 -914.6,-47.58 -1409.5,749.32 -1939.3,1546.25 -766.8,1153.43 -1606.8,2306.86 -3899.04,899.78 -272.47,-167.25 -653.06,-166.64 -1068.62,-166.03 -867.95,1.28 -1888.45,2.55 -2394.52,-1526.11 C 4313.07,4998.26 2976.65,4960.85 2112.94,4529.76 758.116,3853.56 1140.72,968.088 2420.64,956.721 3700.55,945.353 13103.7,979.34 13103.7,979.34"/>
      </g>
      <g transform="scale(1.09658)" id="g22">
        <path id="path24" style="fill:#d2e4ff;fill-opacity:1;fill-rule:nonzero;stroke:none" d="m 9514.58,14367.3 360.58,-31.9 v -865.9 l -834.71,897.8 z M 5080.11,16223.8 9789.26,14805.2 H 4195.52 c -9.57,56.3 -58.72,99.5 -117.62,99.5 h -952.84 z m 4975.69,-2838.5 h -110.97 v 1013.9 l -34.83,3 v 403 l 10.12,33.3 -4851.56,1461.5 -2025.26,-1366.4 19.48,-28.9 c -65.69,0 -119.43,-53.7 -119.43,-119.4 v -696.7 c 0,-65.7 53.74,-119.4 119.43,-119.4 H 4077.9 c 65.68,0 119.43,53.7 119.43,119.4 v 278.7 h 676.74 V 1548.91 h 796.18 V 14367.3 h 3275.06 l 912.98,-982 h -187.22 c -65.75,0 -119.46,-53.7 -119.46,-119.4 v -119.4 c 0,-65.7 53.71,-119.4 119.46,-119.4 h 384.73 c 65.8,0 119.5,53.7 119.5,119.4 v 119.4 c 0,65.7 -53.7,119.4 -119.5,119.4"/>
      </g>
      <path id="path26" style="fill:#e27f2b;fill-opacity:1;fill-rule:nonzero;stroke:none" d="M 9028.6,1700.8 H 5187.5 c 185,136.5 848.9,612.6 1450.2,869.7 249.2,106.5 487.6,175.4 676.7,166.9 599.8,-26.9 1440.5,-777.1 1714.2,-1036.6"/>
      <path id="path28" style="fill:#e69d43;fill-opacity:1;fill-rule:nonzero;stroke:none" d="M 7807.6,1700.8 H 3966.5 c 261.6,193.1 1481.4,1065.5 2126.9,1036.6 168.4,-7.6 355.8,-72.2 544.3,-166.9 482.9,-242.6 973,-683 1169.9,-869.7"/>
      <g transform="scale(1.62459)" id="g30">
        <path id="path32" style="fill:#ebf2f9;fill-opacity:1;fill-rule:nonzero;stroke:none" d="m 13090.5,7876.15 v 400.93 l 166.9,14.76 h 219.5 z m 2220.1,1275.26 905.3,-610.74 h -441.3 c -27.2,0 -49.9,-20.02 -54.4,-46.08 h -2589.9 z m 934.1,-610.74 v 0 l 9,13.37 -937.7,632.67 -2246.3,-676.68 4.6,-15.44 v -186.56 l -16.1,-1.43 v -469.41 h -51.3 c -30.5,0 -55.4,-24.88 -55.4,-55.3 v -55.29 c 0,-30.41 24.9,-55.29 55.4,-55.29 h 178.1 c 30.4,0 55.3,24.88 55.3,55.29 v 55.29 c 0,30.42 -24.9,55.3 -55.3,55.3 h -86.7 l 422.7,454.65 h 1516.4 v -5935 h 368.7 v 5935 h 313.3 v -129.02 c 0,-30.41 24.8,-55.29 55.2,-55.29 h 470.1 c 30.4,0 55.3,24.88 55.3,55.29 v 322.55 c 0,30.42 -24.9,55.3 -55.3,55.3"/>
      </g>
      <g transform="scale(1.17588)" id="g34">
        <path id="path36" style="fill:#d2e4ff;fill-opacity:1;fill-rule:nonzero;stroke:none" d="M 12015.2,14766.8 V 1433.4 H 16300 v 13333.4 h -4284.8"/>
      </g>
      <g transform="scale(1.0905)" id="g38">
        <path id="path40" style="fill:#c0dbff;fill-opacity:1;fill-rule:nonzero;stroke:none" d="m 16300,11832.8 h -3344.1 v 2106.3 H 16300 v -2106.3"/>
      </g>
      <g transform="scale(1.0905)" id="g42">
        <path id="path44" style="fill:#c0dbff;fill-opacity:1;fill-rule:nonzero;stroke:none" d="M 16300,7975.95 H 12955.9 V 10082.2 H 16300 V 7975.95"/>
      </g>
      <g transform="scale(1.0905)" id="g46">
        <path id="path48" style="fill:#c0dbff;fill-opacity:1;fill-rule:nonzero;stroke:none" d="M 16300,4168.81 H 12955.9 V 6275.09 H 16300 V 4168.81"/>
      </g>
      <g transform="scale(1.56121)" id="g50">
        <path id="path52" style="fill:#aed3ff;fill-opacity:1;fill-rule:nonzero;stroke:none" d="m 16300,2921.32 h -435.6 v 1360.47 h -3587.5 v 6840.31 h -891.4 V 1073.97 h 891.4 v 5.64 h 3587.5 435.6 v 1841.71"/>
      </g>
      <g transform="scale(1.28267)" id="g58">
        <path id="path60" style="fill:#233862;fill-opacity:1;fill-rule:nonzero;stroke:none" d="m 15754.8,1324.11 c 0,0 7.8,169.18 53.2,259.92 45.4,90.75 408.3,28.38 408.3,28.38 0,0 83.7,-151.4 72.4,-287.52 l -533.9,-0.78"/>
      </g>
      <g transform="scale(1.20602)" id="g62">
        <path id="path64" style="fill:#233862;fill-opacity:1;fill-rule:nonzero;stroke:none" d="m 15720.1,1408.27 c 0,0 8.3,179.93 56.5,276.45 48.3,96.51 434.4,30.18 434.4,30.18 0,0 89,-161.03 76.9,-305.8 l -567.8,-0.83"/>
      </g>
      <g transform="scale(1.25828)" id="g66">
        <path id="path68" style="fill:#d9935c;fill-opacity:1;fill-rule:nonzero;stroke:none" d="m 16300,8669.33 c -46.2,-33.48 -464.6,-251.87 -464.6,-251.87 l -441.2,314.58 c 0,0 134,19.51 137.5,20.56 39.8,11.1 38,117.87 43.1,231.57 0.7,17.52 1.7,35.21 3,52.74 l 432,15.69 0.4,-5.38 c 0.4,-5.46 0.8,-11.19 1.2,-17.17 l 0.8,-12.31 c 0.3,-4.25 0.7,-8.5 1,-12.92 7.8,-99.92 24.5,-241.04 56.4,-257.51 18.1,-9.37 141.1,-7.9 230.4,-77.98"/>
      </g>
      <g transform="scale(1.23614)" id="g70">
        <path id="path72" style="fill:#cb7d45;fill-opacity:1;fill-rule:nonzero;stroke:none" d="m 16300,9166.11 c -36.2,-72.58 -117.1,-198.92 -236.9,-194.76 -114.4,4.06 -179.5,108.06 -209.3,173.74 0.7,17.84 1.7,35.84 3,53.68 l 439.8,15.98 0.3,-5.48 1.2,-17.48 0.9,-12.53 c 0.4,-4.33 0.7,-8.66 1,-13.15"/>
      </g>
      <g transform="scale(1.23363)" id="g74">
        <path id="path76" style="fill:#2b478b;fill-opacity:1;fill-rule:nonzero;stroke:none" d="m 15836.7,10199.9 c 0,0 212.5,211.7 463.3,-4.3 0,0 -149.1,31 -463.3,4.3"/>
      </g>
      <g transform="scale(1.25552)" id="g78">
        <path id="path80" style="fill:#b64c41;fill-opacity:1;fill-rule:nonzero;stroke:none" d="m 15483.1,9257.17 c 0,0 -66.1,136.94 -106.9,296.39 -29.2,113.84 -2.5,545.94 431.9,516.54 0,0 125.8,-2.9 249,-73.35 98,-56.02 242.9,-181.97 120.3,-566.46 l -29.6,-129 -664.7,-44.12"/>
      </g>
      <g transform="scale(1.24818)" id="g82">
        <path id="path84" style="fill:#d9935c;fill-opacity:1;fill-rule:nonzero;stroke:none" d="m 16185.4,9129 c -112.9,-107.85 -253,-251.55 -555,14.22 -59.1,51.99 -55.1,131.93 -58.6,246.74 -4.1,135.9 -36.8,219.11 -21.6,297.46 18,93.72 98.1,136.06 264.5,150.54 305.4,26.51 459.7,-42.29 439.2,-193.84 -45.7,-338.25 46.1,-405.45 -68.5,-515.12"/>
      </g>
      <g transform="scale(1.24698)" id="g86">
        <path id="path88" style="fill:#b64c41;fill-opacity:1;fill-rule:nonzero;stroke:none" d="m 15951.8,9853.02 c 0,0 181.2,3.81 222.6,-56.77 41.4,-60.58 47.1,-128.38 67.9,-162.53 20.9,-34.16 17.4,-72.49 17.4,-72.49 l 40.3,270.48 -245.3,48.76 -102.9,-27.45"/>
      </g>
      <g transform="scale(1.3012)" id="g90">
        <path id="path92" style="fill:#9ed9f0;fill-opacity:1;fill-rule:nonzero;stroke:none" d="m 16300,8012.58 c 0,0 -74.2,-218.57 -374.8,-258.57 -8.2,-1.1 -16.5,-2.02 -25.1,-2.86 h -1224.4 c 0,0 -2.4,0.67 -6.6,2.02 -47.5,15.09 -340.1,115.32 -370.9,302.77 0,0 153.8,315.86 271.2,355.03 34.3,11.49 81.7,20.04 131.5,26.5 50.9,6.54 104.5,10.91 149.4,13.76 62,3.86 107.4,4.86 107.4,4.86 0,0 95.4,-193.32 327.5,-190.47 232,2.77 285.8,187.62 285.8,187.62 0,0 65.2,-1.85 151.7,-11.24 47.7,-5.11 101.9,-12.5 155.3,-23.15 90.5,-18.03 178.7,-45.2 229.1,-86.13 134.2,-109.04 192.9,-320.14 192.9,-320.14"/>
      </g>
      <g transform="scale(1.29925)" id="g94">
        <path id="path96" style="fill:#2b478b;fill-opacity:1;fill-rule:nonzero;stroke:none" d="m 16032.8,6331.68 c -13,72.5 -32.4,182.87 -47.7,279.93 0.1,1.31 45.4,548.01 62.2,640.29 16.9,92.36 -97.3,595.1 -97.3,595.1 -26.5,76.94 -71.6,100.45 -106.1,100.45 l 58,484.08 c -53.5,10.67 -107.7,18.07 -155.5,23.19 l -27.8,-507.27 -0.5,-7.3 c -63.5,-3.53 -142.8,-7.81 -216.6,-11.09 -73.9,-3.36 -142.3,-5.8 -184.4,-5.8 -85.6,0 -281.9,9.83 -412.4,16.97 l -0.5,7.22 -31.5,516.51 c -45,-2.86 -98.7,-7.23 -149.7,-13.78 l 55.5,-502.73 v -0.08 c -36.6,0 -78.6,-64.85 -84.4,-100.88 l -5.6,-157.26 c -27.6,-79.2 -84.8,-255.15 -94.3,-378.6 -12.6,-163.17 55.6,-731.04 56.1,-734.97 -2.5,-67.65 -7.3,-154.16 -16.6,-237.83 -51.2,-138.85 -269.7,-784.53 -247.5,-1652.72 20.8,-810.55 33,-2195.43 128.5,-2867.82 15.6,-109.14 33.2,-199.51 53.5,-265.54 10.3,-33.33 39.1,-57.5 73.6,-62.27 109.5,-15.24 356.4,-43.18 462.6,-4.54 50.9,18.55 87.3,301.17 113.1,665.62 24.7,349.28 39.6,773.83 47.8,1112.64 l 0.1,0.23 c 6.6,270.08 9.2,485.75 9.2,565.56 0,180.57 42.7,710.41 56.8,1022.06 0.3,8.85 13.2,8.93 13.8,0.15 v -0.08 c 21.4,-369.98 96.1,-931.07 97.4,-1055.76 2.8,-302.41 -14.9,-2245.15 117.3,-2310.42 101,-49.88 339.2,-12.16 452.9,3.23 41.2,5.54 75,34.87 86.6,74.74 142.2,488.82 154.7,2187.42 178.7,3122.2 21.9,855.95 -190.1,1495.71 -245.3,1646.57"/>
      </g>
      <g transform="scale(1.19252)" id="g98">
        <path id="path100" style="fill:#d9935c;fill-opacity:1;fill-rule:nonzero;stroke:none" d="m 16254.2,6517.48 c -45.7,-36.64 -195.1,-21.29 -253.1,27.43 -58,48.88 -173.9,33.62 -201.3,51.9 -1.9,1.26 -541.5,640.67 -600,909.76 -59,271.53 314.5,1018.76 420.2,1222.47 78.2,-165.28 338.9,-254.51 385.3,-269.24 4.7,-1.47 7.2,-2.2 7.2,-2.2 h 14.5 c -88,-237.75 -351,-665.75 -452.3,-827.01 -25.1,-40.08 -28.3,-90.23 -8.4,-133.24 130.2,-279.08 257.5,-514.46 313.2,-677.48 11.1,-18.11 34.8,-50.57 63.6,-46.12 39.8,6.12 167.8,33.54 231.9,-60.96 64,-94.68 125,-158.74 79.2,-195.31"/>
      </g>
      <g transform="scale(1.2572)" id="g102">
        <path id="path104" style="fill:#ffa412;fill-opacity:1;fill-rule:nonzero;stroke:none" d="m 16197,10002.6 c 0,0 -33.3,45.3 -93.1,96 -9.4,8.2 -19.6,16.5 -30.4,24.6 -110,83.6 -285.8,165.3 -497.8,76.8 -57.4,-23.9 -105.2,-56.5 -144.9,-94.1 -9.4,-8.9 -18.3,-18.1 -26.7,-27.5 -183.8,-203.94 -168.2,-523.79 -168.2,-523.79 l 1060.7,11.34 c 3.4,296.13 -99.6,436.65 -99.6,436.65"/>
      </g>
      <g transform="scale(1.25694)" id="g106">
        <path id="path108" style="fill:#e27f2b;fill-opacity:1;fill-rule:nonzero;stroke:none" d="m 16002,9564.77 c -3.1,44.63 -23.3,410.68 105.3,535.83 -9.5,8.3 -7.2,6.8 -18.1,15.1 -137.1,-143.97 -145.9,-504.44 -145.4,-551.55 l -339.1,-3.62 c -10.1,259.84 -153.4,518.57 -170.7,547.47 -9.4,-8.9 -11.1,-10.7 -19.6,-20.1 24.9,-43.8 118.6,-294.29 127.6,-528.04 l -302.9,-3.24 c 0,0 282.5,-73.05 495.3,-70.41 212.8,2.65 565.6,81.75 565.6,81.75 l -298,-3.19"/>
      </g>
      <g transform="scale(1.20575)" id="g110">
        <path id="path112" style="fill:#b64c41;fill-opacity:1;fill-rule:nonzero;stroke:none" d="m 16117.7,8506.61 c -113.1,-217.23 -434.5,-257.96 -434.5,-257.96 104.2,253.44 -105.6,333.36 -235.3,592.85 -129.7,259.5 99.5,431.46 99.5,431.46 -141.8,-27.15 -168.9,-217.22 -168.9,-217.22 -12,126.71 93.6,340.86 428.4,383.14 245.3,30.95 304.5,113.59 318.6,155.67 5.5,-54.57 18.7,-97.29 55.4,-129.52 25.9,-22.81 50.7,-42.63 74.3,-59.92 -0.6,-9.87 -1,-19.73 -1.5,-29.5 -1.4,-33.4 -2.3,-66.25 -3.9,-96.4 -43.8,-52.23 -42.5,-107.79 -35.1,-142.74 4.6,-21.72 11.7,-35.47 11.7,-35.47 35,-48.79 52.9,-96.76 58,-144.74 15.6,-143.54 -81.9,-286.82 -166.7,-449.65"/>
      </g>
      <g transform="scale(1.27776)" id="g114">
        <path id="path116" style="fill:#233862;fill-opacity:1;fill-rule:nonzero;stroke:none" d="m 16300,6451.52 -46.1,271.18 c -224.6,-83.27 -436.9,-119.59 -624.4,-129.6 -22,40.69 -62.3,70.51 -111.1,77.63 l -165.6,23.95 c -65.4,9.47 -126.9,-24.57 -155.7,-80.14 -159,24.57 -266.4,60.65 -300.4,73.1 l -0.1,-1.49 -16.4,-238.07 v -0.63 c 95.6,-25.43 187.3,-45.23 275.1,-60.26 l -5,-33.18 c -12.1,-82.34 44.7,-158.95 127.1,-171.32 l 183.5,-27.55 c 87.5,-13.07 167.5,51.58 173,139.94 l 3.2,51.02 c 349.9,1.8 582.4,75.37 662.9,105.42"/>
      </g>
      <g transform="scale(1.33458)" id="g118">
        <path id="path120" style="fill:#d9935c;fill-opacity:1;fill-rule:nonzero;stroke:none" d="m 16248.5,6707.49 c -52.3,-240.45 -534.4,-811.79 -536.1,-812.91 -4.2,-2.78 -10.7,-4.73 -18.9,-6.22 l -0.9,-0.15 c -39.8,-6.9 -117.5,-4.05 -160.1,-40.01 -51.8,-43.54 -185.4,-57.25 -226.3,-24.51 -40.8,32.67 13.7,89.92 70.9,174.51 57.2,84.45 171.7,59.95 207.2,54.48 21,-3.23 39.3,15.73 50.5,31.62 l 0.6,0.9 c 2.1,3.07 4.2,6.07 5.7,8.69 48.7,142.51 158.5,346.63 272,588.72 22.8,48.41 19.4,105.2 -9,150.53 -75.8,121.17 -229.7,372.78 -328.7,574.64 -11.5,58.37 -23.1,113.27 -32,154.81 217.6,35 307.6,167.31 336.7,223.74 102.8,-199.45 419.9,-841.84 368.4,-1078.84"/>
      </g>
      <g transform="scale(1.60651)" id="g122">
        <path id="path124" style="fill:#739af0;fill-opacity:1;fill-rule:nonzero;stroke:none" d="m 16209.4,4711.15 c -60.6,-13.95 -334.4,-17.31 -526.6,25.89 -40.1,8.96 -76.7,19.98 -107,33.36 -36.2,16 -63.5,35.3 -77.4,58.52 -21.7,36.16 -61.5,160.1 -108.3,322.56 -128.7,447.62 -309.8,1187.28 -309.8,1187.28 0,0 363.7,-74.25 440.7,-137.61 77,-63.37 145,-1068.78 217.3,-1095.98 10.8,-3.98 29.2,-12.45 52.7,-24.03 1.2,-0.56 2.3,-1.18 3.5,-1.68 14.1,-6.97 29.9,-15 47,-23.78 150.2,-77.18 398.7,-216.24 424.5,-247.18 34,-40.71 31.8,-76.94 -56.6,-97.35"/>
      </g>
      <g transform="scale(1.52893)" id="g126">
        <path id="path128" style="fill:#739af0;fill-opacity:1;fill-rule:nonzero;stroke:none" d="m 16298.4,6058.93 c 0,17.99 -1.7,35.98 -5,54.03 -49.2,270.45 -440.3,547.42 -448,547.42 v -5.64 c 0,-41.33 -65.2,-117.63 -165.6,-124.17 -119.1,-7.79 -266,60.11 -266,128.7 -0.7,0 -66.9,-8.95 -89.3,-11.45 -95.4,-10.85 -285.9,-62.39 -367.5,-124.05 -77.5,-58.61 32.1,-428.14 100,-689.83 28.7,-110.67 49.9,-202.04 46.4,-242.52 -1.7,-19.76 -19.5,-288.37 -35.3,-531.35 -13.2,-200.47 -25,-383.41 -25.3,-394.85 -0.9,-22.77 112.3,-102.49 302.3,-162.8 46,-14.52 96.5,-27.93 150.8,-39.11 97.6,-20.01 207.9,-32.96 328,-32.51 39.3,0.14 76.5,2.1 111.6,5.63 271.5,26.62 364.5,336.05 362.9,1622.5"/>
      </g>
      <g transform="scale(1.48736)" id="g130">
        <path id="path132" style="fill:#d9935c;fill-opacity:1;fill-rule:nonzero;stroke:none" d="m 15844.7,6848.67 c -2.4,107.98 -0.6,236.91 14,345.83 l 431,-70.44 c 0,0 0.5,-131.58 -1.4,-277.53 0.2,-0.03 11.7,-135.38 -155,-155.15 -166.8,-19.84 -293.1,52.8 -288.6,157.29"/>
      </g>
      <g transform="scale(1.54628)" id="g134">
        <path id="path136" style="fill:#233862;fill-opacity:1;fill-rule:nonzero;stroke:none" d="m 15587.8,1098.31 c -52.1,32.08 -21.5,269.88 -21.5,269.88 0,0 244.1,193.82 277.1,44.55 32.9,-149.19 230.4,-216.9 342.9,-235.59 77.7,-12.87 106.3,-53.03 113.7,-78.51 l -712.2,-0.33"/>
      </g>
      <g transform="scale(1.44269)" id="g138">
        <path id="path140" style="fill:#4a75cb;fill-opacity:1;fill-rule:nonzero;stroke:none" d="m 16300,5558.77 c 0,-426.15 -206.6,-311.29 -331.2,-196.23 16.8,257.5 28.6,1169.55 28.6,1169.55 0,0 302.6,-363.07 302.6,-973.32"/>
      </g>
      <g transform="scale(1.56132)" id="g142">
        <path id="path144" style="fill:#4a75cb;fill-opacity:1;fill-rule:nonzero;stroke:none" d="m 16300,5202.01 c -7.6,-55.27 -94.9,-216.03 -163.3,-327.86 -41.2,9.22 -78.9,20.56 -110.1,34.33 -37.2,16.46 -65.3,36.31 -79.6,60.2 -22.4,37.22 -63.3,164.74 -111.4,331.9 35.6,205.79 69.4,409.02 69.4,409.02 l 10.5,136.29 c 0,-10.5 159.6,-609.29 231.9,-623.26 43.5,-8.51 74.4,1.8 100.7,5.58 1.2,-0.58 2.3,-1.22 3.5,-1.73 14.5,-7.18 30.8,-15.44 48.4,-24.47"/>
      </g>
      <g transform="scale(1.47527)" id="g146">
        <path id="path148" style="fill:#233862;fill-opacity:1;fill-rule:nonzero;stroke:none" d="m 15554,1151.18 c -54.7,33.62 -22.6,282.86 -22.6,282.86 0,0 256,203.15 290.5,46.71 34.4,-156.38 241.5,-227.35 359.4,-246.94 81.4,-13.49 111,-55.59 118.7,-82.29 l -746,-0.34"/>
      </g>
      <g transform="scale(1.50409)" id="g150">
        <path id="path152" style="fill:#233862;fill-opacity:1;fill-rule:nonzero;stroke:none" d="m 15628,7237.41 c 0,0 -284.6,448.59 261.7,478.28 0,0 204.9,-24.12 251.3,22.27 0,0 159,-241.57 10.5,-500.55 -148.4,-258.98 -523.5,0 -523.5,0"/>
      </g>
      <g transform="scale(1.49103)" id="g154">
        <path id="path156" style="fill:#d9935c;fill-opacity:1;fill-rule:nonzero;stroke:none" d="m 16236.9,7064.64 c -41.8,-32.87 -164.3,-65.51 -199.7,-69.33 0,0 -181.7,40.51 -214.7,60.42 -51.1,31 -47.8,93.74 -50.5,180.96 -3,103.25 -13.5,184.34 -2,243.85 13.8,71.21 58.9,111.71 185.3,122.72 232,20.14 328.7,-37.96 332.7,-115.75 1.1,-20.89 2,-40.8 2.7,-59.67 9.3,-242.58 -9.9,-328.61 -53.8,-363.2"/>
      </g>
      <g transform="scale(1.49058)" id="g158">
        <path id="path160" style="fill:#233862;fill-opacity:1;fill-rule:nonzero;stroke:none" d="m 16297.7,7350.54 c -2.3,-140.58 -40.2,-223.8 -67.7,-234.31 -31.6,-12.1 -68.8,-22.12 -107.6,-28.77 -13.1,-1.53 -25.6,-1.09 -25.5,6.32 0.5,22.17 30.1,49.51 8.1,69.14 -23.1,20.6 -147,27.54 -157,-17.4 -4.9,-21.91 35.1,-60.6 7.7,-61.49 -8.3,1.42 -16.5,3.02 -24.3,5.06 -45.1,11.76 -80.6,33.12 -95.4,42.12 -51.2,31 -47.9,78.55 -59.2,165.1 -7.3,55.99 -7.3,25.64 0,-57.44 7.7,-86.96 -7.3,-142.77 50.5,-181.02 32.1,-21.29 217.4,-104.51 217.4,-104.51 -2.7,44.07 155.3,80.55 197.1,113.43 38.7,30.47 58.2,101.02 55.9,283.77"/>
      </g>
      <g transform="scale(1.53214)" id="g162">
        <path id="path164" style="fill:#2b478b;fill-opacity:1;fill-rule:nonzero;stroke:none" d="m 15011.3,4655.46 c -0.8,-22.71 112.2,-102.27 301.8,-162.38 15.3,-4.9 31.2,-9.6 47.4,-14.1 l 0.4,-0.46 c 17.7,-207.62 65.6,-500.93 108.8,-783.94 v -0.06 c 11.2,-73.36 22,-146.07 32,-216.37 26.4,-186.01 46.1,-355.58 48.2,-477.57 v -1.3 c 0.9,-56 -46.3,-195.68 -49.8,-227.92 -2.2,-19.71 -4,-40.59 -5.3,-62.46 -5.2,-87.39 -3.1,-190.72 4,-300.95 31,-481.23 158.1,-1096.97 203.5,-1123.14 90.2,-52.15 254.3,0.06 337.7,12.2 34.5,5.16 62.2,34.6 60.3,69.38 -40.7,798.63 76.3,1910.93 163.8,2594.62 2.3,17.82 4.6,35.31 6.8,52.47 10.4,80.61 17.4,155.93 21.7,223.81 4,59.53 6,113.57 6.8,160.43 0.2,14.62 0.3,28.59 0.4,41.77 0.2,42.82 -33.8,323.02 -35.4,1606.78 0,29.7 -24.3,53.91 -53.9,53.91 h -785.1 c -75.9,0 -136.9,-62.07 -136,-137.91 1.2,-97.9 -2.3,-234.64 -23.6,-365.18 -29,-178.24 -91,-344.75 -219,-384.82 l -0.3,-0.26 c -0.6,-1.31 -4.2,-9.07 -9.8,-22.06 v -0.2 c -1.2,-32.24 -2.6,-65.07 -4.1,-98.49 -0.2,-6.72 -0.5,-13.51 -0.9,-20.23 -0.1,-3.98 -0.3,-7.9 -0.6,-11.95 -0.2,-6.72 -0.6,-13.57 -1,-20.42 -0.5,-11.23 -1,-22.59 -1.7,-34.01 -0.5,-9.01 -0.9,-17.95 -1.5,-27.02 -0.9,-17.36 -2,-34.98 -3.1,-52.74 -0.3,-5.68 -0.6,-11.29 -1,-17.03 -1.5,-22.98 -3.1,-46.28 -4.9,-69.71 -0.5,-7.18 -1.1,-14.36 -1.7,-21.67 -0.2,-3.46 -0.4,-6.98 -0.7,-10.44 -0.8,-9.21 -1.5,-18.41 -2.3,-27.61 -0.7,-9.79 -1.6,-19.64 -2.4,-29.5 -3.2,-36.03 1.5,-68.21 0.5,-93.47"/>
      </g>
      <g transform="scale(1.53144)" id="g166">
        <path id="path168" style="fill:#233862;fill-opacity:1;fill-rule:nonzero;stroke:none" d="m 15505.8,2409.04 c 31,-481.44 158.2,-1097.46 203.6,-1123.65 90.2,-52.17 254.4,0.07 337.8,12.21 34.6,5.16 62.3,34.61 60.4,69.41 -40.7,798.99 76.4,1911.8 163.9,2595.79 2.3,17.83 4.5,35.33 6.8,52.5 10.4,80.64 17.3,156 21.7,223.91 -41.6,271.18 -276.5,285.74 -489.5,-275.3 26.3,-186.16 -311.8,-1444.59 -304.7,-1554.87"/>
      </g>
      <g transform="scale(1.49941)" id="g170">
        <path id="path172" style="fill:#2b478b;fill-opacity:1;fill-rule:nonzero;stroke:none" d="m 15330,3089.21 c -6.7,-56.89 -73.1,-192.01 -81.1,-224.22 -110,-442.3 -49.3,-1491.05 5.2,-1533 84.4,-64.89 257.7,-34.08 343.8,-32.88 35.7,0.47 67.6,26.61 70.5,62.09 67.6,835.66 347.8,1983.38 528,2658.51 90.8,340.07 103.6,590.17 103.6,590.17 0,0 -842.2,516 -933.3,234.09 -80.6,-249.43 14.1,-1318.32 -36.7,-1754.76"/>
      </g>
      <g transform="scale(1.5008)" id="g174">
        <path id="path176" style="fill:#ffa412;fill-opacity:1;fill-rule:nonzero;stroke:none" d="m 16172.8,7858.28 c -5.9,6.53 -12,12.85 -18.5,18.99 -27.4,26.08 -60.5,48.58 -100.2,65.16 -146.8,61.2 -268.4,4.72 -344.5,-53.14 -7.5,-5.65 -14.5,-11.36 -21.1,-17.01 -41.3,-35.13 -64.4,-66.48 -64.4,-66.48 0,0 -71.2,-97.2 -68.8,-302.11 l 733.9,-7.85 c 0,0 10.8,221.32 -116.4,362.44"/>
      </g>
      <g transform="scale(1.45498)" id="g178">
        <path id="path180" style="fill:#e27f2b;fill-opacity:1;fill-rule:nonzero;stroke:none" d="m 16257.6,7737.81 41.6,-0.46 c 0.8,12.05 -1.2,286.83 -103.7,393.49 -7.7,-5.82 -6.2,-4.81 -12.9,-10.64 97.3,-93.93 75.2,-379.55 75,-382.39"/>
      </g>
      <g transform="scale(1.49981)" id="g182">
        <path id="path184" style="fill:#e27f2b;fill-opacity:1;fill-rule:nonzero;stroke:none" d="m 16090.8,7503.05 c 8.4,163.19 70.9,334.68 87.8,365.17 -5.8,6.71 -7.1,7.95 -13.5,14.27 -11.8,-20.15 -107.6,-197.73 -117.7,-378.98 l -481.8,5.15 c 0,0 244.1,-54.76 391.4,-56.59 147.4,-1.83 343,48.74 343,48.74 l -209.2,2.24"/>
      </g>
      <g transform="scale(1.45895)" id="g186">
        <path id="path188" style="fill:#2b478b;fill-opacity:1;fill-rule:nonzero;stroke:none" d="m 16029.9,6962.69 c 0,0 255.1,-297.22 270.1,-556.51 l -130,-6.93 c 0,0 -32.7,288.84 -224.7,545.67 0,0 30,7.28 40,9.26 13.4,2.64 44.6,8.51 44.6,8.51"/>
      </g>
      <g transform="scale(1.52156)" id="g190">
        <path id="path192" style="fill:#2b478b;fill-opacity:1;fill-rule:nonzero;stroke:none" d="m 15980.2,6680.11 c 175.2,-265.17 194,-542.91 194,-542.91 l 125.8,2.17 c -10.3,195.45 -133.2,410.43 -200.9,512.29 0,0 -87,21.99 -118.9,28.45"/>
      </g>
      <g transform="scale(1.47424)" id="g194">
        <path id="path196" style="fill:#ffa412;fill-opacity:1;fill-rule:nonzero;stroke:none" d="M 16211.2,4072.07 H 16107 c -48.5,21.97 -309.6,135.05 -560.5,136.41 -181,1.01 -387.3,-134.24 -399.7,-135.67 -31.5,-3.73 104.9,-4.95 104.9,-4.95 0,0 204.3,90.42 296,92.52 87.6,2.04 281.8,-61.59 359.4,-88.31 h -584.2 c -48.9,0 -88.9,-40.03 -88.9,-88.86 v -666.25 c 0,-48.83 40,-88.79 88.9,-88.79 h 888.3 c 48.8,0 88.8,39.96 88.8,88.79 v 666.25 c 0,48.83 -40,88.86 -88.8,88.86"/>
      </g>
      <g transform="scale(1.44813)" id="g198">
        <path id="path200" style="fill:#e27f2b;fill-opacity:1;fill-rule:nonzero;stroke:none" d="m 16209.6,4145.49 h -904.3 c -49.8,0 -90.5,-40.75 -90.5,-90.46 v -678.26 c 0,-49.72 40.7,-90.39 90.5,-90.39 h 904.3 c 49.7,0 90.4,40.67 90.4,90.39 v 678.26 c 0,49.71 -40.7,90.46 -90.4,90.46"/>
      </g>
      <g transform="scale(1.43912)" id="g202">
        <path id="path204" style="fill:#739af0;fill-opacity:1;fill-rule:nonzero;stroke:none" d="m 16043.8,5441.3 c 6.5,-308.52 -32,-922.85 -32,-922.85 h -181.9 c -86,432.27 -116.3,710.36 -116.3,862.05 0,29.88 0.1,57.67 0.3,83.38 1.2,129.53 4.7,204.78 4.7,204.78 -34.1,784.79 122.6,1204.42 171.8,1262.23 49.3,57.78 274.5,109.73 274.5,109.73 0,0 74.4,-216.81 104.8,-391.22 30.3,-174.41 -238.6,-907.29 -227.5,-1157.79 0.6,-15.57 1.2,-32.45 1.6,-50.31"/>
      </g>
      <g transform="scale(1.6274)" id="g206">
        <path id="path208" style="fill:#f1a34f;fill-opacity:1;fill-rule:nonzero;stroke:none" d="m 16276.5,4626.09 h -130.1 c -12.9,0 -23.5,-10.63 -23.5,-23.59 V 1058.19 c 0,-12.9 10.6,-23.53 23.5,-23.53 h 130.1 c 13,0 23.5,10.63 23.5,23.53 V 4602.5 c 0,12.96 -10.5,23.59 -23.5,23.59"/>
      </g>
      <g transform="scale(1.6274)" id="g210">
        <path id="path212" style="fill:#2b478b;fill-opacity:1;fill-rule:nonzero;stroke:none" d="m 16276.5,4626.09 h -130.1 c -12.9,0 -23.5,-10.63 -23.5,-23.59 v -109.81 h 177.1 v 109.81 c 0,12.96 -10.5,23.59 -23.5,23.59"/>
      </g>
      <g transform="scale(1.6274)" id="g214">
        <path id="path216" style="fill:#2b478b;fill-opacity:1;fill-rule:nonzero;stroke:none" d="m 16122.9,1058.19 c 0,-12.9 10.6,-23.53 23.5,-23.53 h 130.1 c 13,0 23.5,10.63 23.5,23.53 v 94.75 h -177.1 v -94.75"/>
      </g>
      <g transform="scale(1.62001)" id="g218">
        <path id="path220" style="fill:#e27f2b;fill-opacity:1;fill-rule:nonzero;stroke:none" d="m 16286.5,4413.87 c -7.4,0 -13.4,-6.05 -13.4,-13.46 V 1266.42 c 0,-7.41 6,-13.46 13.4,-13.46 7.5,0 13.5,6.05 13.5,13.46 v 3133.99 c 0,7.41 -6,13.46 -13.5,13.46"/>
      </g>
      <g transform="scale(1.42529)" id="g222">
        <path id="path224" style="fill:#d9935c;fill-opacity:1;fill-rule:nonzero;stroke:none" d="m 16167.3,4562.31 c 0,0 38.8,620.29 32.2,931.81 -147,47.35 -265.5,36.97 -333,22.8 -0.2,-25.96 -0.4,-54.03 -0.4,-84.2 0,-153.15 30.6,-433.94 117.4,-870.41 -38.3,-160.74 -35.7,-334.32 30.6,-364.98 66.4,-30.59 285.9,84.26 283.3,135.27 -2.5,51.07 -130.1,229.71 -130.1,229.71"/>
      </g>
      <g transform="scale(1.63504)" id="g226">
        <path id="path228" style="fill:#d9935c;fill-opacity:1;fill-rule:nonzero;stroke:none" d="m 16285,4602.27 c -15.6,57.24 -27.2,88.98 -66.6,116.75 -57.3,40.43 -125.3,29.48 -176,20.61 -38.7,-6.79 -79.3,6.18 -96.3,12.72 -89.8,59.82 -315.1,183.12 -427.2,238.47 -76.6,-44.41 -170.7,-132.23 -214.9,-303.67 172.7,-76.14 550.6,-74.79 622.6,-58.22 0,0 66.6,-48.38 117.3,-52.84 19.1,-1.66 43.3,3.91 66,11.49 35.5,11.93 73.8,0 99.3,-31.62 24.7,-30.45 56.9,-47.15 70.2,-47.15 20.6,0 15.5,57.37 5.6,93.46"/>
      </g>
      <path id="path230" style="fill:#ffa412;fill-opacity:1;fill-rule:nonzero;stroke:none" d="m 4391.43,6388.7 h -1309.6 c -72.03,0 -130.97,-58.9 -130.97,-130.9 v -982.2 c 0,-72.1 58.94,-131 130.97,-131 h 1309.6 c 72.03,0 130.96,58.9 130.96,131 v 982.2 c 0,72 -58.93,130.9 -130.96,130.9"/>
      <path id="path232" style="fill:#e27f2b;fill-opacity:1;fill-rule:nonzero;stroke:none" d="m 4817.05,6388.7 h -1309.6 c -72.03,0 -130.96,-58.9 -130.96,-130.9 v -982.2 c 0,-72.1 58.93,-131 130.96,-131 h 1309.6 c 72.03,0 130.96,58.9 130.96,131 v 982.2 c 0,72 -58.93,130.9 -130.96,130.9"/>
      <path id="path234" style="fill:#ffa412;fill-opacity:1;fill-rule:nonzero;stroke:none" d="m 3223.7,6383.3 c 0,0 311.03,229.2 357.41,223.7 46.39,-5.5 120.05,-21.8 120.05,-21.8 l -278.29,-210.1 -199.17,8.2"/>
      <path id="path236" style="fill:#9ed9f0;fill-opacity:1;fill-rule:nonzero;stroke:none" d="m 5605,8402.5 c -19.21,-5.2 -40.06,-10.1 -62.32,-14.8 -15.39,-3.4 -31.43,-6.5 -48.02,-9.6 -0.33,7.6 -0.54,15.2 -0.87,22.6 -4.26,103 -9.06,201.1 -15.83,294.5 -5.67,78.1 -12.66,152.9 -21.82,224.2 108.8,-286.9 184.65,-507.3 148.86,-516.9 z m 73.66,1600.9 c -124.74,94.3 -415.91,173.1 -561.82,189.7 -34.27,3.8 -136.74,4.3 -137.84,4.3 0,-104.9 -223.39,-195.5 -405.43,-183.6 -153.44,10.1 -253.08,126.7 -253.08,189.9 l -0.11,0.2 c -11.79,0 -609.73,-415 -684.92,-828.5 -5.02,-27.6 -7.75,-55.1 -7.75,-82.6 -2.4,-1966.9 -121.57,-2268.6 -83.92,-2267.9 0,0 223.72,-172.1 638.87,-212.8 53.69,-5.4 110.55,-8.4 170.57,-8.7 183.57,-0.6 352.29,19.1 501.47,49.8 83.16,17 160.32,37.5 230.49,59.8 290.63,92.1 463.71,214 462.4,248.8 -1.42,38.8 5.68,88 0.87,143.2 -18.11,208.2 -28.04,390.2 -35.68,573.4 315.39,-27.7 497.32,3.5 497.32,3.5 258.32,555.8 -162.72,1994.1 -331.44,2121.5"/>
      <path id="path238" style="fill:#d9935c;fill-opacity:1;fill-rule:nonzero;stroke:none" d="m 4320.48,10203.8 c 0,0 -461.96,-70 -660.86,-235.8 -198.9,-165.7 -219.01,-1221.1 -285.31,-1519.5 -13.04,-58.6 -24.75,-153.1 -34.84,-268.4 -35.58,-404.9 7.05,-966.4 42.31,-1173.9 3.74,-50 1.83,-123.6 -27.12,-195.9 -50.93,-127.4 -61.84,-163.7 29.1,-236.5 90.95,-72.8 189.16,-174.6 258.29,-145.5 53.31,22.4 43.85,376 36.74,536.6 79.8,343 209.04,986.8 330.67,1610.7 162.29,831.8 311.02,1628.2 311.02,1628.2"/>
      <path id="path240" style="fill:#9ed9f0;fill-opacity:1;fill-rule:nonzero;stroke:none" d="m 4320.49,10203.7 c 0,0 -85.78,-458.9 -198.08,-1043.9 -35.57,-185.6 -73.88,-383.9 -112.95,-584.3 -159.01,-311.5 -295.42,-523.4 -337.55,-483.5 -86,81.2 -236.93,91.2 -332.42,88.2 10.04,115.2 21.83,209.7 34.81,268.3 5.24,23.6 10.15,51.9 14.95,84 55.66,375.5 87.21,1282.9 270.33,1435.5 96.36,80.2 254.39,138 391.79,176.4 h 0.11 c 70.17,19.6 134.99,34 183.45,43.8 52.38,10.5 85.56,15.5 85.56,15.5"/>
      <path id="path242" style="fill:#74acbe;fill-opacity:1;fill-rule:nonzero;stroke:none" d="m 3671.92,8092 c -85.97,81.1 -236.91,91.2 -332.45,88.1 10.09,115.3 21.8,209.8 34.84,268.4 5.23,23.6 10.17,51.9 14.95,84.1 l 476.65,1150.6 c 0,0 -151.85,-1631.1 -193.99,-1591.2"/>
      <path id="path244" style="fill:#d9935c;fill-opacity:1;fill-rule:nonzero;stroke:none" d="m 4980.19,10215.5 c 3.5,160.6 0.85,352.4 -20.85,514.4 l -641.05,-104.8 c 0,0 0.01,-195.6 2.82,-412.7 l -0.63,-0.1 c 0,0 -17.48,-201.3 230.53,-230.8 248.01,-29.5 435.86,78.6 429.18,234"/>
      <path id="path246" style="fill:#233862;fill-opacity:1;fill-rule:nonzero;stroke:none" d="m 4443.7,1698.8 c 80.58,49.6 33.44,419.8 33.44,419.8 0,0 -377.54,299.7 -428.42,68.9 -50.89,-230.7 -356.33,-335.4 -530.3,-364.3 -120.1,-19.9 -157.06,-86.6 -168.43,-126 l 1093.71,1.6"/>
      <path id="path248" style="fill:#74acbe;fill-opacity:1;fill-rule:nonzero;stroke:none" d="m 5542.79,8387.2 c 0,0 -120.05,-162.3 -144.6,-162.3 -24.56,0 -327.4,117.3 -240.53,379.7 86.87,262.3 298.48,314.8 298.48,314.8 9.16,-71.3 16.15,-146.1 21.82,-224.2 6.77,-93.4 11.57,-191.5 15.83,-294.5 0.33,-7.4 0.54,-15 0.87,-22.6 16.59,3.1 32.63,6.2 48.02,9.6 l 0.11,-0.5"/>
      <path id="path250" style="fill:#233862;fill-opacity:1;fill-rule:nonzero;stroke:none" d="m 5600.51,1698.8 c 80.59,49.6 33.45,419.8 33.45,419.8 0,0 -377.54,299.7 -428.43,68.9 -50.88,-230.7 -356.32,-335.4 -530.3,-364.3 -120.1,-19.9 -157.05,-86.6 -168.43,-126 l 1093.71,1.6"/>
      <path id="path252" style="fill:#b64c41;fill-opacity:1;fill-rule:nonzero;stroke:none" d="m 5041.24,10914.7 c 0,0 427.94,674.7 -393.78,719.4 0,0 -308.21,-36.3 -377.98,33.5 0,0 -239.06,-363.3 -15.8,-752.9 223.25,-389.5 787.56,0 787.56,0"/>
      <path id="path254" style="fill:#d9935c;fill-opacity:1;fill-rule:nonzero;stroke:none" d="m 4337.32,10562.6 c 62.29,-49 244.93,-97.6 297.73,-103.3 0,0 270.82,60.4 320.05,90.1 76.25,46.2 71.34,139.7 75.25,269.8 4.68,153.9 20.2,274.8 3.01,363.6 -20.43,106.1 -87.74,166.5 -276.18,182.9 -345.95,30.1 -490.08,-56.6 -496.11,-172.6 -1.56,-31.1 -3.01,-60.8 -4.01,-88.9 -13.85,-361.7 14.73,-490 80.26,-541.6"/>
      <path id="path256" style="fill:#b64c41;fill-opacity:1;fill-rule:nonzero;stroke:none" d="m 4253.93,10985.6 c 3.35,-209.5 59.85,-333.6 100.81,-349.2 47.13,-18.1 102.61,-33 160.46,-42.9 19.48,-2.3 38.15,-1.6 37.93,9.4 -0.63,33.1 -44.79,73.8 -11.97,103.1 34.42,30.7 219.18,41 234.06,-26 7.26,-32.6 -52.31,-90.3 -11.49,-91.6 12.39,2.1 24.55,4.5 36.15,7.5 67.29,17.5 120.09,49.4 142.33,62.8 76.25,46.2 71.25,117.1 88.13,246.1 10.92,83.5 10.92,38.2 0,-85.6 -11.43,-129.6 10.92,-212.8 -75.24,-269.8 -47.95,-31.8 -324.07,-155.8 -324.07,-155.8 4.02,65.7 -231.42,120 -293.71,169 -57.83,45.5 -86.86,150.6 -83.39,423"/>
      <path id="path258" style="fill:#2b478b;fill-opacity:1;fill-rule:nonzero;stroke:none" d="m 5547.59,7161.8 c 1.31,-34.8 -171.77,-156.7 -462.4,-248.8 -23.4,-7.5 -47.66,-14.6 -72.57,-21.6 l -0.59,-0.7 c -27.11,-318.1 -100.51,-767.4 -166.71,-1201.1 v -0.1 c -17.14,-112.4 -33.73,-223.7 -49.01,-331.4 -40.37,-285.1 -70.61,-544.8 -73.88,-731.8 v -1.9 c -1.42,-85.8 70.94,-299.8 76.39,-349.3 3.39,-30.2 6.12,-62.2 8.08,-95.7 7.86,-133.9 4.69,-292.1 -6.11,-461.1 -47.47,-737.3 -242.28,-1680.6 -311.8,-1720.8 -138.16,-79.9 -389.61,0.1 -517.4,18.8 -52.93,7.8 -95.27,52.9 -92.54,106.3 62.42,1223.6 -116.89,2927.7 -250.9,3975.3 -3.49,27.3 -6.99,54 -10.37,80.3 -16.04,123.5 -26.63,238.9 -33.28,342.9 -6.12,91.2 -9.06,174.1 -10.37,245.9 -0.33,22.4 -0.55,43.7 -0.66,63.9 -0.33,65.6 51.84,495 54.24,2461.9 0.05,45.4 37.26,82.6 82.7,82.6 h 1202.83 c 116.24,0 209.75,-95.1 208.3,-211.4 -1.87,-150 3.54,-359.5 36.12,-559.4 44.39,-273.1 139.47,-528.3 335.67,-589.7 l 0.48,-0.4 c 0.89,-2 6.25,-13.9 14.87,-33.8 l 0.07,-0.3 c 1.85,-49.4 3.92,-99.7 6.21,-150.9 0.44,-10.3 0.87,-20.6 1.42,-31 0.22,-6.1 0.54,-12.1 0.87,-18.2 0.44,-10.4 0.98,-20.9 1.53,-31.3 0.76,-17.3 1.64,-34.6 2.62,-52.2 0.76,-13.8 1.52,-27.5 2.29,-41.4 1.42,-26.6 3.06,-53.5 4.8,-80.7 0.44,-8.8 0.98,-17.4 1.64,-26.2 2.29,-35.2 4.69,-70.8 7.42,-106.7 0.77,-11.1 1.63,-22.1 2.51,-33.2 0.33,-5.4 0.77,-10.7 1.2,-16.1 1.09,-14 2.18,-28.1 3.38,-42.3 1.2,-15 2.51,-30 3.82,-45.2 4.81,-55.2 -2.29,-104.4 -0.87,-143.2"/>
      <path id="path260" style="fill:#233862;fill-opacity:1;fill-rule:nonzero;stroke:none" d="m 4800.79,3718.3 c -47.47,-737.3 -242.28,-1680.6 -311.8,-1720.8 -138.16,-79.9 -389.61,0.1 -517.4,18.8 -52.93,7.8 -95.27,52.9 -92.54,106.3 62.42,1223.6 -116.89,2927.7 -250.9,3975.3 -3.49,27.3 -6.99,54 -10.37,80.3 -16.04,123.5 -26.63,238.9 -33.28,342.9 63.73,415.4 423.43,437.6 749.64,-421.6 139.79,-332.8 477.45,-2212.2 466.65,-2381.2"/>
      <path id="path262" style="fill:#2b478b;fill-opacity:1;fill-rule:nonzero;stroke:none" d="m 5561.08,4661 c 9.88,-85.2 109.64,-287.9 121.61,-336.2 164.91,-663.2 73.81,-2235.7 -7.95,-2298.6 -126.49,-97.3 -386.3,-51 -515.4,-49.3 -53.51,0.8 -101.37,40 -105.68,93.2 -101.39,1252.9 -521.58,2973.8 -791.78,3986.1 -136.06,510 -155.34,884.9 -155.34,884.9 0,0 1262.88,773.7 1399.46,351 120.86,-374 -21.1,-1976.6 55.08,-2631.1"/>
      <path id="path264" style="fill:#ffa412;fill-opacity:1;fill-rule:nonzero;stroke:none" d="m 5098.25,11744 c 0,0 -34.63,47.1 -96.68,99.8 -9.83,8.5 -20.4,17 -31.65,25.5 -114.11,86.9 -296.75,171.6 -516.92,79.8 -59.67,-24.9 -109.27,-58.7 -150.46,-97.8 -9.76,-9.2 -19,-18.7 -27.71,-28.5 -190.9,-211.8 -174.74,-544 -174.74,-544 l 1101.55,11.8 c 3.57,307.5 -103.39,453.4 -103.39,453.4"/>
      <path id="path266" style="fill:#e27f2b;fill-opacity:1;fill-rule:nonzero;stroke:none" d="m 4892.53,11287.4 c -0.3,4.1 -32.55,419.7 109.04,556.4 -9.83,8.5 -7.48,7 -18.73,15.5 -149.12,-155.2 -152.1,-555 -150.83,-572.6 l 60.52,0.7"/>
      <path id="path268" style="fill:#e27f2b;fill-opacity:1;fill-rule:nonzero;stroke:none" d="m 4479.75,11282.9 c -10.45,269.8 -159.34,538.4 -177.21,568.4 -9.76,-9.2 -11.6,-11.1 -20.32,-20.9 25.84,-45.4 123.06,-305.5 132.36,-548.2 l -314.49,-3.4 c 0,0 293.39,-75.8 514.36,-73.1 220.97,2.8 587.19,84.9 587.19,84.9 l -721.89,-7.7"/>
      <path id="path270" style="fill:#2b478b;fill-opacity:1;fill-rule:nonzero;stroke:none" d="m 5160.14,10187.3 c 0,0 -372.19,-433.6 -394.02,-811.9 h 189.17 c 0,0 48.2,411.2 328.3,785.9 l -123.45,26"/>
      <path id="path272" style="fill:#2b478b;fill-opacity:1;fill-rule:nonzero;stroke:none" d="m 4234.93,10188.2 c -266.61,-403.5 -298.26,-812.8 -298.26,-812.8 h -189.13 c 15.72,297.4 200.7,614.1 303.83,769 h 0.11 c 70.17,19.6 134.99,34 183.45,43.8"/>
      <path id="path274" style="fill:#ffa412;fill-opacity:1;fill-rule:nonzero;stroke:none" d="m 4475.7,7797.5 c -18.4,402.4 108.8,1212.6 296.9,1793.8 21.1,65 42.9,127.2 65.4,185.7 8.4,17.8 16.8,35.1 25.2,52.2 -144.8,-396.6 -253.6,-963.4 -300.8,-1439.4 -24.2,-246.1 -31.9,-467.9 -19.7,-629.5 22,-290.4 203,-533 425.4,-687.3 -310.1,171.4 -481.1,476.4 -492.4,724.5 z M 4931,7008.7 c -403.6,190 -604.8,583.3 -594.9,873.6 8.6,257.7 90,674.7 208.6,1087.3 -92.5,-446 -144.1,-898.4 -131.4,-1176.3 16,-351.9 266,-644.5 545.2,-796.9 -9.2,3.8 -18.2,7.9 -27.5,12.3 z m -675.3,873.6 c 15.8,469.1 272.3,1465.4 555.9,2003.3 -9.9,-23.8 -19.9,-48.4 -29.7,-73.7 -268,-567.6 -493.1,-1470.3 -508.4,-1926.5 -6.5,-190.8 56.8,-372.3 158.5,-528 -122.5,171.9 -181.8,364.2 -176.3,524.9 z m 1900.6,-37.6 c -7.1,144.1 -26.8,315.5 -64.4,519.3 -0.1,-98.2 -6.5,-191.1 -20.9,-275.1 46.8,-373 28.7,-658.1 -54.4,-819.5 -51.5,-100.1 -122.8,-176.9 -209.1,-228.3 44,42.8 82.8,93.8 115.6,152.6 63.9,114.5 122.7,327.6 100.9,720.7 -4.4,-11.2 -9,-22 -13.9,-32.5 0,0 -16.2,-2.8 -47.4,-6 12.8,-287.4 -17.9,-507.5 -91.3,-639.2 -55.6,-99.8 -131.1,-174.3 -221.2,-221.7 28.4,28.1 54.5,59.7 78.7,95 75.8,111.4 154.9,330.4 158.3,760.2 -18.9,-1.1 -39.9,-2 -62.9,-2.6 -3.5,-329.5 -52.1,-574.7 -143.6,-708.7 -4.2,-6.2 -8.6,-12.4 -13.1,-18.4 69.4,119.1 135.8,335 139.2,726.8 -19.7,-0.3 -40.7,-0.5 -63,-0.3 -3.3,-329.2 -52.1,-574.2 -143.5,-708.1 -57.3,-83.9 -129.1,-145.4 -211.6,-183.3 -25.2,4.3 -51,10 -76.9,16.9 -3.5,0.8 -7,1.7 -10.4,2.8 l -1.1,0.3 c -3.4,0.9 -6.9,1.9 -10.3,2.9 -31.6,9.2 -62.3,19.7 -92,31.5 -363.9,144.5 -572.7,469.9 -593,737.4 -14.4,190 1,472.9 39.4,780.6 75.6,606.4 240.3,1309.4 440.6,1588.8 3.4,4.7 6.6,9.3 10,13.7 l 0.1,0.1 c 4.2,5.5 8.4,10.9 12.7,15.9 7.4,8.9 14.7,17.2 22.2,24.8 l 0.2,0.2 c 15.7,16.1 31.4,28.8 46.7,38.2 4.2,-2.5 8.8,-5.6 13.8,-9.6 13,-9.9 28.5,-25 46.4,-47.8 l 0.4,-0.5 c 20.9,-4.5 42.6,-9.7 64.8,-15.3 10.3,-2.8 20.9,-5.5 31.5,-8.6 l 2,-0.5 c 2.5,-0.5 5,-1.3 7.4,-2 13,-3.6 26,-7.4 39.1,-11.3 7.4,-2.3 14.9,-4.6 22.3,-6.9 8.8,-2.8 17.5,-5.6 26.2,-8.5 9.5,-3.2 19,-6.4 28.4,-9.7 10,-3.5 20,-7.1 29.8,-10.8 l -0.6,0.9 c -117.9,185.8 -201.7,229.1 -256.1,226.5 -8.5,-0.4 -16.9,-1.5 -25.5,-3.4 -9.9,2.6 -19,3.7 -27.3,3.7 -18.2,-0.1 -36.5,-3.5 -54.8,-10.1 -56,-5.4 -114.9,-40.8 -175.9,-105.9 -4.2,-4.3 -8.3,-8.9 -12.5,-13.6 -33.9,-38.2 -67.8,-84.7 -101.6,-138 l -0.6,-0.9 c -322.5,-509.7 -623.2,-1642 -641.1,-2172 -14.1,-419.4 308.8,-794.4 635.1,-948 31.9,-15 63.6,-28 94.9,-38.9 17.7,-6.2 35.2,-11.7 52.6,-16.6 l 1.1,-0.3 c 67.6,-19 133.3,-28.4 196.3,-28.4 13.5,0 26.8,0.4 40,1.3 13.6,-0.9 27.1,-1.3 40.5,-1.3 59.3,0 116.3,8.3 170.1,24.8 8.5,0.4 17,1 25.4,1.6 7.2,0.7 14.4,1.3 21.4,2.2 13.8,1.6 27.5,3.7 41,6.2 39.5,-0.2 78,2.7 115.2,8.9 117.2,19.2 221.2,69.6 306.3,148.8 53.6,49.8 99.7,111 136.8,183 54.4,106 102.6,292.2 86.6,616"/>
      <path id="path276" style="fill:#d9935c;fill-opacity:1;fill-rule:nonzero;stroke:none" d="m 5542.79,8387.2 c -10.26,-1.5 -203.64,-36.8 -214.23,-38.3 -322.1,-47.2 -755.48,-68.1 -800.62,-70.1 -4.22,3.9 -157.97,147.1 -217.93,147.1 -60.79,0 -236,-63.8 -253.88,-112.9 -17.88,-49.2 -25.03,-137.6 25.03,-157.2 50.06,-19.6 257.46,-68.7 311.1,-73.7 7.33,-0.6 16.15,-0.6 25.75,0.3 385.26,-113.2 716.89,-168.9 972.43,-195.2 22.81,-2.4 154.6,-19.5 271.66,-18.3 -4.04,222.4 -78.93,427.9 -119.31,518.3"/>
      <path id="path278" style="fill:#d2e4ff;fill-opacity:1;fill-rule:nonzero;stroke:none" d="m 12241.1,12705.9 h -388.3 v 271.9 h 388.3 z m 0,-356.5 h -388.3 v 271.9 h 388.3 z m 0,-356.6 h -388.3 v 271.9 h 388.3 z m 0,-356.5 h -388.3 v 271.9 h 388.3 z m 0,-356.6 h -388.3 v 271.9 h 388.3 z m 0,-304.6 h -388.3 v 220 h 388.3 z m 0,-356.5 h -388.3 v 271.9 h 388.3 z m 0,-356.6 h -388.3 v 271.9 h 388.3 z m 0,-356.5 h -388.3 v 271.9 h 388.3 z m 0,-356.6 h -388.3 v 271.9 h 388.3 z m 0,-356.5 h -388.3 v 271.9 h 388.3 z m 0,-344.1 h -388.3 v 259.5 h 388.3 z m 0,-356.6 h -388.3 v 271.9 h 388.3 z m 0,-356.5 h -388.3 v 271.9 h 388.3 z m 0,-356.6 h -388.3 v 271.9 h 388.3 z m 0,-356.5 h -388.3 V 7694 h 388.3 z m 0,-356.6 h -388.3 v 272 h 388.3 z m 0,-304.6 h -388.3 v 220 h 388.3 z m 0,-356.5 h -388.3 v 271.9 h 388.3 z m 0,-356.6 h -388.3 v 271.9 h 388.3 z m 0,-356.5 h -388.3 v 271.9 h 388.3 z m 0,-356.6 h -388.3 v 272 h 388.3 z m 0,-356.5 h -388.3 v 271.9 h 388.3 z m 0,-327.2 h -388.3 v 242.6 h 388.3 z m 0,-356.5 h -388.3 v 271.9 h 388.3 z m 0,-356.6 h -388.3 v 271.9 h 388.3 z m 0,-356.5 h -388.3 v 271.9 h 388.3 z m 0,-356.6 h -388.3 v 271.9 h 388.3 z m 0,-356.5 h -388.3 v 271.9 h 388.3 z m 0,-304.6 h -388.3 v 220 h 388.3 z m 0,-356.6 h -388.3 V 2479 h 388.3 z m 0,-356.5 h -388.3 v 271.9 h 388.3 z m -1505.3,271.9 h 388.3 v -271.9 h -388.3 z m 0,356.5 h 388.3 v -271.9 h -388.3 z m 0,304.7 h 388.3 v -220 h -388.3 z m 0,356.5 h 388.3 v -271.9 h -388.3 z m 0,356.5 h 388.3 v -271.9 h -388.3 z m 0,356.6 h 388.3 v -271.9 h -388.3 z m 0,356.5 h 388.3 v -271.9 h -388.3 z m 0,356.6 h 388.3 v -271.9 h -388.3 z m 0,327.2 h 388.3 V 4651 h -388.3 z m 0,356.5 h 388.3 v -271.9 h -388.3 z m 0,356.6 h 388.3 v -272 h -388.3 z m 0,356.5 h 388.3 v -271.9 h -388.3 z m 0,356.5 h 388.3 v -271.9 h -388.3 z m 0,356.6 h 388.3 v -271.9 h -388.3 z m 0,304.6 h 388.3 v -220 h -388.3 z m 0,356.6 h 388.3 v -272 h -388.3 z m 0,356.5 h 388.3 v -271.9 h -388.3 z m 0,356.5 h 388.3 v -271.9 h -388.3 z m 0,356.6 h 388.3 v -271.9 h -388.3 z m 0,356.5 h 388.3 v -271.9 h -388.3 z m 0,344.2 h 388.3 v -259.5 h -388.3 z m 0,356.5 h 388.3 v -271.9 h -388.3 z m 0,356.5 h 388.3 v -271.9 h -388.3 z m 0,356.6 h 388.3 v -271.9 h -388.3 z m 0,356.5 h 388.3 V 10262 h -388.3 z m 0,356.6 h 388.3 v -271.9 h -388.3 z m 0,304.6 h 388.3 v -220 h -388.3 z m 0,356.5 h 388.3 v -271.9 h -388.3 z m 0,356.6 h 388.3 v -271.9 h -388.3 z m 0,356.5 h 388.3 v -271.9 h -388.3 z m 0,356.6 h 388.3 v -271.9 h -388.3 z m 0,356.5 h 388.3 v -271.9 h -388.3 z m 541.6,-628.4 v 271.9 h 422.2 v -271.9 z m 0,-356.6 v 271.9 h 422.2 v -271.9 z m 0,-356.5 v 271.9 h 422.2 v -271.9 z m 0,-356.6 v 271.9 h 422.2 v -271.9 z m 0,-304.6 v 220 h 422.2 v -220 z m 0,-356.5 v 271.9 h 422.2 v -271.9 z m 0,-356.6 v 271.9 h 422.2 V 10262 Z m 0,-356.5 v 271.9 h 422.2 v -271.9 z m 0,-356.6 v 271.9 h 422.2 v -271.9 z m 0,-356.5 v 271.9 h 422.2 v -271.9 z m 0,-344.1 v 259.5 h 422.2 v -259.5 z m 0,-356.6 v 271.9 h 422.2 v -271.9 z m 0,-356.5 v 271.9 h 422.2 v -271.9 z m 0,-356.6 v 271.9 h 422.2 v -271.9 z m 0,-356.5 V 7694 h 422.2 v -271.9 z m 0,-356.6 v 272 h 422.2 v -272 z m 0,-304.6 v 220 h 422.2 v -220 z m 0,-356.5 v 271.9 h 422.2 v -271.9 z m 0,-356.6 v 271.9 h 422.2 v -271.9 z m 0,-356.5 v 271.9 h 422.2 v -271.9 z m 0,-356.6 v 272 h 422.2 v -272 z m 0,-356.5 v 271.9 h 422.2 v -271.9 z m 0,-327.2 v 242.6 h 422.2 V 4651 Z m 0,-356.5 v 271.9 h 422.2 v -271.9 z m 0,-356.6 v 271.9 h 422.2 v -271.9 z m 0,-356.5 v 271.9 h 422.2 v -271.9 z m 0,-356.6 v 271.9 h 422.2 v -271.9 z m 0,-356.5 v 271.9 h 422.2 v -271.9 z m 0,-304.6 v 220 h 422.2 v -220 z m 422.2,-441.2 v -271.9 h -422.2 v 271.9 z m -422.2,84.6 V 2479 h 422.2 v -271.9 z m 422.2,10770.7 v -271.9 h -422.2 v 271.9 z m 880,0 v 84.6 h -185.2 v 558.5 h -153.3 v -558.5 h -388.3 v 558.5 h -153.2 v -558.5 h -422.2 v 558.5 h -153.3 v -558.5 h -388.3 v 558.5 h -153.3 v -558.5 h -203 v -84.6 h 203 v -271.9 h -203 v -84.6 h 203 v -271.9 h -203 v -84.7 h 203 v -271.9 h -203 v -84.6 h 203 v -271.9 h -203 v -84.7 h 203 v -271.9 h -203 v -84.6 h 203 v -220 h -203 v -84.6 h 203 v -271.9 h -203 v -84.7 h 203 V 10262 h -203 v -84.6 h 203 v -271.9 h -203 v -84.7 h 203 v -271.9 h -203 v -84.6 h 203 v -271.9 h -203 v -84.6 h 203 v -259.5 h -203 v -84.7 h 203 v -271.9 h -203 v -84.6 h 203 v -271.9 h -203 v -84.7 h 203 v -271.9 h -203 V 7694 h 203 v -271.9 h -203 v -84.6 h 203 v -272 h -203 v -84.6 h 203 v -220 h -203 v -84.6 h 203 v -271.9 h -203 v -84.7 h 203 v -271.9 h -203 v -84.6 h 203 v -271.9 h -203 v -84.6 h 203 v -272 h -203 v -84.6 h 203 v -271.9 h -203 v -84.6 h 203 V 4651 h -203 v -84.6 h 203 v -271.9 h -203 v -84.7 h 203 v -271.9 h -203 v -84.6 h 203 v -271.9 h -203 v -84.7 h 203 v -271.9 h -203 v -84.6 h 203 v -271.9 h -203 v -84.6 h 203 v -220 h -203 V 2479 h 203 v -271.9 h -203 v -84.6 h 203 v -271.9 h -203 v -84.7 h 2200.1 v 84.7 h -185.2 v 271.9 h 185.2 v 84.6 h -185.2 V 2479 h 185.2 v 84.7 h -185.2 v 220 h 185.2 v 84.6 h -185.2 v 271.9 h 185.2 v 84.6 h -185.2 v 271.9 h 185.2 v 84.7 h -185.2 v 271.9 h 185.2 v 84.6 h -185.2 v 271.9 h 185.2 v 84.7 h -185.2 v 271.9 h 185.2 v 84.6 h -185.2 v 242.6 h 185.2 v 84.6 h -185.2 v 271.9 h 185.2 v 84.6 h -185.2 v 272 h 185.2 v 84.6 h -185.2 v 271.9 h 185.2 v 84.6 h -185.2 v 271.9 h 185.2 v 84.7 h -185.2 v 271.9 h 185.2 v 84.6 h -185.2 v 220 h 185.2 v 84.6 h -185.2 v 272 h 185.2 v 84.6 h -185.2 V 7694 h 185.2 v 84.6 h -185.2 v 271.9 h 185.2 v 84.7 h -185.2 v 271.9 h 185.2 v 84.6 h -185.2 v 271.9 h 185.2 v 84.7 h -185.2 v 259.5 h 185.2 v 84.6 h -185.2 v 271.9 h 185.2 v 84.6 h -185.2 v 271.9 h 185.2 v 84.7 h -185.2 v 271.9 h 185.2 v 84.6 h -185.2 v 271.9 h 185.2 v 84.7 h -185.2 v 271.9 h 185.2 v 84.6 h -185.2 v 220 h 185.2 v 84.6 h -185.2 v 271.9 h 185.2 v 84.7 h -185.2 v 271.9 h 185.2 v 84.6 h -185.2 v 271.9 h 185.2 v 84.7 h -185.2 v 271.9 h 185.2 v 84.6 h -185.2 v 271.9 h 185.2"/>
      <g transform="scale(1.1132)" id="g280">
        <path id="path282" style="fill:#d2e4ff;fill-opacity:1;fill-rule:nonzero;stroke:none" d="m 12926,15432.6 h 48.8 v 867.4 h -48.8 v -867.4"/>
      </g>
      <g transform="scale(1.1132)" id="g284">
        <path id="path286" style="fill:#d2e4ff;fill-opacity:1;fill-rule:nonzero;stroke:none" d="m 15625.7,15432.6 h 48.7 v 867.4 h -48.7 v -867.4"/>
      </g>
      <g transform="scale(1.1132)" id="g288">
        <path id="path290" style="fill:#d2e4ff;fill-opacity:1;fill-rule:nonzero;stroke:none" d="m 13267.2,15432.6 h 48.7 v 867.4 h -48.7 v -867.4"/>
      </g>
      <g transform="scale(1.1132)" id="g292">
        <path id="path294" style="fill:#d2e4ff;fill-opacity:1;fill-rule:nonzero;stroke:none" d="m 15869.4,16300 v -867.4 h 48.7 v 867.4 h -48.7"/>
      </g>
      <path id="path296" style="fill:#2b478b;fill-opacity:1;fill-rule:nonzero;stroke:none" d="m 6761.49,3912.4 c -17.29,4 -34.66,-6.9 -38.62,-24.2 L 6430.05,2609.4 c -79.08,-2.4 -159.5,-88 -186.81,-207.3 l -27.9,-121.8 c -1.45,-6.4 -3.2,-14 -3.81,-20.5 l 325.17,-74.5 c 3.12,6 4.87,13.6 6.32,19.9 l 27.9,121.9 c 27.24,118.9 -7.64,230.8 -78.05,267.7 l 292.85,1279 c 3.96,17.3 -6.95,34.7 -24.23,38.6"/>
      <path id="path298" style="fill:#e69d43;fill-opacity:1;fill-rule:nonzero;stroke:none" d="m 5910.53,2261.8 c 0,0 675.36,174.9 890.99,32.5 215.63,-142.4 -109.85,-292.9 -109.85,-292.9 l -781.14,260.4"/>
      <path id="path300" style="fill:#ffa412;fill-opacity:1;fill-rule:nonzero;stroke:none" d="m 11126,9973.5 c -129.1,-395.2 -832.7,-1078.2 -929.9,-1146.3 0,0 -163.7,272.8 -131,425.6 26.7,124.7 300.7,569.3 394.4,787.8 4.9,11.4 9.3,22.2 13.1,32.2 12.9,33.5 19.7,59.5 18.1,74.9 -4.7,47.5 -153.8,162.9 -327.3,299.9 -225.32,178.1 -491.61,392.3 -534.83,540.4 -76.39,261.9 -341.04,1299 -341.04,1299 0,0 657.53,-142.2 843.07,-305.9 185.5,-163.7 982.2,-1527.8 1014.9,-1877.1 3.6,-38 -3.6,-82.1 -19.5,-130.5"/>
      <path id="path302" style="fill:#d9935c;fill-opacity:1;fill-rule:nonzero;stroke:none" d="m 11126,9973.5 c -129.1,-395.2 -832.7,-1078.2 -929.9,-1146.3 0,0 -163.7,272.8 -131,425.6 28.2,131.2 329.8,616.4 407.5,820 116.9,20.3 391.4,45.2 653.4,-99.3"/>
      <path id="path304" style="fill:#d9935c;fill-opacity:1;fill-rule:nonzero;stroke:none" d="m 9287.75,12378.2 -0.44,-80.6 c 0,0 21.94,-251.8 -288.22,-288.6 -310.15,-36.9 -543.7,75.6 -535.3,270 27.94,150.5 57.19,276.4 59.26,400.9 0.77,46.3 -2.4,95.4 -11.02,150.9 l 601,12 177.01,-29 -2.29,-435.6"/>
      <path id="path306" style="fill:#cb7d45;fill-opacity:1;fill-rule:nonzero;stroke:none" d="m 9290.04,12813.8 -2.29,-435.6 c -63.84,-29.7 -135.87,-47.8 -216.63,-47.8 -276.22,0 -454.76,202.5 -548.07,349.5 0.77,46.3 -2.4,95.4 -11.02,150.9 l 601,12 177.01,-29"/>
      <path id="path308" style="fill:#233862;fill-opacity:1;fill-rule:nonzero;stroke:none" d="m 8758.01,1698 c 0,0 -29.17,227.3 -96.73,362.4 -67.55,135.1 -497.46,49.1 -497.46,49.1 0,0 -85.98,-73.7 -104.41,-417.6 l 698.6,6.1"/>
      <path id="path310" style="fill:#233862;fill-opacity:1;fill-rule:nonzero;stroke:none" d="m 10222.7,1698.8 c -101,61.6 -43.5,521.6 -43.5,521.6 0,0 470.7,376.6 535.4,88.3 64.7,-288.3 447.2,-417.8 664.9,-453.1 150.3,-24.4 196.8,-107.6 211.2,-156.8 h -1368"/>
      <path id="path312" style="fill:#2b478b;fill-opacity:1;fill-rule:nonzero;stroke:none" d="m 9247.74,5095.4 c 19.16,-105.6 31.32,-192.2 34.55,-254.3 43.75,-853.5 718.41,-2805 839.11,-2850.5 186.8,-70.5 480.8,79.3 634.7,128.3 63.7,20.4 106.7,84.7 92.5,149.9 -334.1,1536.1 -456.9,3747.9 -501.6,5057.4 -22.5,659.6 -135.7,1115.3 -135.7,1115.3 0,0 -1645.64,439 -1655.4,-116.4 -8.66,-491.4 545.09,-2418.9 691.84,-3229.7"/>
      <path id="path314" style="fill:#233862;fill-opacity:1;fill-rule:nonzero;stroke:none" d="M 9247.74,5095.4 10347,7326.2 c -22.5,659.6 -135.7,1115.3 -135.7,1115.3 0,0 -1645.64,439 -1655.4,-116.4 -8.66,-491.4 545.09,-2418.9 691.84,-3229.7"/>
      <path id="path316" style="fill:#2b478b;fill-opacity:1;fill-rule:nonzero;stroke:none" d="m 9613.87,8323.2 -869.92,-6305 c 0,0 -382.03,-92.1 -679.16,-18.4 0,0 -254.68,3353.3 -233.46,4163.9 21.22,810.7 -182.79,2169.3 46.56,2319.1 229.35,149.8 1735.98,-159.6 1735.98,-159.6"/>
      <path id="path318" style="fill:#ffa412;fill-opacity:1;fill-rule:nonzero;stroke:none" d="m 10258.6,8311.5 c 0,0 -444.5,-259.2 -1088.39,-251.9 -251,2.9 -469.38,21.6 -654.69,49.3 -516.42,76.6 -777.03,220.7 -774.95,274.4 1.74,48.5 5.12,209.5 11.24,278.7 82.06,946.4 39.61,1682.5 150.06,2235.4 1.3,6.7 2.61,13.4 4.03,19.9 146.13,703.1 375.2,1107 488.92,1272.6 41.58,60.5 67.66,89.1 68.97,89.1 0,-131.2 279.38,-244.5 507.15,-229.6 191.85,12.5 316.37,158.4 316.37,237.4 l 0.22,0.2 c 15.72,0 865.47,-590.6 866.17,-1139.4 3,-2459.7 152,-2836.9 104.9,-2836.1"/>
      <path id="path320" style="fill:#e27f2b;fill-opacity:1;fill-rule:nonzero;stroke:none" d="m 8516.72,8116.9 c -0.44,-2.7 -0.76,-5.4 -1.2,-8 -516.42,76.6 -777.03,220.7 -774.95,274.4 1.74,48.5 5.12,209.5 11.24,278.7 82.06,946.4 39.61,1682.5 150.06,2235.4 271.08,-362.3 828.32,-1311.2 614.85,-2780.5"/>
      <path id="path322" style="fill:#e9f3fe;fill-opacity:1;fill-rule:nonzero;stroke:none" d="m 9931.32,9293.4 -69.41,-231 -68.97,-229.1 -2995.72,901.1 c -4.26,-0.2 -8.4,0.2 -12.33,1.4 -4.15,1.2 -7.97,3.2 -11.57,5.7 -37.76,26.7 -44.64,124.6 -15.61,234.9 1.53,6.1 3.28,12.3 5.13,18.5 35.04,118.6 98.77,206.3 147.66,207.1 4.04,0.1 7.86,-0.4 11.68,-1.5 3.93,-1.2 7.53,-3 11.02,-5.4 l 2998.12,-901.7"/>
      <path id="path324" style="fill:#bed4f4;fill-opacity:1;fill-rule:nonzero;stroke:none" d="m 9861.91,9062.4 -68.97,-229.1 -2995.72,901.1 c -4.26,-0.2 -8.4,0.2 -12.33,1.4 -4.15,1.2 -7.97,3.2 -11.57,5.7 -37.76,26.7 -44.64,124.6 -15.61,234.9 122.45,-91.9 707.3,-498.4 1705.54,-696.1 1031.86,-204.4 1351.19,-217.2 1398.66,-217.9"/>
      <path id="path326" style="fill:#afcdfb;fill-opacity:1;fill-rule:nonzero;stroke:none" d="m 9937.07,9294.7 c -50.1,14.8 -121.44,-77.3 -159.35,-205.6 -37.9,-128.3 -28.02,-244.4 22.08,-259.2 50.1,-14.8 121.44,77.3 159.34,205.6 37.91,128.4 28.02,244.4 -22.07,259.2"/>
      <path id="path328" style="fill:#e9f3fe;fill-opacity:1;fill-rule:nonzero;stroke:none" d="m 6954.91,10279.8 -353.16,57.3 c -3.82,1.8 -7.53,3.1 -11.67,3.8 -3.93,0.5 -7.75,0.6 -11.68,0 -48.45,-7.2 -100.07,-102.5 -119.28,-224.7 -1.09,-6.5 -1.97,-12.7 -2.73,-19 -6.88,-54.2 -5.9,-104.3 1.31,-144.3 7.86,-42.9 23.03,-74.1 43.76,-85.8 l 1.2,-0.8 c 3.93,-2 7.97,-3.4 12.22,-4.1 4.04,-0.6 8.19,-0.5 12.44,0.2 l 3087.94,-501 38.3,236.2 38.53,238 -2737.18,444.2"/>
      <path id="path330" style="fill:#bed4f4;fill-opacity:1;fill-rule:nonzero;stroke:none" d="m 8238.43,9630.4 c -660.48,42.5 -1010.57,391.7 -1283.52,649.4 l -353.16,57.3 c -3.82,1.8 -7.53,3.1 -11.67,3.8 -3.93,0.5 -7.75,0.6 -11.68,0 -48.45,-7.2 -100.07,-102.5 -119.28,-224.7 -1.09,-6.5 -1.97,-12.7 -2.73,-19 -6.88,-54.2 -5.9,-104.3 1.31,-144.3 16.59,-46.9 33.61,-78.8 43.76,-85.8 l 1.2,-0.8 c 3.93,-2 7.97,-3.4 12.22,-4.1 4.04,-0.6 8.19,-0.5 12.44,0.2 l 3087.94,-501 38.3,236.2 c -47.14,-5.6 -365.37,-34.7 -1415.13,32.8"/>
      <path id="path332" style="fill:#afcdfb;fill-opacity:1;fill-rule:nonzero;stroke:none" d="m 9697.67,9837.7 c -51.61,8.1 -110.28,-92.5 -131.05,-224.7 -20.77,-132.2 4.22,-245.9 55.83,-254 51.6,-8.2 110.27,92.4 131.05,224.6 20.76,132.2 -4.23,246 -55.83,254.1"/>
      <path id="path334" style="fill:#d9935c;fill-opacity:1;fill-rule:nonzero;stroke:none" d="m 8599.12,8929 c -716.24,113.9 -1189.67,414.1 -1384.04,559.2 -66.35,49.6 -100.18,81.1 -100.18,81.1 -367.01,771.6 296.96,2124.4 418.31,2353.7 130.96,247.3 930.58,356 930.58,356 0,0 -127.69,-375.7 -177.56,-865.3 -49.87,-489.7 -582.01,-1444.2 -560.18,-1524.3 5.45,-20.2 69.74,-62.6 163.48,-116 277.97,-158.3 815.12,-413.4 847.75,-473.3 43.65,-80 -138.16,-371.1 -138.16,-371.1"/>
      <path id="path336" style="fill:#d9935c;fill-opacity:1;fill-rule:nonzero;stroke:none" d="m 8737.32,9300.1 c 0,0 400.16,160.1 498.37,94.6 98.23,-65.5 261.93,-163.7 261.93,-229.2 0,-65.5 -207.36,-240.1 -381.98,-294.7 -174.6,-54.5 -516.56,58.2 -516.56,58.2 l 138.24,371.1"/>
      <path id="path338" style="fill:#ffa412;fill-opacity:1;fill-rule:nonzero;stroke:none" d="m 8286.23,11413.7 c -49.87,-489.7 -582.01,-1444.2 -560.18,-1524.3 5.45,-20.2 69.74,-62.6 163.48,-116 -5.89,-0.5 -11.89,-0.6 -18.01,-0.4 -418.63,18.5 -608.09,-213.1 -656.44,-284.8 -66.35,49.6 -100.18,81.1 -100.18,81.1 -367.01,771.6 296.96,2124.4 418.31,2353.7 130.96,247.3 930.58,356 930.58,356 0,0 -127.69,-375.7 -177.56,-865.3"/>
      <path id="path340" style="fill:#d9935c;fill-opacity:1;fill-rule:nonzero;stroke:none" d="m 9325.12,12602.1 c 0,0 -769.72,-155.5 -859.18,325.4 -89.45,480.8 -249.05,784.6 238.62,904.2 487.67,119.6 617.56,-46.1 686.46,-199.3 68.89,-153.2 132.02,-977.4 -65.9,-1030.3"/>
      <path id="path342" style="fill:#233862;fill-opacity:1;fill-rule:nonzero;stroke:none" d="m 8481.32,12788.8 c 0,0 -148.81,317.6 -272.91,458.6 -124.1,141.1 -56.41,846.2 479.48,823.6 535.89,-22.5 727.69,-406.1 733.33,-479.4 5.64,-73.4 -428.72,-17 -547.18,-112.9 -118.45,-95.9 -5.64,-253.8 -141.02,-310.2 -135.38,-56.4 -242.56,-56.4 -220,-180.5 22.57,-124.1 -31.7,-199.2 -31.7,-199.2"/>
      <path id="path344" style="fill:#ffa412;fill-opacity:1;fill-rule:nonzero;stroke:none" d="m 8646.7,14398.4 c -153.33,-38.5 -268.36,-100 -354.25,-174.1 -8.51,-7.3 -16.81,-14.9 -24.77,-22.5 l -0.11,-0.1 c -317.79,-303.1 -190.98,-785.4 -190.98,-785.4 0,0 42.31,-121.9 71.41,-169.2 29.1,-47.3 451.08,7.3 472.91,98.2 21.82,91 105.5,185.5 105.5,185.5 0,0 444.8,30.6 474.72,32.8 100.49,7.3 387.28,107 387.28,107 -3.27,28.2 -164.68,923 -941.71,727.8"/>
      <path id="path346" style="fill:#e27f2b;fill-opacity:1;fill-rule:nonzero;stroke:none" d="m 9851.92,13765.2 c -53.37,13 -144.35,27.5 -294.28,33 0,0 -125.9,-104.3 -376.18,-183.8 -117.63,148.3 -452.7,505.4 -889.01,609.9 -1.31,0.3 -2.51,0.6 -3.82,1 -9.27,-11.7 -14.51,-15.6 -20.95,-23.5 l -0.11,-0.1 c -1.96,-2.3 -4.04,-5 -6.33,-8.4 355.19,-61.9 692.79,-460.8 808.66,-610.2 -99.43,-24.4 -213.81,-43.7 -343.49,-52.3 0,0 777.41,-14.5 1132.73,172.6 27.07,14.3 22.51,54.5 -7.22,61.8"/>
      <path id="path348" style="fill:#e27f2b;fill-opacity:1;fill-rule:nonzero;stroke:none" d="m 10643.5,10235 c -14.4,-81.6 -58.4,-167.5 -184,-194.4 4.9,11.4 9.3,22.2 13.1,32.2 12.9,33.5 19.7,59.5 18.1,74.9 -4.7,47.5 -153.8,162.9 -327.3,299.9 -14.3,77.7 -49.2,308.3 -0.1,491.3 60.1,223.7 496.6,-611.1 480.2,-703.9"/>
      <path id="path350" style="fill:#e27f2b;fill-opacity:1;fill-rule:nonzero;stroke:none" d="m 7806.04,9828.5 c 0,0 -534.75,43.6 -709.37,-267.4 0,0 14.92,-104.9 118.41,-72.9 0,0 452.37,309.2 674.45,285.2 0,0 -34.37,54.2 -83.49,55.1"/>
      <path id="path352" style="fill:#e27f2b;fill-opacity:1;fill-rule:nonzero;stroke:none" d="m 10459.5,10040.6 c 0,0 277.5,-11.6 626.7,-163.7 0,0 77.5,76.2 46.6,119.8 -30.9,43.7 -522.6,200.6 -673.3,43.9"/>
      <path id="path354" style="fill:#d9935c;fill-opacity:1;fill-rule:nonzero;stroke:none" d="m 14310.6,11857.3 c 240.4,1232.3 460.8,2412.1 460.8,2412.1 0,0 -684.4,-103.7 -979.1,-349.3 -294.6,-245.5 -324.4,-1809.1 -422.6,-2251.1 -19.4,-86.7 -36.7,-226.9 -51.7,-397.6 -55.8,-635.6 13.7,-1587.6 66.3,-1854.5 -3.4,-25.6 -25.2,-151.6 -141.2,-393.3 0,0 -60.1,-185.5 332.8,-463.8 250.4,-177.4 473.6,1958 734.7,3297.5"/>
      <path id="path356" style="fill:#739af0;fill-opacity:1;fill-rule:nonzero;stroke:none" d="m 14771.4,14269.4 c 0,0 -127.1,-680 -293.4,-1546.6 -52.7,-275 -109.4,-568.7 -167.4,-865.5 -235.5,-461.7 -437.6,-775.5 -500,-716.5 -127.4,120.3 -351,135.1 -492.6,130.6 15,170.7 32.3,310.9 51.7,397.6 7.7,34.9 15,76.9 22.1,124.5 82.4,556.2 129.1,1900.5 400.5,2126.6 294.7,245.6 979.1,349.3 979.1,349.3"/>
      <path id="path358" style="fill:#4a75cb;fill-opacity:1;fill-rule:nonzero;stroke:none" d="m 14478,12722.8 c -52.7,-275 -109.4,-568.7 -167.4,-865.5 -235.5,-461.7 -437.6,-775.5 -500,-716.5 -127.4,120.3 -351,135.1 -492.6,130.6 15,170.7 32.3,310.9 51.7,397.6 7.7,34.9 15,76.9 22.1,124.5 l 706.1,1704.6 380.1,-775.3"/>
      <path id="path360" style="fill:#d9935c;fill-opacity:1;fill-rule:nonzero;stroke:none" d="m 15748.7,14286.7 c 5.2,238 1.3,522.1 -30.9,762.1 l -949.7,-155.2 c 0,0 0,-289.8 4.2,-611.4 l -0.9,-0.1 c 0,0 -25.9,-298.4 341.5,-342 367.4,-43.7 645.7,116.4 635.8,346.6"/>
      <path id="path362" style="fill:#cb7d45;fill-opacity:1;fill-rule:nonzero;stroke:none" d="m 14765.5,14835 c 0,0 223.7,-458.4 480.2,-458.4 256.4,0 496.5,431.1 496.5,431.1 l -976.7,27.3"/>
      <path id="path364" style="fill:#233862;fill-opacity:1;fill-rule:nonzero;stroke:none" d="m 15398.5,1697.1 c 0,0 34.5,269.2 114.5,429.3 80.1,160 589.4,58.2 589.4,58.2 0,0 101.8,-87.3 123.7,-494.8 l -827.6,7.3"/>
      <path id="path366" style="fill:#233862;fill-opacity:1;fill-rule:nonzero;stroke:none" d="m 13663.3,1700.8 c 119.6,73 51.6,617.9 51.6,617.9 0,0 -557.7,446.1 -634.3,104.6 -76.7,-341.6 -529.8,-494.9 -787.7,-536.8 -178,-28.8 -233.1,-127.4 -250.2,-185.7 h 1620.6"/>
      <g transform="scale(1.01062)" id="g368">
        <path id="path370" style="fill:#233862;fill-opacity:1;fill-rule:nonzero;stroke:none" d="m 15672.7,15161.6 c 0,0 627.3,989.1 -577.2,1054.5 0,0 -451.8,-53.2 -554.1,49.1 0,0 -350.4,-532.6 -23.2,-1103.6 327.2,-571 1154.5,0 1154.5,0"/>
      </g>
      <path id="path372" style="fill:#d9935c;fill-opacity:1;fill-rule:nonzero;stroke:none" d="m 14796.3,14801 c 92.3,-72.6 362.9,-144.7 441.1,-153.1 0,0 401.2,89.4 474.1,133.4 113,68.5 105.7,207.1 111.5,399.8 7,228 29.9,407.1 4.5,538.6 -30.3,157.3 -130,246.8 -409.2,271.1 -512.5,44.5 -726,-83.9 -734.9,-255.7 -2.4,-46.2 -4.5,-90.2 -6,-131.8 -20.5,-535.9 21.8,-725.9 118.9,-802.3"/>
      <path id="path374" style="fill:#2b478b;fill-opacity:1;fill-rule:nonzero;stroke:none" d="m 14818.3,5749.9 c -22.7,-125 -37.1,-227.6 -40.9,-301.2 -51.9,-1011.1 -851.2,-3323 -994.1,-3376.9 -221.2,-83.5 -569.6,94 -751.8,152 -75.6,24.1 -126.5,100.3 -109.7,177.6 395.8,1819.7 541.3,4440 594.2,5991.3 26.7,781.4 160.9,1321.2 160.9,1321.2 0,0 1949.4,520.1 1961,-137.8 10.3,-582.3 -645.8,-2865.7 -819.6,-3826.2"/>
      <path id="path376" style="fill:#233862;fill-opacity:1;fill-rule:nonzero;stroke:none" d="M 14818.3,5749.9 13516,8392.7 c 26.7,781.4 160.9,1321.2 160.9,1321.2 0,0 1949.4,520.1 1961,-137.8 10.3,-582.3 -645.8,-2865.7 -819.6,-3826.2"/>
      <g transform="scale(1.02533)" id="g378">
        <path id="path380" style="fill:#2b478b;fill-opacity:1;fill-rule:nonzero;stroke:none" d="m 14029.3,9337.23 1005.1,-7284.61 c 0,0 441.4,-106.5 784.7,-21.36 0,0 294.2,3874.38 269.7,4811.06 -24.5,936.58 211.2,2506.33 -53.8,2679.44 -265,173.02 -2005.7,-184.53 -2005.7,-184.53"/>
      </g>
      <g transform="scale(1.01826)" id="g382">
        <path id="path384" style="fill:#ffa412;fill-opacity:1;fill-rule:nonzero;stroke:none" d="m 16291.7,9587.79 c 3.3,-85.04 -64,-155.85 -148.9,-157.13 l -1594.9,-24.35 -1171.4,-17.88 c -54.9,-0.98 118.5,437.92 122.1,3299.57 0.9,638.5 989.4,1325.6 1007.7,1325.6 l 0.2,-0.2 c 0,-91.9 144.8,-261.7 368.1,-276.3 264.9,-17.4 590,114.5 590,267.1 0,1.7 30.7,-31.6 80.3,-103.6 132.2,-192.8 398.6,-662.6 568.7,-1480.6 134.4,-645.9 82.7,-1509.6 179.3,-2623.91 7.1,-80.43 -3.3,-151.93 -1.2,-208.3"/>
      </g>
      <g transform="scale(1.01937)" id="g386">
        <path id="path388" style="fill:#739af0;fill-opacity:1;fill-rule:nonzero;stroke:none" d="m 16215.1,9411.46 c 0,0 -211.8,-94.86 -607.9,-176.97 -294.5,-61.12 -690.8,-115.27 -1177.7,-118.21 -774.4,-5 -1067.6,261.93 -1067.6,261.93 -54.8,-0.98 118.4,437.44 122,3295.89 0.8,637.9 988.3,1324.3 1006.6,1324.3 l 0.2,-0.3 c 0,0 -25.5,-849.4 231.5,-1099.1 0,0 360.4,278.3 827.9,1070.6 132.1,-192.5 376,-746 546,-1563.1 34.5,-166.3 56.8,-346.9 72.4,-542.5 45.1,-563.8 35,-1252.1 106.7,-2078.59 7,-80.34 -3.4,-151.75 -1.3,-208.07 3.3,-84.95 26.1,-164.51 -58.8,-165.88"/>
      </g>
      <g transform="scale(1.01937)" id="g390">
        <path id="path392" style="fill:#4a75cb;fill-opacity:1;fill-rule:nonzero;stroke:none" d="m 16215.1,9411.46 c 0,0 -211.8,-94.86 -607.9,-176.97 -124.6,190.11 -281.6,533.07 -303.3,1073.61 -36.9,914.1 831.4,2091.3 831.4,2091.3 l 33.2,-535.4 c 45.1,-563.8 35,-1252.1 106.7,-2078.59 7,-80.34 -3.4,-151.75 -1.3,-208.07 3.3,-84.95 26.1,-164.51 -58.8,-165.88"/>
      </g>
      <g transform="scale(1.04034)" id="g394">
        <path id="path396" style="fill:#2b478b;fill-opacity:1;fill-rule:nonzero;stroke:none" d="m 15151.5,12254.6 -1450.3,-837.3 1148.6,-1989.3 1450.2,837.3 -1148.5,1989.3"/>
      </g>
      <g transform="scale(1.0783)" id="g398">
        <path id="path400" style="fill:#d9935c;fill-opacity:1;fill-rule:nonzero;stroke:none" d="m 15489.7,12943 c -171.3,129.6 -573.8,221.5 -771.9,260.5 -69.8,13.8 -114.3,21 -114.3,21 20.7,-95.3 67.2,-244.7 127.9,-424 254.4,-751.7 758.7,-2029.8 657.2,-2057.1 -82.8,-22.1 -188.5,-41.7 -304.9,-58.7 -442.3,-64.7 -1037.6,-93.4 -1099.8,-96.3 -5,4.6 -217,202.2 -299.5,202.2 -83.6,0 -324.3,-87.7 -348.9,-155.2 -24.5,-67.4 -34.3,-188.9 34.4,-215.9 68.8,-27 353.7,-94.4 427.5,-101.2 10.1,-0.9 22.2,-0.9 35.4,0.3 529.3,-155.6 984.9,-231.9 1336,-268 489.8,-50.3 776.4,-22.4 776.4,-22.4 354.8,763.7 -223.7,2739.6 -455.5,2914.8"/>
      </g>
      <g transform="scale(1.0783)" id="g402">
        <path id="path404" style="fill:#739af0;fill-opacity:1;fill-rule:nonzero;stroke:none" d="m 15945.2,10028.2 c 0,0 -286.6,-27.9 -776.4,22.4 27.1,133.1 52.1,393 -85.1,634.1 116.4,17 222.1,36.6 304.9,58.7 101.5,27.3 -402.8,1305.4 -657.2,2057.1 -20.4,243 -31,405.7 -31,405.7 l 17.4,-2.7 c 198.1,-39 600.6,-130.9 771.9,-260.5 231.8,-175.2 810.3,-2151.1 455.5,-2914.8"/>
      </g>
      <path id="path406" style="fill:#4a75cb;fill-opacity:1;fill-rule:nonzero;stroke:none" d="m 15007.4,13148.9 c 0,0 734.8,323.7 745.7,349.2 11,25.5 -36.3,221.9 -87.3,280.1 0,0 352.9,-32.7 374.7,10.9 21.9,43.7 38.2,402.8 38.2,402.8 0,0 -146.9,152.1 -328.7,166.6 0,0 -159.7,-396.8 -218.8,-514.8 -156.4,-312.9 -523.8,-694.8 -523.8,-694.8"/>
      <path id="path408" style="fill:#4a75cb;fill-opacity:1;fill-rule:nonzero;stroke:none" d="m 14832.8,13789.1 c 0,0 47.3,-378.3 174.6,-640.2 0,0 -383.8,267.4 -416.5,354.7 -32.8,87.3 92.7,256.4 92.7,256.4 0,0 -229.2,5.5 -234.6,81.9 -5.5,76.4 70.9,376.5 70.9,376.5 0,0 197.2,143.9 251.7,138.5 l 61.2,-567.8"/>
      <g transform="scale(1.04239)" id="g410">
        <path id="path412" style="fill:#ffa412;fill-opacity:1;fill-rule:nonzero;stroke:none" d="m 15423,15233.6 -1565.6,-16.7 c 0,0 -23,472.1 248.3,773.1 12.5,13.9 25.5,27.4 39.4,40.5 58.5,55.6 129.1,103.6 213.9,139 312.9,130.5 572.4,10 734.6,-113.4 15.9,-12 31,-24.2 45,-36.3 88.2,-74.9 137.4,-141.8 137.4,-141.8 0,0 152,-207.3 147,-644.4"/>
      </g>
      <g transform="scale(1.02571)" id="g414">
        <path id="path416" style="fill:#e27f2b;fill-opacity:1;fill-rule:nonzero;stroke:none" d="m 15226.9,15476.7 c -4.4,64.6 -32.4,614.8 160.8,801.3 -14.1,12.2 -10.1,9.7 -26.3,22 -206.1,-214.5 -222.5,-755.9 -221.6,-824.3 l -508.7,-5.4 c -15.1,389.7 -230,777.7 -255.9,821 -14.1,-13.4 -16.7,-16 -29.3,-30.2 37.3,-65.6 177.7,-441.3 191.2,-791.8 l -454.3,-4.9 c 0,0 423.7,-109.5 742.9,-105.5 319.1,3.9 848.1,122.6 848.1,122.6 l -446.9,-4.8"/>
      </g>
    </g>
  </g>
</svg>