<?xml version="1.0" encoding="utf-8"?>
<svg viewBox="0 0 1466.6667 1066.6667" height="1066.6667" width="1466.6667" id="svg2" version="1.1" xmlns="http://www.w3.org/2000/svg">
  <g transform="matrix(1.3333333,0,0,-1.3333333,0,1066.6667)" id="g10">
    <g transform="scale(0.1)" id="g12">
      <path id="path18" style="fill:#eac1a4;fill-opacity:1;fill-rule:nonzero;stroke:none" d="m 3718.66,4972.54 c 1.43,1.2 2.97,2.57 4.63,4.26 15.59,15.98 22.89,40.52 19.27,62.43 -13.72,3.43 -27.43,6.86 -41.14,10.29 -7.13,-15.53 -16.74,-29.91 -28.35,-42.44 -2.61,-2.82 -5.85,-5.75 -9.67,-5.42 -3.61,0.3 -6.26,3.4 -8.41,6.31 -31.48,42.57 -46.54,96.97 -41.43,149.67 -0.31,-3.13 -37.35,5.19 -40.66,6.28 -17.08,5.59 -21.21,6.08 -38.48,-0.05 -2.75,-0.56 -5.31,-1.48 -7.67,-2.72 -8.5,-3.01 -16.99,-6.02 -25.49,-9.03 -5.38,-1.91 -11.11,-4.08 -14.37,-8.76 -3.16,-4.56 -3.29,-10.51 -3.3,-16.06 -0.08,-49.71 -0.16,-99.43 -0.24,-149.14 0,-6.24 0.02,-12.66 2.38,-18.43 2.61,-6.4 7.82,-11.33 13.03,-15.86 23.97,-20.8 51.47,-37.53 80.96,-49.25 5.36,-2.12 11.05,-4.27 14.71,-8.74 2.84,-3.46 4.1,-7.92 5.3,-12.23 7.6,-27.49 15.21,-54.98 22.82,-82.47 34.77,11.74 71.49,17.72 108.2,17.6 5.36,37.65 0.85,76.65 -12.96,112.09 -3.96,10.16 -10.17,22.85 -9.52,34.04 0.6,10.48 4.47,12.63 10.39,17.63"/>
      <path id="path20" style="fill:#5d66d3;fill-opacity:1;fill-rule:nonzero;stroke:none" d="m 3570.11,4879.96 171.33,28.07 174.74,-478.23 412.82,70.32 -89.9,-550.24 -525.15,314.52 -143.84,615.56"/>
      <path id="path22" style="fill:#eacdb0;fill-opacity:1;fill-rule:nonzero;stroke:none" d="m 6418.89,2158.23 6.27,-381.11 c -2.56,-105.74 6.96,-211.15 13.39,-316.55 5.98,-97.89 -13.76,-198.79 32.69,-289.53 14.57,-28.44 45.57,-48.26 69.14,-15.4 18.17,25.33 9.82,69.15 14.3,98.55 33.74,220.94 96.53,436.39 127.86,657.74 32.81,231.87 -56.89,225.75 -263.65,246.3"/>
      <path id="path24" style="fill:#292949;fill-opacity:1;fill-rule:nonzero;stroke:none" d="m 6440.55,1236.19 -24.51,-63.57 120.57,-106.14 110.46,-4.55 35.71,58.28 -148.54,129.17 -93.69,-13.19"/>
      <path id="path26" style="fill:#eacdb0;fill-opacity:1;fill-rule:nonzero;stroke:none" d="m 6148.91,2154.51 -69.52,-374.78 c -24.1,-167.65 -78.86,-330.93 -102.96,-498.59 -5.54,-38.54 -2.75,-80.72 -18.86,-117.09 -15.76,-35.56 -46.61,-36.97 -73.84,-12.84 -36.47,32.33 -19.65,90.11 -18.97,134.28 4.45,294.23 -18.7,584.29 -24.26,878.99 -0.07,3.87 0.11,8.29 3.08,10.74 2.44,2.01 5.89,1.97 9.04,1.75 28.61,-1.91 294.78,-30.54 296.29,-22.46"/>
      <path id="path28" style="fill:#292949;fill-opacity:1;fill-rule:nonzero;stroke:none" d="m 5863.9,1220.55 -38.23,-56.41 93.51,-130.6 106.58,-29.37 47.95,48.72 -115.57,159.37 -94.24,8.29"/>
      <path id="path30" style="fill:#292949;fill-opacity:1;fill-rule:nonzero;stroke:none" d="m 6811.69,1915.73 -52,544.88 -25.07,354.01 -84.32,289.15 -455.22,70.65 -562.82,-96.47 -27.05,-109.35 108.31,-1012.17 542.86,-40.7 -7.36,629.98 83.73,-390.48 -3.55,-239.5 h 482.49"/>
      <path id="path32" style="fill:#ffffff;fill-opacity:1;fill-rule:nonzero;stroke:none" d="m 5751.74,4168.34 c -0.77,-18.4 -1.28,-36.79 -1.6,-55.14 -6.59,-373.74 14.01,-752.24 16.38,-1129.09 193,30.22 388.12,46.86 583.44,49.82 45.22,0.68 250.77,-31.07 279.39,-4.07 38.84,36.63 -3.87,29.73 -1.03,77.45 3.67,61.76 -26,112.33 -14.78,185.5 13.17,86 39.37,171.06 54.46,257.04 30.26,172.42 48.48,346.94 54.39,521.89 5.25,155.17 -0.38,316.1 -67.11,456.29 -164.56,345.71 -695.08,339.48 -840.65,-21.48 -43.12,-106.91 -58.09,-222.66 -62.89,-338.21"/>
      <path id="path34" style="fill:#eacdb0;fill-opacity:1;fill-rule:nonzero;stroke:none" d="m 6810.55,4907.93 c 65.24,66.05 99.36,141.94 135.41,238.14 26.81,71.58 50.87,144.35 74.58,217.01 15.67,48.06 29.71,90.08 36.72,139.48 5.86,41.35 36.22,95.77 3.88,133.38 9.4,15.79 34.73,18.54 47.3,5.14 1.98,-2.1 3.77,-4.59 6.46,-5.65 4.59,-1.82 9.67,1.29 13.04,4.91 9.83,10.58 12.79,25.59 17.54,39.25 7.65,22.01 20.47,57.59 39.46,71.7 15.4,11.44 34.43,16.64 52.95,21.6 3.43,0.92 7.18,1.82 10.44,0.42 2.75,-1.18 4.6,-3.78 6.29,-6.25 15.66,-22.84 33.53,-45.5 46.21,-69.77 -27.1,-17.44 -35.15,-47.38 -52.59,-72.92 -22.89,-33.54 -48.96,-59.09 -57.21,-100.81 -12.84,-64.83 -20.59,-130.61 -34.29,-195.41 -26.78,-126.61 -61.3,-251.29 -95.08,-376.16 -22.62,-82.67 -45.72,-167.25 -89.93,-241.47 -43.55,-73.09 -97.64,-113.49 -168.84,-160.01 -16.38,-10.7 -33.35,-21.63 -52.62,-24.96 -29.23,-5.04 -59.03,8.59 -81.25,28.24 -58.74,51.96 -70.02,149.4 -24.71,213.41 24.32,34.37 60.85,57.66 95.43,81.68 27.26,18.94 50.54,38.52 70.81,59.05"/>
      <path id="path36" style="fill:#8cabef;fill-opacity:1;fill-rule:nonzero;stroke:none" d="M 6350.38,4653.29 6206.3,4390.7 c 7.53,-265.27 15.06,-530.53 22.59,-795.81 3.46,-122.24 6.93,-244.5 10.41,-366.75 1.2,-42.45 2.25,-84.9 3.61,-127.35 0.61,-19.05 -4.65,-51.12 6.21,-66.67 23.59,-33.75 109.83,-23.23 147.44,-26.18 58.66,-4.62 118.19,-9.41 173.43,-29.67 36.8,-13.48 71.66,-33.79 110.46,-39.24 8.72,-1.22 18.47,-1.39 25.31,4.13 7.66,6.2 8.96,17.17 9.69,26.99 13.48,182.11 13.76,369.85 23.87,553.91 8.26,150.64 29.34,309.81 16.27,460.64 -0.22,2.51 -0.46,5.04 -0.92,7.52 -13.36,72.55 0,312.19 0,312.21 0.56,10.08 35.04,36.2 41.7,43.07 34.27,35.41 68.55,70.81 102.82,106.21 68.4,70.64 200.44,157.91 147.36,272.16 -6.45,13.89 -16.29,25.94 -26.74,37.13 -77.5,83.01 -176.55,129.55 -232.03,231.75 -97.08,-47.89 -176.2,-142.49 -279.46,-181.89 -53.76,-20.46 -110.61,-27.5 -166.81,-13.72 -33.06,8.1 -104.25,33.87 -86.37,-31.56 10.22,-37.44 69.97,-84.22 95.24,-114.29"/>
      <path id="path38" style="fill:#8cabef;fill-opacity:1;fill-rule:nonzero;stroke:none" d="M 6036.9,4628.59 6181,4366 c -3.02,0 -18.28,-643.69 -19.52,-687.13 -4.68,-165.24 -9.37,-330.46 -14.06,-495.7 -1.31,-45.91 4.87,-99.71 -4.12,-144.86 -12.54,-63.03 -78.89,-50.61 -135.43,-55.71 -123.66,-11.15 -253.88,-32.27 -377.88,-26.01 -35.77,1.81 11.31,748.32 11.24,817.99 -0.24,250.55 -51.93,528.54 75.34,755.75 37.03,66.11 102.32,172.09 174.38,204.73 67.15,30.42 163.28,35.59 236.18,52.64 l 3.8,-47.24 -94.03,-111.87"/>
      <path id="path40" style="fill:#292949;fill-opacity:1;fill-rule:nonzero;stroke:none" d="m 6349.64,5264.65 c 22.68,-39.76 33.62,-85.55 35.63,-131.28 0.54,-12.15 1.37,-26.2 11.2,-33.37 10.52,-7.69 1.27,-24.55 9.28,-14.27 8,10.28 35.19,45.99 36.41,58.96 2.86,30.39 2.82,61.05 -0.13,91.43 -2.57,26.42 -7.97,54.04 -25.26,74.18 -10.25,11.95 -23.93,20.34 -37.4,28.48 -19.55,11.81 -39.68,23.71 -62.11,27.89 -38.7,7.21 -62.42,-6.67 -28.29,-33.64 24.46,-19.32 45.13,-41.15 60.67,-68.38"/>
      <path id="path42" style="fill:#eacdb0;fill-opacity:1;fill-rule:nonzero;stroke:none" d="m 6107.97,4745.94 c 0.26,-18.71 -3.58,-38.13 12.94,-52.64 7.93,-6.98 18.66,-9.77 29.1,-11.43 26.98,-4.27 54.93,-2.29 81.03,5.75 10.75,3.31 21.45,7.8 29.56,15.58 9.58,9.2 10.06,17.92 10.52,29.95 0.54,14.11 3.39,28.45 5.24,42.76 4.03,31.29 5.85,62.83 6.76,94.35 46.33,7.95 100.84,22.93 116.69,71.48 4.99,15.3 5.17,31.93 5.29,48.2 0.49,67.26 0.98,134.51 1.47,201.77 0.17,23.27 0.23,47.24 -7.74,68.82 -13.98,37.88 -49.49,60.46 -84.33,74.67 -88.87,36.25 -192.48,34.8 -274.51,-16.76 -21.84,-13.73 -42.44,-31.37 -55.02,-55.34 -19.38,-36.94 -16.94,-82.56 -13.93,-125.19 2.78,-39.36 5.55,-78.71 8.34,-118.06 3.19,-45.27 9.99,-97.36 45.14,-121.27 18.65,-12.69 42.77,-15.02 58.86,-31.44 28.08,-28.67 14.69,-71.5 22.99,-106.24 1.16,-4.86 1.53,-9.88 1.6,-14.96"/>
      <path id="path44" style="fill:#292949;fill-opacity:1;fill-rule:nonzero;stroke:none" d="m 6253.65,4922.04 c -24.15,-16.23 -50.76,-17.11 -77.67,-9.01 -11.44,3.45 -6.59,22.65 4.87,19.2 22.3,-6.71 43.35,-6.54 63.46,6.97 10.11,6.81 19.39,-10.4 9.34,-17.16 z m 167.76,94.71 c -0.76,12.47 -6.2,49.02 -24.96,26.05 -4.91,-6 -6.12,-14.49 -6.42,-22.49 -0.3,-8 0.07,-16.23 -2.46,-23.76 -5.78,-17.28 -24.9,-25.15 -41.94,-24.85 -6.78,0.13 -13.69,1.24 -19.68,4.65 -5.81,3.31 -10.43,8.58 -14.93,13.74 -10.94,12.55 -21.88,25.1 -32.82,37.65 -18.8,21.57 -56.08,12.25 -81.4,8.93 -29.2,-3.8 -58.4,-12.61 -82.26,-31.82 -2.4,-1.93 -4.75,-3.98 -7.11,-6.01 -5.75,-4.95 -11.52,-9.87 -18.21,-13.12 -22.55,-10.98 -50.46,0.48 -66.26,21.01 -7.25,9.41 -14,21.52 -25.25,23.09 -8.79,1.23 -17.37,-5.07 -21.88,-13.31 -4.51,-8.23 -5.72,-18.05 -6.34,-27.59 -2.21,-34.74 2.57,-70.57 17.62,-101.38 32.66,-66.82 95.79,-75.03 159.24,-73.53 25.09,0.6 50.16,1.19 75.24,1.78 45.85,1.08 94.32,2.98 132.94,29.64 34.07,23.51 54.33,63.49 62.63,105.36 4.29,21.61 5.57,43.92 4.25,65.96"/>
      <path id="path46" style="fill:#292949;fill-opacity:1;fill-rule:nonzero;stroke:none" d="m 6430.98,5381.21 c 4.43,16.29 7.7,32.91 9.79,49.67 -15.52,-5.45 -32.42,-6.89 -48.64,-4.17 -0.04,9.67 -0.07,19.34 -0.11,29.02 -0.08,8.04 -108.89,13.67 -117.73,14.4 -82.78,6.79 -158.48,13.25 -233.33,-31.18 -63.95,-37.94 -104.93,-94.61 -114.75,-168.38 -9.36,-70.46 13.69,-162.5 54.44,-220.99 -0.23,18.76 -11.02,63.01 -6.6,80.84 2.72,17.87 8.89,35.1 17.41,51.01 17,31.75 43.34,58.48 73.77,77.55 48.52,30.41 104.93,46.49 161.26,54.34 51.63,7.19 114.53,13.82 165.52,0.15 24.51,-6.58 28.59,-12.73 43.43,12.02 2.62,4.36 23.37,55.3 21.34,55.33 -8.6,0.13 -17.2,0.25 -25.8,0.39"/>
      <path id="path48" style="fill:#bbbbbc;fill-opacity:1;fill-rule:nonzero;stroke:none" d="m 5155.18,6448.94 30.97,-262.28 c 5.27,-44.62 -28.23,-84.35 -74.83,-88.75 -46.6,-4.4 -88.64,28.2 -93.91,72.82 L 4986.44,6433 c -5.27,44.62 28.23,84.35 74.83,88.75 46.6,4.4 88.64,-28.2 93.91,-72.81"/>
      <path id="path50" style="fill:#dddddd;fill-opacity:1;fill-rule:nonzero;stroke:none" d="m 5186.6,6270.47 c -65.53,-27.16 -130.76,-54.96 -195.69,-83.38 -18.38,-8.04 -6.73,-36.47 11.83,-28.35 64.94,28.42 130.16,56.21 195.69,83.37 18.59,7.71 6.9,36.13 -11.83,28.36"/>
      <path id="path52" style="fill:#dddddd;fill-opacity:1;fill-rule:nonzero;stroke:none" d="m 5175.38,6365.47 c -65.53,-27.16 -130.76,-54.95 -195.69,-83.37 -18.38,-8.05 -6.72,-36.48 11.84,-28.35 64.93,28.41 130.15,56.21 195.68,83.37 18.59,7.7 6.9,36.12 -11.83,28.35"/>
      <path id="path54" style="fill:#dddddd;fill-opacity:1;fill-rule:nonzero;stroke:none" d="m 5155.7,6447.67 c -65.53,-27.17 -130.76,-54.96 -195.69,-83.38 -18.38,-8.04 -6.72,-36.47 11.84,-28.35 64.93,28.42 130.15,56.21 195.68,83.37 18.59,7.71 6.9,36.12 -11.83,28.36"/>
      <path id="path56" style="fill:#afbcc6;fill-opacity:1;fill-rule:nonzero;stroke:none" d="m 5105.19,6511.4 c -38.7,-10.87 -77.26,-22.22 -115.63,-34.23 -28.3,-8.84 -74.53,-14.77 -94.4,-40.07 -18.99,-24.17 -13.86,-67 -13.99,-95.8 -0.18,-39.88 2.29,-79.77 7.44,-119.28 4.62,-35.47 11.57,-70.55 20.17,-105.2 6.75,-27.14 14.59,-53.65 44.35,-61.28 64.57,-16.57 145.09,24.46 202.43,50.32 34.14,15.4 13.65,70.62 -20.76,55.1 -47.72,-21.52 -95.11,-42.2 -147.37,-47.88 -19.61,-2.14 -17.73,-0.7 -22.77,18.78 -3.79,14.64 -6.96,29.47 -9.82,44.33 -5,26.06 -8.85,52.38 -11.48,78.81 -2.62,26.44 -4.1,53.01 -4.37,79.59 -0.14,14.38 -1.12,31.1 0.84,45.25 2.74,19.74 3.84,18.08 19.41,25.87 22.98,11.49 52.22,16.81 76.67,24.28 29.91,9.13 59.93,17.85 90.02,26.31 36.06,10.14 15.12,65.18 -20.74,55.1"/>
      <path id="path58" style="fill:#afbcc6;fill-opacity:1;fill-rule:nonzero;stroke:none" d="m 5247.98,6533.94 c -29.1,-4.18 -56.87,-12.24 -86.04,-16.12 -4.61,-0.44 -9.18,-0.93 -13.66,-1.49 -38.78,-4.84 -35.57,-62.87 4.27,-59.65 10.31,0.83 20.54,1.89 30.73,3.24 24.61,1.31 48.59,-2.59 59.49,-27.74 14.31,-33.01 17.69,-73.72 19.9,-109.05 2.33,-37.44 0.3,-74.83 -6.35,-111.72 -3.93,-21.81 -0.88,-24.87 -22.28,-31.25 -19.06,-5.69 -38.21,-11.11 -57.31,-16.66 -19.45,-5.66 -23.59,-23.35 -17.94,-37.75 -1.14,-13.43 5.93,-27.03 23.73,-29.87 52.72,-8.44 119.72,-10.18 147.73,43.89 14.39,27.76 7.97,63.34 6.99,93.18 -1.16,35.81 -2.33,71.62 -3.5,107.43 -1.65,50.57 11.74,130.66 -24.59,173.12 -15.75,18.41 -37.61,23.83 -61.17,20.44"/>
      <path id="path60" style="fill:#cccccc;fill-opacity:1;fill-rule:nonzero;stroke:none" d="m 4812.77,6146.44 c -78.45,-24.98 -157.52,-43.62 -238.23,-61.11 -54,-11.71 -106.52,-24.49 -161.6,-30.51 -54.25,-5.93 -108.73,-10.35 -162.74,-18.01 -40.38,-5.72 -171.85,-13.07 -172.99,-67.52 -0.68,-32.93 43.68,-53.33 69.61,-65.23 38.41,-17.62 78.25,-35.19 117.53,-50.2 117.7,-45 241.24,-75.55 366.64,-90.48 99.19,-11.81 200.83,-13.73 297.78,6.51 11.17,2.33 22.27,4.95 33.3,7.89 4.62,1.23 9.49,2.67 12.61,6.13 4.59,5.08 3.95,12.69 3.02,19.41 -15.04,108.77 -37.05,216.77 -65.85,323.17 -3.68,13.58 -8.17,28.18 -19.9,36.68 -19.04,13.8 -60.02,-10.63 -79.18,-16.73"/>
      <path id="path62" style="fill:#dddddd;fill-opacity:1;fill-rule:nonzero;stroke:none" d="m 5239.55,6521.85 c 15.68,4.68 31.48,-6.06 33.31,-22.64 l 33.69,-304.02 c 1.5,-13.56 -7,-26.33 -19.87,-29.89 l -128.25,-35.47 33.19,-288.45 v 0 c 1.03,4.97 37.76,21.29 48.15,31.77 18.52,18.69 37.02,30.13 60.43,43.17 149.15,83.14 313.14,160.09 492.07,124.8 287.77,-56.76 574.51,-120.6 860.92,-183.67 290.55,-63.99 580.47,-130.94 868.79,-204.06 5.77,-1.47 11.54,-2.93 17.31,-4.4 142.65,-36.31 284.91,-74.1 427.28,-111.46 74.03,-19.43 148.08,-38.75 222.24,-57.68 79.73,-20.37 138.55,-52.31 207.89,7.44 61.9,53.33 110.18,134.36 130.32,211.42 16.53,63.27 15.98,128.68 0.44,192.5 -16.78,68.92 -29.74,158.11 -116.93,170.01 -38.26,5.23 -76.14,10.5 -114.01,18.21 -571.59,94.86 -1150.29,185.2 -1721.44,294.77 -40.48,7.77 -80.97,15.52 -121.48,23.17 -149.77,28.3 -403.49,85.47 -552.36,118.46 -290.04,64.27 -371.45,169.51 -587.38,306.84 -87.19,55.44 -172.05,114.2 -255.27,175.01 l 58.93,-512.21 122.03,36.38"/>
      <path id="path64" style="fill:#dddddd;fill-opacity:1;fill-rule:nonzero;stroke:none" d="m 4579.97,7047.94 c -175.77,-40.89 -479.98,-404.12 -564.01,-491.56 -84.03,-87.44 22.62,-137.03 22.62,-137.03 20.04,5.43 40.16,10.63 60.29,15.79 54.45,13.95 109.09,27.28 163.94,39.8 40.1,9.16 80.27,17.98 120.5,26.63 20.1,4.32 40.2,8.76 60.36,12.84 16.13,3.28 33.06,1.89 49.65,3.88 18.45,2.21 36.94,4.42 55.55,5.11 35.5,1.32 75.82,-0.96 110.1,-11.22 12.05,-3.6 34.45,-16.85 35.87,-31.29 0.17,-1.7 77.75,-791.69 77.75,-791.69 0.93,-9.38 11.18,-15.26 20.18,-11.57 l 398.85,163.75 c -0.07,0 -24.83,5.61 -43.72,55.43 -12.92,34.1 -21.9,69.48 -29.59,104.88 -8.03,36.98 -14.03,74.26 -19.72,111.59 l -106.71,-29.51 c -32.81,-9.07 -65.15,14.27 -67.77,48.91 l -20.2,266.14 c -0.99,13.04 7.18,25.12 19.46,28.78 l 123.28,36.75 c -22.97,189.72 -36.06,380.38 -39.19,571.06 16.97,-12.66 34.03,-25.22 51.13,-37.72 l -2.65,23.05 c -99.64,48.16 -300.21,68.08 -475.97,27.2"/>
      <path id="path66" style="fill:#efefef;fill-opacity:1;fill-rule:nonzero;stroke:none" d="m 5098.59,6113.28 c 5.69,-37.33 11.69,-74.61 19.72,-111.59 7.69,-35.4 16.67,-70.78 29.59,-104.88 18.89,-49.82 43.65,-55.43 43.72,-55.43 l -33.19,288.45 -59.84,-16.55"/>
      <path id="path68" style="fill:#efefef;fill-opacity:1;fill-rule:nonzero;stroke:none" d="m 5046.65,6464.35 70.87,21.12 -58.93,512.22 c -17.1,12.5 -34.16,25.06 -51.13,37.72 3.13,-190.68 16.22,-381.34 39.19,-571.06"/>
      <path id="path70" style="fill-opacity: 1; fill-rule: nonzero; stroke: none; fill: rgb(247, 136, 47);" d="m 6616.04,5843.54 c 5.25,-1.15 10.49,-2.3 15.74,-3.46 309.5,-68.15 618.31,-139.46 925.43,-217.36 6.14,-1.55 12.28,-3.12 18.42,-4.68 151.96,-38.67 303.49,-78.93 455.14,-118.73 78.85,-20.69 157.74,-41.27 236.73,-61.44 84.91,-21.69 147.58,-55.72 221.45,7.92 65.92,56.81 117.36,143.12 138.8,225.21 17.61,67.39 17.03,137.07 0.47,205.05 -17.87,73.41 -31.67,168.41 -124.56,181.09 -40.75,5.57 -81.08,11.18 -121.43,19.4 -542.64,90.05 -1115.29,181.46 -1658.9,281.78 l -107.29,-514.78"/>
      <path id="path72" style="fill:#ffffff;fill-opacity:1;fill-rule:nonzero;stroke:none" d="m 8349.01,5871.69 c 68.96,-14.03 113.75,-78.7 100.05,-144.44 -13.69,-65.73 -80.7,-107.64 -149.66,-93.6 -68.95,14.04 -113.75,78.71 -100.05,144.44 13.7,65.74 80.71,107.64 149.66,93.6"/>
      <path id="path74" style="fill:#e9e9e9;fill-opacity:1;fill-rule:nonzero;stroke:none" d="m 6505.7,5987.78 c -4.56,0 -9.21,0.53 -13.86,1.64 -180.91,43.11 -734.6,174.22 -841.18,189.47 -14.17,2.03 -28.56,2.93 -42.98,2.93 -69.63,0 -139.47,-21.05 -183.99,-37.78 -4.81,-1.81 -9.73,-2.66 -14.55,-2.66 -19.52,0 -37.44,13.88 -40.1,33.88 -10.61,79.9 -20.77,159.84 -29.83,239.88 -4.56,40.34 -51.04,201.21 12.26,210.26 0.72,0.1 1.48,0.15 2.29,0.15 30.97,0 127.34,-73.48 153.21,-88.01 46.4,-26.05 93.06,-51.86 138.52,-79.42 51.41,-31.17 706.04,-165.91 903.1,-206 30.82,-6.26 50.79,-35.15 44.66,-64.52 l -32.68,-156.77 c -5.33,-25.63 -28.7,-43.05 -54.87,-43.05"/>
      <path id="path76" style="fill:#445c6e;fill-opacity:1;fill-rule:nonzero;stroke:none" d="m 8203.64,5773.24 c -13.01,-62.45 29.7,-124.1 95.21,-137.44 65.51,-13.33 129.39,26.62 142.41,89.06 13.02,62.45 -29.7,124.11 -95.21,137.45 -65.5,13.33 -129.39,-26.62 -142.41,-89.07 z m 251.64,-51.23 c -14.55,-69.82 -85.97,-114.5 -159.22,-99.58 -73.25,14.91 -121,83.85 -106.45,153.67 14.55,69.82 85.99,114.49 159.23,99.58 73.24,-14.91 120.99,-83.85 106.44,-153.67"/>
      <path id="path78" style="fill:#cbccd1;fill-opacity:1;fill-rule:nonzero;stroke:none" d="m 3933.97,3337.68 -50.37,-531.98 -14.25,-465.99 206.48,-1229.45 140.75,-10.95 178.83,1148.75 282.53,1140.68 -743.97,-51.06"/>
      <path id="path80" style="fill:#292949;fill-opacity:1;fill-rule:nonzero;stroke:none" d="m 4217.07,1116.12 -5.92,-76.1 -158.13,-64.258 -70.19,82.018 82.03,70.19 152.21,-11.85"/>
      <path id="path82" style="fill:#cbccd1;fill-opacity:1;fill-rule:nonzero;stroke:none" d="m 4836.43,3361.73 -21.65,-1022.02 -98.32,-1206.9 -140.76,-10.95 -178.82,1148.76 -282.54,1140.67 722.09,-49.56"/>
      <path id="path84" style="fill:#292949;fill-opacity:1;fill-rule:nonzero;stroke:none" d="m 4575.21,1138.67 5.92,-76.1 158.13,-64.261 70.18,82.021 -82.02,70.19 -152.21,-11.85"/>
      <path id="path86" style="fill:#5d66d3;fill-opacity:1;fill-rule:nonzero;stroke:none" d="m 4975.08,3151.54 c 1.82,-88.89 -0.8,-208.69 -32.87,-213.07 -6.01,-0.82 -11.78,2.34 -17.03,5.39 -55.46,32.24 -94.7,77.62 -149.37,108.78 -57.3,32.64 -122.86,49.99 -187.14,62.14 -96.13,18.7 -194.39,30.3 -292.33,32.11 -76.99,1.44 -154.35,-5.54 -231.02,-12.34 -63.79,-5.65 -123.15,-25.78 -188.13,-20.99 -66.6,4.92 -132.21,26.65 -189.14,63.9 -2.08,1.36 -4.29,2.91 -5.15,5.35 -0.95,2.67 -0.03,5.63 0.88,8.3 13.61,39.7 23.39,79.01 48.09,111.88 27.59,36.71 47.19,83.35 67.13,125.13 41.57,87.09 80.7,178.34 109.75,271.12 43.89,126.1 94.03,248.93 136.46,375.45 29.4,87.69 56.23,176.95 96.13,260.09 31.25,65.09 86.93,160.19 154.01,188.85 22.71,9.7 47.76,10.58 72.21,11.33 10.65,0.32 20.92,1.19 31.53,0.46 -5.95,-16.44 -11.92,-34.58 -5.86,-50.98 5.23,-14.17 18.65,-23.93 32.82,-29.16 5.41,-1.99 11.06,-3.45 16.81,-3.57 4.77,-0.1 9.52,0.73 14.13,1.97 6.15,1.66 12.11,4.06 17.69,7.13 24.67,13.56 40.35,38.93 52.65,64.24 1.69,3.48 3.37,7.01 5.9,9.92 6.04,6.93 15.51,5.53 23.82,5.78 11.02,0.34 22.04,0.68 33.06,1.01 27.04,0.83 55.17,1.44 79.82,-10.43 36.95,-17.78 57.83,-59.08 76.08,-97.63 81.87,-172.82 134.06,-359.15 163.29,-551.3 15.27,-100.33 29.39,-200.86 40.38,-301.77 12.26,-112.59 20.68,-225.71 22.46,-339 0.19,-12.59 2.07,-47.85 2.94,-90.09"/>
      <path id="path88" style="fill:#eac1a4;fill-opacity:1;fill-rule:nonzero;stroke:none" d="m 4388.13,4481.43 c -0.72,-10.44 -0.41,-20.56 2.51,-29.72 8.97,-28.17 29.99,-52.98 57.64,-63.46 14.71,-5.57 32.62,-6.57 45.01,3.13 6.07,4.75 10.16,11.54 13.87,18.3 32.93,60.12 38.54,117.89 32.31,185.24 0.39,-4.24 70.74,32.84 76.97,41.26 17.91,24.22 20,64.9 27.45,93.71 15.88,61.37 30.8,130.49 -1.64,184.96 -33.59,56.41 -106.27,75.73 -171.9,77.44 -82.41,2.15 -174.42,-21.87 -216.8,-92.58 -38.27,-63.87 10.01,-158.06 23.8,-225.6 6.8,-33.3 17.17,-71.3 48.11,-85.36 16.43,-7.47 36.36,-6.66 51.06,-17.2 27.19,-19.54 13.96,-56.54 11.61,-90.12"/>
      <path id="path90" style="fill:#292949;fill-opacity:1;fill-rule:nonzero;stroke:none" d="m 4349.22,4917.23 c 107.1,43.11 250.57,-45.75 345.5,32.24 87.44,71.82 121.34,215.69 94.85,321.48 -95.61,-44.18 -207.15,-19.4 -312.23,-26.52 -82.01,-5.54 -164.3,-32.48 -226.43,-86.3 -138.09,-119.61 -100.98,-276.82 -15.15,-411 23.32,13.18 21.02,71.49 34.98,97.48 17.21,32.07 44.45,58.92 78.48,72.62"/>
      <path id="path92" style="fill:#292949;fill-opacity:1;fill-rule:nonzero;stroke:none" d="m 4647.64,4861.03 c 16.41,-46.35 12.18,-98.75 -7.25,-143.91 38.81,43.45 70.3,93.42 92.74,147.19 7.55,18.11 14.2,37.4 12.4,56.94 -2.98,32.51 -28.12,58.08 -52.39,79.91 -22.09,19.88 -45.51,39.6 -73.73,48.94 -28.2,9.34 -62.53,6.07 -83.03,-15.43 -37.19,-38.99 -1.8,-63.15 26.44,-80.69 38.47,-23.89 69,-48.25 84.82,-92.95"/>
      <path id="path94" style="fill-opacity: 1; fill-rule: nonzero; stroke: none; fill: rgb(248, 161, 91);" d="m 4947.52,2561.47 c -0.32,21.84 16.3,39.96 36.95,40.26 l 194.67,2.86 c 20.64,0.3 37.79,-17.32 38.11,-39.16 l 0.41,-27.74 826.09,12.11 328.11,354.29 c 0.93,1.02 2.11,1.46 3.28,1.38 l -3.48,237.1 c -1.12,76.32 -52.27,138.03 -113.65,137.13 l -669.67,-9.83 1.36,-92.55 c 0.51,-35.11 -21.98,-63.93 -50.23,-64.34 -28.25,-0.42 -51.57,27.72 -52.09,62.85 l -1.35,92.54 -558.07,-8.18 1.45,-98.84 c 1.06,-35.11 -20.97,-64.46 -49.21,-65.54 l -1,-0.03 c -27.79,-0.41 -51,26.93 -52.04,61.63 l -1.5,101.27 -381.35,-5.58 c -32.08,-0.48 -60.85,-17.9 -80.92,-45.38 l -215,-227.54 -39.76,-42 c -13.8,-23.44 -21.75,-52.48 -21.29,-83.58 l 4.89,-333.43 855.69,12.56 -0.4,27.74"/>
      <path id="path96" style="fill-opacity: 1; fill-rule: nonzero; stroke: none; fill: rgb(247, 136, 47);" d="m 6045.62,2538.26 -827.79,-12.15 0.63,-43.16 c 0.32,-21.85 -16.31,-39.96 -36.95,-40.26 l -194.67,-2.86 c -20.64,-0.3 -37.79,17.32 -38.11,39.16 l -0.63,43.17 -855.7,-12.55 10.38,-707.33 c 1.12,-76.32 52.26,-138.03 113.64,-137.13 l 1813.71,26.61 c 23.25,0.33 44.78,9.68 62.52,25.2 l 14.56,15.25 231.27,241.43 c 5.5,4.7 10.46,10.1 15.21,15.83 l 0.64,0.82 c 20.55,25.64 33.34,60.99 32.77,99.95 l -11.77,802.25 -326.74,-352.82 c -0.82,-0.89 -1.87,-1.39 -2.97,-1.41"/>
      <path id="path98" style="fill:#6d2727;fill-opacity:1;fill-rule:nonzero;stroke:none" d="m 6378.41,2903.5 c -0.87,1.24 -2.06,1.88 -3.27,1.97 l 0.19,-12.98 2.65,2.86 c 1.93,2.08 2.13,5.73 0.43,8.15"/>
      <path id="path100" style="fill:#6d2727;fill-opacity:1;fill-rule:nonzero;stroke:none" d="m 4087.67,2515.32 c 0.04,-3.19 2.16,-5.75 4.73,-5.71 l -0.17,11.56 c -2.57,-0.04 -4.61,-2.64 -4.56,-5.85"/>
      <path id="path102" style="fill:#6d2727;fill-opacity:1;fill-rule:nonzero;stroke:none" d="m 6371.86,2904.09 -328.11,-354.29 -826.09,-12.11 0.17,-11.58 827.79,12.15 c 1.1,0.02 2.15,0.52 2.97,1.41 l 326.74,352.82 -0.19,12.98 c -1.17,0.08 -2.35,-0.36 -3.28,-1.38"/>
      <path id="path104" style="fill:#6d2727;fill-opacity:1;fill-rule:nonzero;stroke:none" d="m 4947.92,2533.73 -855.69,-12.56 0.17,-11.56 855.7,12.55 -0.18,11.57"/>
      <path id="path106" style="fill:#211d1d;fill-opacity:1;fill-rule:nonzero;stroke:none" d="m 4926.35,3370.05 c -0.6,41.43 26.02,75.56 59.36,76.04 l 437.15,6.42 c 33.33,0.49 60.95,-32.83 61.55,-74.28 l 1.62,-109.86 102.31,1.5 -1.61,109.86 c -1.64,111.59 -75.99,201.3 -165.74,199.99 l -437.15,-6.42 c -89.75,-1.32 -161.43,-93.17 -159.8,-204.76 l 1.62,-109.86 102.3,1.51 -1.61,109.86"/>
      <path id="path108" style="fill:#211d1d;fill-opacity:1;fill-rule:nonzero;stroke:none" d="m 5487.38,3175.83 c 0.52,-35.13 23.84,-63.27 52.09,-62.85 28.25,0.41 50.74,29.23 50.23,64.34 l -1.36,92.55 -102.31,-1.5 1.35,-92.54"/>
      <path id="path110" style="fill:#211d1d;fill-opacity:1;fill-rule:nonzero;stroke:none" d="m 4879.2,3095.78 1,0.03 c 28.24,1.08 50.27,30.43 49.21,65.54 l -1.45,98.84 -102.3,-1.51 1.5,-101.27 c 1.04,-34.7 24.25,-62.04 52.04,-61.63"/>
      <path id="path112" style="fill:#211d1d;fill-opacity:1;fill-rule:nonzero;stroke:none" d="m 4948.73,2478.99 c 0.32,-21.84 17.47,-39.46 38.11,-39.16 l 194.67,2.86 c 20.64,0.3 37.27,18.41 36.95,40.26 l -0.63,43.16 -269.73,-3.95 0.63,-43.17"/>
      <path id="path114" style="fill:#211d1d;fill-opacity:1;fill-rule:nonzero;stroke:none" d="m 5179.14,2604.59 -194.67,-2.86 c -20.65,-0.3 -37.27,-18.42 -36.95,-40.26 l 0.4,-27.74 269.74,3.96 -0.41,27.74 c -0.32,21.84 -17.47,39.46 -38.11,39.16"/>
      <path id="path116" style="fill:#211d1d;fill-opacity:1;fill-rule:nonzero;stroke:none" d="m 4948.1,2522.16 269.73,3.95 -0.17,11.58 -269.74,-3.96 0.18,-11.57"/>
      <path id="path118" style="fill:#eacdb0;fill-opacity:1;fill-rule:nonzero;stroke:none" d="m 7779.78,4192.86 c 2.21,1.36 4.51,2.75 6.94,3.39 22.65,6.05 38.07,-4.35 61.42,-4.72 10.42,-0.17 25.34,22.09 36.87,3.64 4.25,-6.81 12.33,-24.98 21.27,-39.58 13.03,-21.3 42.41,-40.42 68.54,-51.3 102.68,-42.73 214.14,-56.34 324.82,-66.33 6.31,-0.57 12.9,-1.07 18.76,1.34 10.5,4.3 15.28,16.18 19.21,26.82 18.23,49.35 41.05,97 68.08,142.13 24.12,40.27 52.48,79.43 91.6,105.36 39.13,25.94 90.94,36.65 133.79,17.5 32.09,-14.33 56.35,-45.01 62.91,-79.54 16.28,-85.64 -89.82,-156.05 -143.19,-208.35 -50.48,-49.47 -104.43,-95.41 -161.34,-137.34 -7.02,-5.19 -14.34,-10.42 -22.84,-12.41 -9.05,-2.13 -18.51,-0.38 -27.65,1.4 -117.54,22.98 -232.41,56.2 -347.18,91.93 -31.55,9.82 -53.92,34.97 -83.16,43.78 -18.67,5.63 -37.36,-3.38 -56.14,-1.97 -18.58,1.39 -42.64,7.96 -59.37,16.11 -33.03,16.06 -39.86,53.37 -49.03,85.39 -2.28,7.97 -3.85,13.35 -2.24,20.95 2.59,12.37 11.89,20.37 20.82,28.65 5.29,4.89 10.99,9.4 17.11,13.15"/>
      <path id="path120" style="fill:#5d66d3;fill-opacity:1;fill-rule:nonzero;stroke:none" d="m 8555.42,4076.69 c -62.34,32.89 -124.69,65.78 -187.03,98.67 4,-2.11 131.93,292.01 140.15,309.26 31.35,65.83 64.33,133.8 120.32,180.51 119.54,99.75 300.87,4.22 271.36,-154.12 -32.02,-171.89 -132.36,-346.01 -261.45,-463.29 -2.8,-2.55 -5.81,-5.17 -9.51,-5.99 -5.08,-1.13 -10.18,1.38 -14.79,3.81 -19.68,10.38 -39.36,20.76 -59.05,31.15"/>
      <path id="path122" style="fill:#eacdb0;fill-opacity:1;fill-rule:nonzero;stroke:none" d="m 8326.23,1152.96 c -28.37,-0.01 -55.87,6.74 -83.84,9.98 -22.99,256.14 -45.19,523.31 -42.48,779.86 71.16,-5.71 181.67,-11.41 252.83,-17.13 -44.86,-135.77 15.84,61.24 0,-81.57 -2.51,-22.64 -122.47,-691.14 -126.51,-691.14"/>
      <path id="path124" style="fill:#292949;fill-opacity:1;fill-rule:nonzero;stroke:none" d="m 8232.12,1212.81 c -17.63,3.43 -27.74,-3.46 -39.09,-12.98 -6.6,-5.52 -10.95,-13.49 -19,-17.35 -8.04,-3.85 -16.05,-4.4 -25.76,-5.01 -51.09,-3.16 -169.24,2.47 -103.67,-78.73 59.54,-73.74 210.3,-49.8 297.28,-32.98 5.73,1.11 11.79,1.72 15.87,5.71 4.09,4 6.74,9.79 8.33,15.82 8.87,33.55 21.12,75.42 -24.39,91 -19.41,6.65 -36.72,-4.56 -57.28,2.59 -16.83,5.86 -34.65,28.49 -52.29,31.93"/>
      <path id="path126" style="fill:#292949;fill-opacity:1;fill-rule:nonzero;stroke:none" d="m 8132.84,1790.45 c 132.35,2.56 264.68,5.13 397.02,7.69 107.06,509.63 201.34,1021.96 282.72,1536.31 6.31,39.89 12.45,81.36 0.96,120.06 -21.73,73.21 -100.14,114.98 -175.2,129.01 -116.66,21.79 -330.99,-8.56 -390.81,-129.84 -63.22,-128.18 -52.61,-357.11 -67.94,-498.75 -41.85,-386.51 -57.51,-775.86 -46.75,-1164.48"/>
      <path id="path128" style="fill:#eacdb0;fill-opacity:1;fill-rule:nonzero;stroke:none" d="m 9079.66,1164.24 c 25.95,-0.88 61.67,5.04 87.15,7.38 13.15,252.62 50.01,517.37 39.65,771.18 -64.9,-3.45 -190.51,-6.92 -255.41,-10.39 45.19,-135.64 55.58,-277.66 74.45,-419.39 2.99,-22.46 50.47,-348.65 54.16,-348.78"/>
      <path id="path130" style="fill:#292949;fill-opacity:1;fill-rule:nonzero;stroke:none" d="m 9174.67,1220.62 c 16.01,2.86 25.46,-4.27 36.14,-14.03 6.2,-5.66 10.42,-13.68 17.9,-17.74 7.48,-4.06 14.82,-4.85 23.71,-5.74 46.82,-4.71 154.67,-2.76 97.21,-81.05 -52.18,-71.1 -190.76,-42.8 -270.81,-23.49 -5.27,1.27 -10.83,2.06 -14.69,6.14 -3.86,4.07 -6.45,9.88 -8.09,15.9 -9.15,33.45 -21.64,75.23 19.51,89.24 17.55,5.98 33.71,-5.63 52.28,0.8 15.22,5.28 30.81,27.12 46.84,29.97"/>
      <path id="path132" style="fill:#292949;fill-opacity:1;fill-rule:nonzero;stroke:none" d="m 9291.24,1790.45 c -132.34,2.56 -264.68,5.13 -397.02,7.69 -107.06,509.63 -201.34,1021.96 -282.72,1536.31 -6.3,39.89 -12.45,81.36 -0.95,120.06 21.73,73.21 100.13,114.98 175.19,129.01 116.66,21.79 330.99,-8.56 390.81,-129.84 63.23,-128.18 52.61,-357.11 67.94,-498.75 41.84,-386.51 57.51,-775.86 46.75,-1164.48"/>
      <path id="path134" style="fill-opacity: 1; fill-rule: nonzero; stroke: none; fill: rgb(247, 136, 47);" d="m 8951.89,4585.01 c 106.1,-100.97 185.58,-230.69 233.45,-365.05 84.77,-237.95 86.4,-492 87.18,-740.96 0.25,-82.85 0.51,-165.7 0.78,-248.56 0.25,-81.51 -6.95,-99.07 -95.55,-88.32 -164.18,19.91 -334.85,53.76 -483.6,126.72 -70.79,34.71 -136.94,78.56 -211.16,105.9 -107.96,39.76 -218.64,21.76 -325.45,47.63 27.1,81.9 67.6,156.68 86.43,242.6 18.87,86 27.77,173.91 33.71,261.72 10.37,153.48 29.47,306.05 40.97,458.95 8.24,109.52 -6.18,199.21 110.31,271.04 63.41,39.11 178.76,106.03 268.24,87.92 94.95,-19.2 195.39,-103.14 254.69,-159.59"/>
      <path id="path136" style="fill:#eacdb0;fill-opacity:1;fill-rule:nonzero;stroke:none" d="m 8569.06,4934.07 c 20.04,-43.79 52.79,-80.3 79.52,-120.36 26.01,-38.97 35.37,-74.24 42.26,-119.44 4.98,-32.62 16.64,-58.13 55.92,-63.73 64.01,-9.13 56.14,65.21 79.81,101.12 35,53.11 108.33,56.81 152.7,111.04 40.9,49.98 57.42,120.91 81.11,179.91 16.39,40.83 33.07,84.85 23.26,127.73 -15.53,67.94 -88.5,103.5 -153.11,129.67 -111.35,45.11 -238.27,68.6 -318.08,-42.02 -57.17,-79.24 -85.3,-212.31 -43.39,-303.92"/>
      <path id="path138" style="fill:#1a1a33;fill-opacity:1;fill-rule:nonzero;stroke:none" d="m 8933.56,5073.87 c 24.87,-0.83 52.19,-2.62 70.51,-19.44 18.31,-16.83 16.04,-53.83 -8.34,-58.01 -22.1,-3.8 -50.5,19.38 -64.1,2.2 -7.96,-10.04 -1.14,-24.59 4.75,-36.21 22.6,-44.61 29.08,-96.47 18.02,-144.26 9.02,-8.47 23.25,0.5 31.28,9.47 39.94,44.47 71.26,96.31 91.94,152.13 7.85,-13.41 19.43,-24.79 33.13,-32.56 -8.09,20.87 -2.7,43.81 2.55,65.2 19.3,78.62 32.73,170.65 -20.75,234.37 -28.61,34.09 -72.37,53.5 -116.46,61.46 -44.08,7.96 -89.1,5.61 -133.6,3.23 -19.05,-1.03 -42.54,-5.37 -47.24,-23.3 41.63,-16.68 84.57,-49.47 105.18,-89.47 6.32,-12.28 30.6,-124.72 33.13,-124.81"/>
      <path id="path140" style="fill:#292949;fill-opacity:1;fill-rule:nonzero;stroke:none" d="m 8846.74,5261.75 c 1.51,-1.11 3.01,-2.23 4.46,-3.35 18.81,-14.48 36.43,-32.15 59.28,-38.46 32.94,-9.11 68.52,7.33 100.94,-3.85 36.24,-12.49 59.78,-56.43 86.11,-82.34 8.49,-8.35 31.5,-36.23 44.69,-32.85 18.74,4.81 22.54,45.99 19.87,60.35 -4.21,22.7 -19.81,42.14 -22.1,65.16 -2.32,23.48 9.52,45.86 18.12,67.96 8.58,22.11 13.49,49.17 -0.69,67.71 -7.22,9.44 -19.05,16.15 -21.4,27.92 -1.51,7.52 1.37,15.24 1.84,22.92 2.41,39.97 -55.73,64.77 -86.12,70.62 -38.2,7.37 -76.54,-10.15 -114.87,-17.99 -31.66,-6.48 -64.54,-6.31 -95.94,0.48 -28.15,6.08 -55.57,17.46 -84.43,16.97 -42.56,-0.72 -81.9,-28 -107,-63.29 -35.51,-49.93 -58.86,-135.08 -46.96,-200.36 -1.85,10.12 32.04,47.14 39.02,55.1 14.72,16.8 32.46,32.58 54.76,35.44 50.49,6.49 110.1,-18.54 150.42,-48.14"/>
      <path id="path142" style="fill:#dcdee2;fill-opacity:1;fill-rule:nonzero;stroke:none" d="m 7416.68,4361.25 -190.25,5.17 c -15.18,0.41 -27.15,13.05 -26.74,28.22 l 12.65,465.97 c 0.41,15.17 13.05,27.14 28.24,26.73 l 190.25,-5.17 -14.15,-520.92"/>
      <path id="path144" style="fill:#dcdee2;fill-opacity:1;fill-rule:nonzero;stroke:none" d="m 8155.43,4816.62 -427.42,11.6 -11.66,-429.23 439.24,-11.92 c 266.59,207.53 538.7,17.18 538.7,17.18 l 36.01,49.96 c -146.31,276.86 -574.87,362.41 -574.87,362.41"/>
      <path id="path146" style="fill:#bababa;fill-opacity:1;fill-rule:nonzero;stroke:none" d="m 7692.74,4810.15 c -170.88,-86.3 -261.91,72.02 -261.91,72.02 l -6.15,-226.59 -0.18,-6.51 -1.48,-54.71 -0.19,-6.51 -6.15,-226.6 c 0,0 99.49,153.15 265.44,57.71 l 34.23,-19.97 5.09,187.26 1.48,54.72 5.09,187.25 -35.27,-18.07"/>
      <path id="path148" style="fill:#bababa;fill-opacity:1;fill-rule:nonzero;stroke:none" d="m 8036.72,3133.37 -271.45,7.37 34.11,1256 271.45,-7.37 -34.11,-1256"/>
      <path id="path150" style="fill:#474ebb;fill-opacity:1;fill-rule:nonzero;stroke:none" d="m 7861.41,1679.22 c -110.4,3 -197.47,94.92 -194.47,205.32 l 32.3,1189.03 68.17,145.89 271.45,-7.37 60.15,-149.39 -32.29,-1189.02 c -3,-110.39 -94.92,-197.46 -205.31,-194.46"/>
      <path id="path152" style="fill:#eed5d5;fill-opacity:1;fill-rule:nonzero;stroke:none" d="m 7789.85,1888.1 c 1.15,42.62 36.64,76.24 79.26,75.07 42.63,-1.15 76.24,-36.65 75.08,-79.26 -1.15,-42.62 -36.64,-76.23 -79.27,-75.08 -42.62,1.16 -76.23,36.65 -75.07,79.27"/>
      <path id="path154" style="fill:#e9e9e9;fill-opacity:1;fill-rule:nonzero;stroke:none" d="m 7857.6,1679.36 c -1.46,0.02 -2.93,0.04 -4.39,0.08 -69.12,1.88 -129.09,43.6 -165.27,106.03 0.71,0.03 1.4,0.07 2.11,0.11 32.11,-60.56 94.5,-102.87 167.55,-106.22 m 230.5,981.48 6.41,236.01 c 0,0.02 0,0.04 0,0.04 l -6.41,-236.05"/>
      <path id="path156" style="fill:#444aac;fill-opacity:1;fill-rule:nonzero;stroke:none" d="m 7860.59,1679.34 c -0.99,0 -2,0.01 -2.99,0.02 -73.05,3.35 -135.44,45.66 -167.55,106.22 42.61,2.6 80.9,22.02 115.27,54.02 13.66,-18.14 35.14,-30.11 59.6,-30.77 0.71,-0.02 1.42,-0.03 2.12,-0.03 41.68,0 76.01,33.2 77.15,75.11 0.94,34.63 -21.08,64.56 -52.24,75.18 164.71,311.32 202.23,932.35 202.56,937.76 l -6.41,-236.01 -20.12,-740.68 c -4.64,-171.24 -96,-240.83 -207.39,-240.82"/>
      <path id="path158" style="fill:#dac3c3;fill-opacity:1;fill-rule:nonzero;stroke:none" d="m 7867.04,1808.8 c -0.7,0 -1.41,0.01 -2.12,0.03 -24.46,0.66 -45.94,12.63 -59.6,30.77 32.19,29.97 60.96,70.96 86.63,119.49 31.16,-10.62 53.18,-40.55 52.24,-75.18 -1.14,-41.91 -35.47,-75.11 -77.15,-75.11"/>
      <path id="path160" style="fill:#ababab;fill-opacity:1;fill-rule:nonzero;stroke:none" d="m 8067.99,4284.82 -268.61,111.92 271.45,-7.37 -2.84,-104.55"/>
      <path id="path162" style="fill:#eacdb0;fill-opacity:1;fill-rule:nonzero;stroke:none" d="m 7833.68,3959.3 c 2.36,1.09 4.81,2.2 7.3,2.57 23.18,3.44 37.32,-8.65 60.48,-11.67 10.34,-1.36 27.68,19.07 37.04,-0.58 3.45,-7.25 9.41,-26.22 16.63,-41.75 10.52,-22.64 37.55,-44.98 62.26,-58.75 33.24,-18.51 68.84,-37.34 104.17,-50.58 74.25,-27.82 159.94,-50.6 238.23,-63.79 27.55,128.29 132.24,236.8 259.46,268.94 13.3,3.36 27.32,5.94 40.62,2.6 11.25,-2.82 21.08,-9.68 29.73,-17.4 91.44,-81.72 10.11,-164.87 -52.63,-234.61 -39.15,-43.53 -81.66,-85.23 -126.82,-122.53 -63.27,-52.24 -133.76,-47.48 -210.47,-24.93 -81.29,23.89 -163.21,49.56 -237.86,90.35 -36.29,19.82 -66.23,45.06 -99.3,69.21 -32.69,23.86 -41.48,7.98 -75.45,21.53 -18.94,7.56 -39.7,11.69 -56.97,22.69 -30.99,19.71 -33.53,57.55 -39,90.41 -1.36,8.17 -2.3,13.7 0.15,21.07 3.99,11.99 14.13,18.89 23.95,26.09 5.81,4.26 11.99,8.09 18.48,11.13"/>
      <path id="path164" style="fill-opacity: 1; fill-rule: nonzero; stroke: none; fill: rgb(248, 161, 91);" d="m 8591.09,3755.67 c -58.2,39.77 -116.39,79.54 -174.6,119.3 3.74,-2.55 164.29,275.12 174.41,291.32 38.63,61.83 79.13,125.62 140.07,165.66 130.1,85.51 299.39,-30.02 252.08,-183.98 -51.36,-167.13 -170.85,-328.71 -312.44,-430.55 -3.08,-2.21 -6.36,-4.48 -10.13,-4.87 -5.18,-0.55 -9.96,2.52 -14.26,5.46 -18.38,12.56 -36.75,25.11 -55.13,37.66"/>
      <path id="path166" style="fill:#eacdb0;fill-opacity:1;fill-rule:nonzero;stroke:none" d="m 5562.83,4831.85 c 38.2,39.44 47.11,98.59 22.28,147.73 -45.39,89.78 -90.77,179.56 -136.16,269.34 -25.49,50.41 -69.79,108.89 -76.77,163.73 -12.34,96.93 9.6,210.97 18.64,307.88 4.59,49.21 0.49,117.58 20.84,162.86 3.8,8.49 61.36,73.53 59.8,75.52 l -12.07,18.17 -18.01,-12.13 -15.03,3.02 40.95,49.53 -59.22,43.39 -79.08,-31.36 c -4.23,-53.26 5.24,-108.74 -11.68,-160.13 -7.15,-21.74 -17.81,-42.13 -26.79,-63.18 -15.43,-36.15 -25.87,-74.1 -37.83,-111.46 -11.58,-36.15 -30.27,-70.15 -41.16,-105.87 -24.31,-79.73 -48.05,-159.63 -72.07,-239.44 l 208.79,-478.47 c 37.24,-85.33 149.94,-105.89 214.57,-39.13"/>
      <path id="path168" style="fill:#8cabef;fill-opacity:1;fill-rule:nonzero;stroke:none" d="m 5909.19,4763.54 c -86.38,50.39 -160.65,120.88 -216.63,203.69 -1.47,3.09 -2.9,6.18 -4.27,9.23 -5.26,11.75 -64.21,140.26 -65.91,139.5 -1.46,-0.66 -2.93,-1.32 -4.39,-1.98 l -12.77,-6.49 -1.83,-0.01 c -29.95,-0.4 -79.92,-35.97 -107.71,-48.45 -73.81,-33.16 -147.63,-66.32 -221.44,-99.49 -5.26,-2.36 -10.77,-4.93 -14.08,-9.63 -3.93,-5.58 -3.89,-12.83 -3.24,-19.76 l -19.7,-10.03 c 9.67,-13.57 18.33,-27.65 26.24,-42.12 8.4,-56.31 22.62,-111.89 56.96,-156.77 2.04,-2.66 4.22,-5.18 6.37,-7.73 17.85,-59.56 34.51,-119.91 59.95,-176.19 68.37,-151.28 198.22,-268.76 263.5,-421.4 53.01,15.46 89.76,63.05 117.93,110.54 55.37,93.34 92.18,196.29 128.65,298.51 18.54,51.98 37.09,103.97 55.63,155.95 3.24,9.08 6.52,18.46 6.03,28.09 -1.34,25.59 -27.16,41.63 -49.29,54.54"/>
      <path id="path170" style="fill:#eac1a4;fill-opacity:1;fill-rule:nonzero;stroke:none" d="m 5168.65,3613.11 c 0.8,28.88 -1.27,57.69 -3.44,86.48 -42.66,-6.43 -85.21,-13.32 -127.6,-21.12 2.07,-7.59 4.17,-15.1 6.3,-22.45 13.79,-47.47 42.68,-109.56 40.38,-159.15 -0.43,-9.3 -30.1,-90.92 -27.92,-92.2 l 17.9,-12.48 12.29,17.9 15.1,2.7 -19.93,-61.09 71.02,-18.64 62.04,58.19 c -15.6,51.09 -44.76,99.24 -47.88,153.25 -1.32,22.84 1.1,45.72 1.74,68.61"/>
      <path id="path172" style="fill:#5d66d3;fill-opacity:1;fill-rule:nonzero;stroke:none" d="m 4607.15,4206.66 c -11.81,-19.67 340.05,-240.12 340.05,-240.12 l 125.51,-435.17 h 115.33 l -48.57,528.05 -469.54,471.91 -62.78,-324.67"/>
      <path id="path174" style="fill:#eac1a4;fill-opacity:1;fill-rule:nonzero;stroke:none" d="m 1629.62,4498.45 c 2.54,0.05 5.17,0.08 7.54,-0.58 22.08,-6.11 29.94,-22.51 49.45,-34.4 8.7,-5.3 32.29,6.09 32.88,-15.17 0.21,-7.85 -1.97,-27.18 -1.67,-43.91 0.44,-24.4 15.74,-55.07 32.39,-77.18 22.37,-29.71 46.74,-60.64 73.09,-86.47 55.35,-54.27 122.94,-108.57 187.68,-151.37 75.45,103.77 212,159.31 338.45,137.66 13.22,-2.26 26.78,-5.52 37.35,-13.77 8.93,-6.98 15,-17 19.67,-27.33 49.38,-109.26 -56.25,-151.37 -139.95,-188.87 -52.24,-23.41 -106.75,-43.85 -161.9,-59.31 -77.24,-21.64 -138.37,10.53 -198.01,61.07 -63.2,53.55 -126.27,108.94 -176.85,174.97 -24.58,32.09 -41.36,66.5 -61.36,101.19 -19.76,34.27 -33.91,23.56 -58.91,49.12 -13.94,14.27 -30.86,26.17 -41.95,42.85 -19.89,29.89 -7.17,64.73 0.95,96.26 2.02,7.85 3.37,13.16 8.48,18.78 8.32,9.13 20.12,11.29 31.74,13.84 6.89,1.51 13.92,2.48 20.93,2.62"/>
      <path id="path176" style="fill-opacity: 1; fill-rule: nonzero; stroke: none; fill: rgb(248, 161, 91);" d="m 2246.43,3924.71 c -42.01,-13.86 -83.81,-25.65 -124.52,-35.43 -60.69,-14.58 -127.2,-28.64 -183.36,-1.37 -21.64,10.52 -40.05,26.52 -58.11,42.44 -85.56,75.44 -169.23,153.02 -250.91,232.65 30.38,51.65 68.64,98.64 113.05,138.87 12.46,11.28 26.76,22.59 43.55,23.24 24.96,0.97 43.93,-21.2 58.78,-41.29 24.2,-32.7 48.39,-65.41 72.58,-98.12 7.85,-10.61 16.96,-22.03 29.97,-24.32 8.48,-1.5 17.09,1.26 25.22,4.12 153.79,53.94 271.13,128.72 405.02,219.44 59.02,39.98 120.48,80.95 190.81,92.62 150.17,24.91 255.74,-145.41 152.48,-264.3 -117.74,-135.56 -297.96,-230.3 -474.56,-288.55"/>
      <path id="path178" style="fill:#292949;fill-opacity:1;fill-rule:nonzero;stroke:none" d="m 2950.62,1147.07 -2.36,-72.7 -147.74,-67.98 -70.34,75.05 75.04,70.34 147.75,67.99 -2.35,-72.7"/>
      <path id="path180" style="fill:#292949;fill-opacity:1;fill-rule:nonzero;stroke:none" d="m 3250.08,3334.1 -7.15,-220.78 -325.36,-947.18 41.41,-995.89 -145.13,-24.17 -295.09,1217.16 22.84,356.9 159.53,724.23 548.95,-110.27"/>
      <path id="path182" style="fill:#292949;fill-opacity:1;fill-rule:nonzero;stroke:none" d="m 2330.61,3298.81 -184.59,-909.89 -52.55,-1208.57 132.13,-25.22 290.51,1068.97 387.87,1050.39 -573.37,24.32"/>
      <path id="path184" style="fill:#292949;fill-opacity:1;fill-rule:nonzero;stroke:none" d="m 2227.84,1171 -13.63,-71.44 -156.53,-44.18 -57.81,85.08 85.08,57.81 142.89,-27.27"/>
      <path id="path186" style="fill-opacity: 1; fill-rule: nonzero; stroke: none; fill: rgb(247, 136, 47);" d="m 3366.38,3206.08 c 1.85,-84.7 -0.81,-198.85 -33.35,-203.02 -6.1,-0.79 -11.94,2.22 -17.27,5.13 -56.27,30.73 -96.08,73.97 -151.54,103.65 -58.14,31.1 -124.64,47.63 -189.86,59.2 -97.52,17.83 -197.2,28.88 -296.57,30.61 -78.11,1.37 -156.59,-5.29 -234.38,-11.77 -64.71,-5.38 -124.92,-24.56 -190.85,-19.99 -67.57,4.68 -134.13,25.38 -191.89,60.88 -2.11,1.3 -4.35,2.77 -5.23,5.1 -0.96,2.54 -0.02,5.36 0.91,7.91 13.8,37.82 23.72,75.27 48.78,106.6 27.99,34.97 47.88,79.41 68.11,119.23 42.16,82.97 81.87,169.93 111.33,258.33 44.53,120.16 95.4,237.19 138.44,357.74 29.84,83.55 57.05,168.6 97.53,247.82 31.7,62.02 88.2,152.63 156.25,179.94 23.03,9.24 48.45,10.08 73.25,10.79 75.26,2.16 150.52,4.32 225.78,6.48 27.44,0.79 55.97,1.37 80.99,-9.93 37.47,-16.94 58.66,-56.3 77.18,-93.03 83.05,-164.66 136,-342.2 165.66,-525.29 15.49,-95.59 29.81,-191.39 40.96,-287.53 12.44,-107.29 20.98,-215.07 22.79,-323.02 0.2,-11.99 2.1,-45.58 2.98,-85.83"/>
      <path id="path188" style="fill:#ffffff;fill-opacity:1;fill-rule:nonzero;stroke:none" d="m 2864.22,4114.38 c -2.83,-42.65 3.26,-85.32 9.32,-127.65 36.95,-257.76 73.9,-515.52 110.84,-773.27 -202.08,1.75 -404.15,3.51 -606.23,5.27 7.32,96.57 14.63,193.15 21.95,289.73 4.69,61.91 9.42,124.04 22.49,184.8 21.08,98 63.37,190.25 105.37,281.62 77.6,168.83 155.2,337.66 232.8,506.49 4.15,9.03 8.52,18.36 16.17,24.86 9.16,7.78 21.66,10.39 33.62,12.47 57.78,10.03 123,18.52 181.05,10 14.51,-52.84 -39.03,-144.72 -58.87,-193.88 -28.87,-71.53 -63.33,-142.53 -68.51,-220.44"/>
      <path id="path190" style="fill:#eacdb0;fill-opacity:1;fill-rule:nonzero;stroke:none" d="m 2826.93,4482.02 c 41.88,1.82 83.77,3.64 125.65,5.46 2.26,33.35 1.85,66.89 -1.23,100.17 0.37,-4.04 67.4,31.3 73.33,39.32 17.07,23.07 19.06,61.83 26.16,89.28 15.13,58.49 29.35,124.34 -1.56,176.25 -32,53.75 -101.25,72.14 -163.79,73.78 -78.52,2.05 -166.2,-20.84 -206.57,-88.21 -36.47,-60.86 9.54,-150.61 22.68,-214.96 6.48,-31.73 16.36,-67.94 45.84,-81.34 15.65,-7.11 34.64,-6.34 48.61,-16.36 24.65,-17.66 19.1,-55.45 30.88,-83.39"/>
      <path id="path192" style="fill:#292949;fill-opacity:1;fill-rule:nonzero;stroke:none" d="m 2555.2,4994.42 c -4.67,43.4 -9.34,86.8 -14.01,130.2 -1.73,16.12 -3.41,32.85 1.81,48.2 8.67,25.53 34.59,41.48 60.62,48.52 26.02,7.05 53.43,7.31 79.76,13.11 28.1,6.18 55.43,18.71 84.17,17.44 54.68,-2.41 96.53,-53.12 150.57,-61.76 74.82,-11.95 143.53,22.33 188.71,-65.73 8.3,-16.18 10.6,-34.81 17.92,-51.45 9.45,-21.5 26.67,-38.46 40.12,-57.72 59.16,-84.66 40.03,-213.15 -31.68,-284.9 -34.77,-34.79 -48.99,-66.26 -96.89,-77.41 21.94,44.59 -7.03,222.22 -67.09,242.15 -15.9,5.27 -63.68,-14.19 -81.3,-16.76 -39.03,-5.71 -76.97,-11.97 -113.69,-27.17 -54.49,-22.57 -113.65,-38.57 -172.63,-42.97 -7.55,-0.56 -15.98,-0.84 -21.68,4.13 -5.35,4.69 -6.47,12.47 -7.23,19.54 -5.82,54.2 -11.65,108.38 -17.48,162.58"/>
      <path id="path194" style="fill:#8cabef;fill-opacity:1;fill-rule:nonzero;stroke:none" d="m 2730.92,4999.16 c 70.87,3.64 142,7.27 213.6,0.04 73.07,-7.37 145.76,-25.96 218.17,-44.51 30.79,-7.89 61.58,-15.77 92.37,-23.66 0.59,-0.15 0,72.83 -0.56,77.6 -2.09,17.98 -10.19,25.5 -19.48,39.1 -9.69,14.2 -8.37,15.45 -9.78,32.37 -3.08,37.01 -17.21,74.57 -30.07,109.67 -18.16,49.55 -38.65,99.07 -69.15,141.53 -96.84,134.81 -258.61,130.02 -401.61,67.21 -127.62,-56.06 -173.06,-160.96 -184.05,-291.73 -0.54,-6.45 -1.16,-13.08 -3.92,-18.58 -12.51,-24.87 -24.29,-18.38 -22.76,-53.02 0.32,-7.26 14.16,-83.93 15.8,-82.91 17.39,10.72 40,18.67 59.05,25.96 14.83,5.67 30.33,9.53 46.02,12.38 31.59,5.75 64.09,6.89 96.37,8.55"/>
      <path id="path196" style="fill:#8b8d96;fill-opacity:1;fill-rule:nonzero;stroke:none" d="m 1934.94,4241.67 70.13,-40.17 180.07,314.46 -70.14,40.16 -180.06,-314.45"/>
      <path id="path198" style="fill:#dcdee2;fill-opacity:1;fill-rule:nonzero;stroke:none" d="m 2017.82,4548.74 -52.66,-91.96 -20.38,-35.6 -52.67,-91.97 42.83,-87.55 79.84,139.43 20.38,35.6 79.84,139.43 -97.18,-7.38"/>
      <path id="path200" style="fill:#474ebb;fill-opacity:1;fill-rule:nonzero;stroke:none" d="m 3336.95,4010.71 -934.87,535.34 -201.28,-2.75 -86.13,-150.39 -39.14,-68.36 -86.12,-150.39 96.59,-240.1 c 29.69,-73.83 82.53,-136.02 150.58,-177.27 L 2511.1,3590.4 c 39.01,-23.64 59.5,-68.82 51.59,-113.74 l -101.22,-574.75 c -11,-62.47 18.36,-125.11 73.4,-156.64 l 86.55,-49.55 c 90.42,-51.78 204.83,1.83 222.9,104.46 l 82.1,466.2 c 5.42,30.8 36.8,48.75 66.65,39.41 54.95,-17.18 139.93,-19.67 202.32,89.28 l 78.25,136.66 46.03,80.38 19.57,34.19 19.57,34.17 46.04,80.39 c 50.24,87.74 19.85,199.6 -67.9,249.85"/>
      <path id="path202" style="fill:#8b8d96;fill-opacity:1;fill-rule:nonzero;stroke:none" d="m 1982.37,4486.83 -81.62,46.74 -56.53,-98.71 81.62,-46.74 56.53,98.71"/>
      <path id="path204" style="fill:#8b8d96;fill-opacity:1;fill-rule:nonzero;stroke:none" d="m 1656.38,4647.71 -642.24,367.77 -36.699,-64.09 642.239,-367.77 36.7,64.09"/>
      <path id="path206" style="fill:#e9e9e9;fill-opacity:1;fill-rule:nonzero;stroke:none" d="m 1605.14,4591.64 -627.835,359.52 6.3,11 -6.164,-10.77 627.829,-359.52 -0.13,-0.23"/>
      <path id="path208" style="fill:#81828a;fill-opacity:1;fill-rule:nonzero;stroke:none" d="m 1605.27,4591.87 -627.829,359.52 6.164,10.77 3.493,6.09 627.832,-359.52 -9.66,-16.86"/>
      <path id="path210" style="fill:#e9e9e9;fill-opacity:1;fill-rule:nonzero;stroke:none" d="m 1924.66,4388.25 -80.67,46.19 0.23,0.42 80.67,-46.2 -0.23,-0.41 m -73.64,58.48 6.42,11.21 -6.42,-11.21"/>
      <path id="path212" style="fill:#81828a;fill-opacity:1;fill-rule:nonzero;stroke:none" d="m 1924.89,4388.66 -80.67,46.2 6.8,11.87 6.42,11.21 80.67,-46.19 -13.22,-23.09"/>
      <path id="path214" style="fill:#dcdee2;fill-opacity:1;fill-rule:nonzero;stroke:none" d="m 1016.25,4916.16 -49.316,28.24 96.256,56.03 48.71,-28.59 -95.65,-55.68"/>
      <path id="path216" style="fill:#dcdee2;fill-opacity:1;fill-rule:nonzero;stroke:none" d="m 1113.6,4860.42 -49.32,28.24 96.26,56.04 48.71,-28.61 -95.65,-55.67"/>
      <path id="path218" style="fill:#dcdee2;fill-opacity:1;fill-rule:nonzero;stroke:none" d="m 1210.94,4804.68 -49.32,28.24 96.26,56.04 48.71,-28.61 -95.65,-55.67"/>
      <path id="path220" style="fill:#dcdee2;fill-opacity:1;fill-rule:nonzero;stroke:none" d="m 1308.29,4748.94 -49.33,28.24 96.26,56.03 48.72,-28.6 -95.65,-55.67"/>
      <path id="path222" style="fill:#dcdee2;fill-opacity:1;fill-rule:nonzero;stroke:none" d="m 1405.63,4693.19 -49.32,28.25 96.26,56.03 48.71,-28.6 -95.65,-55.68"/>
      <path id="path224" style="fill:#dcdee2;fill-opacity:1;fill-rule:nonzero;stroke:none" d="m 1502.97,4637.45 -49.32,28.24 96.26,56.03 48.71,-28.6 -95.65,-55.67"/>
      <path id="path226" style="fill:#dcdee2;fill-opacity:1;fill-rule:nonzero;stroke:none" d="m 1600.32,4581.71 -49.32,28.24 96.26,56.04 48.71,-28.61 -95.65,-55.67"/>
      <path id="path228" style="fill:#dcdee2;fill-opacity:1;fill-rule:nonzero;stroke:none" d="m 1632.84,4477.68 177.65,-101.73 121.58,212.3 -177.66,101.74 -121.57,-212.31"/>
      <path id="path230" style="fill:#8b8d96;fill-opacity:1;fill-rule:nonzero;stroke:none" d="m 1666.06,4698.02 -35.56,-62.09 -13.76,-24.03 -35.55,-62.09 51.65,-72.13 53.9,94.14 13.77,24.03 53.9,94.14 -88.35,8.03"/>
      <path id="path232" style="fill:#dddae8;fill-opacity:1;fill-rule:nonzero;stroke:none" d="m 2646.03,2893.77 62.78,355.36 c 11.25,63.68 -18.67,127.59 -74.8,159.73 l -75.64,43.31 -93.99,-533.76 105.39,-60.35 c 30.93,-17.72 70.06,0.61 76.26,35.71"/>
      <path id="path234" style="fill:#292949;fill-opacity:1;fill-rule:nonzero;stroke:none" d="m 2218.53,4142.3 -25.63,14.68 152.88,266.98 25.64,-14.67 -152.89,-266.99"/>
      <path id="path236" style="fill:#292949;fill-opacity:1;fill-rule:nonzero;stroke:none" d="m 2280.05,4107.07 -25.63,14.68 152.88,266.99 25.64,-14.68 -152.89,-266.99"/>
      <path id="path238" style="fill:#ffffff;fill-opacity:1;fill-rule:nonzero;stroke:none" d="m 3200.08,3834.91 -326.91,187.2 c -8.83,5.06 -11.89,16.32 -6.83,25.15 l 24.74,43.21 c 5.06,8.83 16.32,11.89 25.15,6.83 l 326.91,-187.19 c 8.83,-5.06 11.89,-16.32 6.83,-25.15 l -24.75,-43.21 c -5.05,-8.83 -16.31,-11.9 -25.14,-6.84"/>
      <path id="path240" style="fill:#eacdb0;fill-opacity:1;fill-rule:nonzero;stroke:none" d="m 3225.56,3767.17 c 2.68,-9.85 1.45,-23.18 -8.21,-26.48 -5.8,-1.98 -12,0.7 -17.9,2.31 -22.34,6.09 -48.17,-5.19 -58.88,-25.71 -12.62,-24.17 -3.44,-55.47 15.84,-74.74 19.29,-19.28 46.48,-28.48 73.3,-33.33 16.84,-3.05 35.88,-4.13 49.38,6.39 6.94,5.4 11.5,13.24 15.56,21.05 20.8,40.1 39.94,93.13 10.48,134 -23.17,32.16 -97.77,63.15 -79.57,-3.49"/>
      <path id="path242" style="fill-opacity: 1; fill-rule: nonzero; stroke: none; fill: rgb(248, 161, 91);" d="m 3420.85,3757.9 c -3.02,4.58 -6.57,8.91 -10.72,12.94 -33.43,32.54 -77.57,64.9 -126.98,54.38 6.35,-90.33 -15.93,-182.47 -62.87,-259.91 -3.71,-6.13 -7.73,-13.27 -5.42,-20.05 4.34,-12.75 43.01,-25.07 54.82,-26.68 52.08,-7.09 108.38,14.08 134.58,50.57 15.37,21.42 20.59,46.36 25.37,70.72 7.37,37.63 13.44,84.42 -8.78,118.03"/>
      <path id="path244" style="fill:#353a85;fill-opacity:1;fill-rule:nonzero;stroke:none" d="m 3610.97,4918.79 -4.7,-1.43 c -73.68,-22.46 -151.62,19.07 -174.08,92.76 l -198.9,652.57 271.53,82.76 198.9,-652.57 c 22.46,-73.69 -19.07,-151.63 -92.75,-174.09"/>
      <path id="path246" style="fill-opacity: 1; fill-rule: nonzero; stroke: none; fill: rgb(218, 180, 149);" d="M 3722.3,6613.76 2568.46,6262.08 c -90.3,-27.53 -185.82,23.36 -213.34,113.67 l -23.49,77.07 c -27.53,90.31 23.36,185.82 113.67,213.35 l 1153.83,351.68 c 90.3,27.53 185.82,-23.37 213.34,-113.67 l 23.5,-77.08 c 27.52,-90.3 -23.37,-185.81 -113.67,-213.34"/>
      <path id="path248" style="fill:#e9e9e9;fill-opacity:1;fill-rule:nonzero;stroke:none" d="m 2586.86,6267.68 1116.89,340.43 c -0.2,-0.06 -0.4,-0.13 -0.6,-0.19 L 2587.6,6267.91 c -0.24,-0.08 -0.5,-0.15 -0.74,-0.23 m -235.59,120.69 c -0.02,0.08 -0.04,0.15 -0.07,0.22 v 0 l 0.07,-0.22"/>
      <path id="path250" style="fill-opacity: 1; fill-rule: nonzero; stroke: none; fill: rgb(251, 209, 175);" d="m 2530.07,6259.28 c -80.76,0 -154.68,50.35 -178.8,129.09 l -0.07,0.22 1480.85,451.36 c 29.63,-97.21 -27.78,-200.87 -128.3,-231.84 L 2586.86,6267.68 c -18.95,-5.69 -38.04,-8.4 -56.79,-8.4"/>
      <path id="path252" style="fill:#8b8d96;fill-opacity:1;fill-rule:nonzero;stroke:none" d="m 3399.06,5713.22 -60.03,-18.29 -37.03,121.5 c -5.4,17.73 -20.36,31.17 -39.02,35.05 l -848.83,138.32 c -41.89,8.66 -74.39,37.85 -86.15,76.43 l -64.06,210.17 c -18.03,59.17 17.15,122.49 78.43,141.17 l 17.66,-57.96 c -28.17,-8.59 -44.36,-37.71 -36.07,-64.91 l 64.07,-210.17 c 5.4,-17.74 20.34,-31.17 39,-35.05 l 848.84,-138.32 c 41.91,-8.68 74.4,-37.87 86.16,-76.44 l 37.03,-121.5"/>
      <path id="path254" style="fill:#d6b197;fill-opacity:1;fill-rule:nonzero;stroke:none" d="m 3607.87,4917.85 1.45,0.44 c -0.23,-0.07 -0.46,-0.14 -0.7,-0.21 -0.25,-0.08 -0.5,-0.16 -0.75,-0.23"/>
      <path id="path256" style="fill:#e9e9e9;fill-opacity:1;fill-rule:nonzero;stroke:none" d="m 3488.21,4934.74 c -1.92,1.26 -3.81,2.56 -5.67,3.91 0.03,0.01 0.04,0.01 0.07,0.02 1.84,-1.35 3.71,-2.67 5.6,-3.93 m 221.94,112.59 c -0.14,0.04 -0.28,0.07 -0.41,0.11 0.5,14.65 -1.32,29.64 -5.72,44.45 l 0.41,-1.35 c 4.38,-14.37 6.2,-28.92 5.72,-43.21"/>
      <path id="path258" style="fill:#d6b197;fill-opacity:1;fill-rule:nonzero;stroke:none" d="m 3692.99,4985.86 c 10.14,18.75 16,39.8 16.75,61.58 0.13,-0.04 0.27,-0.07 0.41,-0.11 -0.73,-21.65 -6.75,-42.68 -17.16,-61.47"/>
      <path id="path260" style="fill:#e9e9e9;fill-opacity:1;fill-rule:nonzero;stroke:none" d="m 3622.1,5360.67 -76.05,249.49 c -0.01,0.06 -0.02,0.09 -0.02,0.09 l 76.07,-249.58"/>
      <path id="path262" style="fill:#34387b;fill-opacity:1;fill-rule:nonzero;stroke:none" d="m 3566.05,4911.69 c -28.16,0 -55.19,8.27 -77.84,23.05 -1.89,1.26 -3.76,2.58 -5.6,3.93 216.62,80.9 65.56,663.39 63.44,671.49 l 76.05,-249.49 81.92,-268.78 c 4.4,-14.81 6.22,-29.8 5.72,-44.45 -0.75,-21.78 -6.61,-42.83 -16.75,-61.58 -17.22,-31.07 -46.47,-56.03 -83.67,-67.57 l -1.45,-0.44 c -13.96,-4.17 -28.03,-6.16 -41.82,-6.16"/>
      <path id="path264" style="fill:#eed5d5;fill-opacity:1;fill-rule:nonzero;stroke:none" d="m 3527.79,5024.25 c -7.2,23.65 6.8,48.87 31.3,56.34 24.49,7.46 50.19,-5.66 57.39,-29.31 7.22,-23.64 -6.8,-48.86 -31.29,-56.33 -24.49,-7.46 -50.19,5.66 -57.4,29.3"/>
    </g>
  </g>
</svg>